<?xml version="1.0" standalone="no"?>
<!DOCTYPE svg PUBLIC "-//W3C//DTD SVG 1.1//EN" "http://www.w3.org/Graphics/SVG/1.1/DTD/svg11.dtd" >
<svg>
<metadata>
Created by FontForge 20090622 at Thu Sep 27 12:35:46 2012
 By ffonts
Copyright \050c\051 Arkandis Digital Foundry, under GNU General Public Licence V2 and later, with font exception.
</metadata>
<defs>
<font id="UniversalisADFPro-Regular" horiz-adv-x="526" >
  <font-face 
    font-family="Universalis ADF Pro"
    font-weight="400"
    font-stretch="normal"
    units-per-em="1000"
    panose-1="2 11 5 3 5 2 2 2 0 3"
    ascent="750"
    descent="-250"
    x-height="448"
    cap-height="700"
    bbox="-80 -250 1922 1010"
    underline-thickness="70"
    underline-position="-30"
    stemh="64"
    stemv="76"
    unicode-range="U+0020-U+FB06"
  />
<missing-glyph horiz-adv-x="500" 
d="M0 0v700h500v-700h-500zM250 395l170 255h-340zM280 350l170 -255v510zM80 50h340l-170 255zM50 605v-510l170 255z" />
    <glyph glyph-name="AE" unicode="AE" horiz-adv-x="860" 
d="M850 0h-368l-70 181h-256l-71 -181h-80l280 711l4 -11h308l30 -73h-308l69 -179h310l29 -73h-306l115 -304h286zM285 513l-99 -260h201z" />
    <glyph glyph-name="OE" unicode="OE" horiz-adv-x="1043" 
d="M620 590v110h387v-73h-310v-179h310v-73h-310v-304h318v-71h-395v104c-56 -74 -144 -116 -254 -116c-199 0 -327 139 -327 359s130 364 327 364c108 0 196 -44 254 -121zM366 645c-143 0 -255 -110 -255 -298c0 -183 107 -297 255 -297c139 0 246 96 254 273v43
c-8 171 -111 279 -254 279z" />
    <glyph glyph-name="ae" unicode="ae" horiz-adv-x="814" 
d="M108 352l-33 58c52 34 107 48 156 48c95 0 121 -22 173 -74c37 39 93 74 153 74h9c121 0 195 -82 205 -211v-27h-346c0 -92 61 -168 143 -168h8c58 0 99 22 133 62l47 -42c-40 -54 -110 -82 -189 -83c-98 1 -147 47 -179 107c-22 -66 -82 -106 -183 -106
c-103 0 -165 49 -165 139c0 102 72 153 208 153h106v7c0 66 -48 106 -131 106c-31 -1 -81 -11 -115 -43zM433 283h261c-13 80 -69 111 -131 111c-63 0 -120 -64 -130 -111zM354 220h-75c-123 0 -161 -20 -161 -86c0 -53 36 -86 97 -86c83 0 139 63 139 160v12z" />
    <glyph glyph-name="oe" unicode="oe" horiz-adv-x="885" 
d="M788 114l47 -42c-40 -54 -110 -82 -189 -83c-83 0 -152 45 -191 113c-40 -69 -103 -113 -185 -113c-125 0 -227 101 -227 232c0 133 102 237 227 237c81 0 145 -40 184 -108c38 69 105 108 187 108h4c121 0 195 -82 205 -211v-27h-351c0 -92 66 -168 148 -168h8
c58 0 99 22 133 62zM271 394c-82 0 -148 -80 -148 -173s66 -169 148 -169c81 0 147 76 147 169s-66 173 -147 173zM507 283h266c-13 80 -69 111 -131 111c-63 0 -125 -64 -135 -111z" />
    <glyph glyph-name="germandbls" unicode="ss" horiz-adv-x="523" 
d="M73 446v69c0 117 67 196 187 196c87 0 177 -69 177 -195v-85c-79 -5 -130 -26 -130 -69c0 -28 11 -44 50 -68l22 -17c90 -62 108 -115 108 -169c-2 -68 -64 -119 -157 -119c-34 0 -97 12 -134 64l54 45c18 -21 56 -49 80 -49c47 0 79 18 79 73v7c0 22 -14 47 -65 80
l-37 25c-53 34 -75 70 -75 126c0 76 48 100 130 118v38c0 66 -49 126 -104 126c-69 0 -106 -50 -108 -128v-514h-77v392h-29z" />
    <glyph glyph-name="f_f" unicode="ff" horiz-adv-x="560" 
d="M312 750v-62h-72c-56 0 -70 -38 -72 -94v-146h205v136c0 101 46 164 149 166h66v-62h-67c-56 0 -70 -40 -72 -96v-144h85v-57h-85v-391h-76v391h-205v-391h-76v391h-72v57h72v138c0 101 46 162 149 164h71z" />
    <glyph glyph-name="f_f_i" unicode="ffi" horiz-adv-x="786" 
d="M692 675c28 0 51 -23 51 -51s-23 -50 -51 -50s-50 22 -50 50s22 51 50 51zM312 750v-62h-72c-56 0 -70 -38 -72 -94v-146h202v140c0 98 45 161 144 162h77v-62h-73c-56 0 -70 -35 -72 -91v-149h283v-448h-75v391h-208v-391h-76v391h-202v-391h-76v391h-72v57h72v138
c0 101 46 162 149 164h71z" />
    <glyph glyph-name="f_f_l" unicode="ffl" horiz-adv-x="809" 
d="M320 750v-62h-72c-56 0 -70 -38 -72 -94v-146h205v136c0 101 46 164 149 166h210v-750h-75v688h-136c-56 0 -70 -40 -72 -96v-144h85v-57h-85v-391h-76v391h-205v-391h-76v391h-72v57h72v138c0 101 46 162 149 164h71z" />
    <glyph glyph-name="f_i" unicode="fi" horiz-adv-x="528" 
d="M422 675c28 0 51 -23 51 -51s-23 -50 -51 -50s-50 22 -50 50s22 51 50 51zM459 448v-448h-75v391h-208v-391h-76v391h-72v57h72v140c0 98 45 161 144 162h77v-61h-73c-56 0 -70 -36 -72 -92v-149h283z" />
    <glyph glyph-name="f_l" unicode="fl" horiz-adv-x="528" 
d="M249 750h210v-750h-75v688h-136c-56 0 -70 -40 -72 -96v-144h85v-57h-85v-391h-76v391h-72v57h72v136c0 101 46 164 149 166z" />
    <glyph glyph-name=".notdef" horiz-adv-x="500" 
d="M0 0v700h500v-700h-500zM250 395l170 255h-340zM280 350l170 -255v510zM80 50h340l-170 255zM50 605v-510l170 255z" />
    <glyph glyph-name="space" unicode=" " horiz-adv-x="300" 
 />
    <glyph glyph-name="exclam" unicode="!" horiz-adv-x="293" 
d="M147 89c28 0 51 -23 51 -51s-23 -50 -51 -50s-50 22 -50 50s22 51 50 51zM104 700h85v-333l-5 -156h-75l-5 156v333z" />
    <glyph glyph-name="quotedbl" unicode="&#x22;" horiz-adv-x="363" 
d="M294 700v-252h-70v252h70zM138 700v-252h-69v252h69z" />
    <glyph glyph-name="numbersign" unicode="#" horiz-adv-x="606" 
d="M317 646l-43 -183h120l44 183h65l-43 -183h129v-68h-145l-33 -147h130v-67h-146l-42 -181h-67l43 181h-121l-41 -181h-67l43 181h-129v67h144l34 147h-131v68h147l44 183h65zM378 395h-119l-35 -147h121z" />
    <glyph glyph-name="dollar" unicode="$" horiz-adv-x="449" 
d="M244 248v-182c67 9 105 40 105 91c0 49 -31 78 -105 91zM203 341v172c-53 -1 -88 -36 -88 -87c3 -46 25 -74 88 -85zM244 -125h-41v122c-58 0 -113 12 -173 62l40 56c52 -38 70 -49 133 -50v194c-119 20 -159 75 -162 162c0 96 63 157 162 162v117h41v-115
c40 -1 84 -18 136 -54l-38 -60c-26 21 -45 40 -98 42v-180c123 -20 181 -71 181 -167c0 -102 -64 -162 -181 -169v-122z" />
    <glyph glyph-name="percent" unicode="%" horiz-adv-x="835" 
d="M649 244c-52 0 -96 -43 -96 -95c0 -53 44 -96 97 -96c52 0 96 43 96 94c0 54 -43 97 -97 97zM649 310c91 0 163 -72 163 -163c0 -87 -75 -160 -162 -160c-89 0 -162 73 -162 162c0 88 73 161 161 161zM574 665h63l-375 -678h-63zM185 599c-53 0 -96 -43 -96 -96
c0 -52 43 -96 97 -96c52 0 95 43 95 95c0 54 -42 97 -96 97zM185 665c91 0 162 -72 162 -164c0 -87 -73 -161 -161 -161c-90 0 -163 74 -163 163s73 162 162 162z" />
    <glyph glyph-name="ampersand" unicode="&#x26;" horiz-adv-x="601" 
d="M424 0v3c-40 -7 -108 -14 -144 -14c-154 0 -240 71 -240 200c0 85 50 145 127 164c-74 20 -112 72 -112 144c0 107 80 171 203 171c28 0 75 -11 114 -30l-35 -73c-22 16 -40 29 -71 29c-85 0 -128 -41 -128 -107c0 -65 46 -100 125 -100h25v-74h-22
c-91 0 -143 -47 -143 -124c0 -84 56 -128 159 -128c55 0 105 1 142 19v311h-62v57h62v116h76v-116h62v-57h-62v-391h-76z" />
    <glyph glyph-name="quoteright" unicode="&#x2019;" horiz-adv-x="220" 
d="M81 700h85v-61l-67 -128h-52l34 128v61z" />
    <glyph glyph-name="parenleft" unicode="(" horiz-adv-x="252" 
d="M230 700c-72 -138 -108 -282 -108 -418c0 -135 34 -269 108 -402h-66c-81 132 -123 268 -123 402c0 130 41 277 123 418h66z" />
    <glyph glyph-name="parenright" unicode=")" horiz-adv-x="254" 
d="M22 700h66c80 -137 123 -285 123 -418c0 -131 -41 -269 -123 -402h-66c72 129 108 264 108 402c0 134 -34 282 -108 418z" />
    <glyph glyph-name="asterisk" unicode="*" horiz-adv-x="364" 
d="M329 632l-119 -68l119 -69l-19 -34l-110 71v-133h-39v133l-109 -71l-19 34l118 69l-118 68l19 36l109 -72v132h39v-132l110 72z" />
    <glyph glyph-name="plus" unicode="+" horiz-adv-x="429" 
d="M248 488v-170h159v-76h-159v-170h-70v170h-156v76h156v170h70z" />
    <glyph glyph-name="comma" unicode="," horiz-adv-x="214" 
d="M188 35l-122 -183l-35 23l97 196z" />
    <glyph glyph-name="hyphen" unicode="-" horiz-adv-x="359" 
d="M69 256h221v-66h-221v66z" />
    <glyph glyph-name="period" unicode="." horiz-adv-x="218" 
d="M105 89c28 0 51 -23 51 -51s-23 -50 -51 -50s-50 22 -50 50s22 51 50 51z" />
    <glyph glyph-name="slash" unicode="/" horiz-adv-x="350" 
d="M260 750h71l-248 -832h-71z" />
    <glyph glyph-name="zero" unicode="0" horiz-adv-x="585" 
d="M291 711c135 0 213 -125 213 -364c0 -237 -76 -359 -213 -359c-136 0 -211 120 -211 359c0 237 73 364 211 364zM291 647c-91 0 -139 -99 -139 -300s48 -300 139 -300s139 95 139 300c0 201 -46 300 -139 300z" />
    <glyph glyph-name="one" unicode="1" horiz-adv-x="318" 
d="M213 700v-700h-80v621h-99l35 79h144z" />
    <glyph glyph-name="two" unicode="2" horiz-adv-x="508" 
d="M146 72h296v-72h-387v72l236 273c53 63 74 112 74 164c0 77 -53 136 -132 136h-2c-61 0 -105 -43 -108 -86h-71c1 84 90 153 179 153c120 0 206 -72 206 -200c0 -78 -34 -143 -70 -186z" />
    <glyph glyph-name="three" unicode="3" horiz-adv-x="538" 
d="M42 141h81c15 -60 61 -94 128 -94c82 0 136 53 136 145c0 86 -48 144 -130 144v68c70 0 117 43 117 118c0 78 -45 125 -123 125c-63 0 -105 -32 -116 -90h-80c9 96 81 154 196 154c116 0 195 -64 195 -180c0 -79 -42 -137 -115 -159c80 -21 128 -85 130 -180
c0 -131 -75 -204 -210 -204c-119 0 -194 50 -209 153z" />
    <glyph glyph-name="four" unicode="4" horiz-adv-x="544" 
d="M407 712v-487h90v-73h-90v-152h-77v152h-280zM330 485l-158 -260h158v260z" />
    <glyph glyph-name="five" unicode="5" horiz-adv-x="509" 
d="M164 700h275l-16 -71h-213l-53 -179c29 6 30 6 57 8c133 0 223 -87 223 -237c0 -149 -86 -233 -235 -233c-49 0 -109 23 -160 78l40 56c35 -42 77 -67 118 -69c100 0 164 62 164 168c0 104 -64 169 -164 169c-45 0 -87 -13 -134 -37z" />
    <glyph glyph-name="six" unicode="6" horiz-adv-x="567" 
d="M285 394c-81 0 -147 -80 -147 -173s66 -169 147 -169c82 0 148 76 148 169s-66 173 -148 173zM284 458c125 0 225 -103 225 -236c0 -131 -100 -233 -225 -233s-226 101 -226 232c0 55 18 113 43 149l251 342l58 -36l-170 -229c5 3 13 5 21 7c8 3 16 4 23 4z" />
    <glyph glyph-name="seven" unicode="7" horiz-adv-x="465" 
d="M32 700h394l-235 -700h-80l210 626h-289v74z" />
    <glyph glyph-name="eight" unicode="8" horiz-adv-x="572" 
d="M167 525c0 -78 42 -124 118 -124c74 0 118 46 118 124s-39 122 -118 122c-75 0 -118 -42 -118 -122zM200 372c-70 19 -105 81 -105 162c0 110 68 177 190 177c117 0 191 -61 191 -177c0 -79 -32 -140 -106 -162c80 -21 123 -85 125 -180c0 -131 -74 -204 -210 -204
c-134 0 -211 67 -211 204c0 91 44 159 126 180zM285 338c-84 0 -136 -51 -136 -146c0 -90 51 -145 136 -145c83 0 136 53 136 145c0 90 -48 146 -136 146z" />
    <glyph glyph-name="nine" unicode="9" horiz-adv-x="568" 
d="M282 305c81 0 147 80 147 173s-66 169 -147 169c-82 0 -148 -76 -148 -169s66 -173 148 -173zM283 241c-124 0 -225 103 -225 236c0 131 101 234 225 234c125 0 226 -102 226 -233c0 -55 -15 -110 -43 -149l-254 -342l-58 35l173 230c-13 -6 -27 -10 -44 -11z" />
    <glyph glyph-name="colon" unicode=":" horiz-adv-x="217" 
d="M105 418c28 0 51 -23 51 -51s-23 -50 -51 -50s-50 22 -50 50s22 51 50 51zM105 89c28 0 51 -23 51 -51s-23 -50 -51 -50s-50 22 -50 50s22 51 50 51z" />
    <glyph glyph-name="semicolon" unicode=";" horiz-adv-x="223" 
d="M188 35l-122 -183l-35 23l97 196zM119 418c28 0 51 -23 51 -51s-23 -50 -51 -50s-50 22 -50 50s22 51 50 51z" />
    <glyph glyph-name="less" unicode="&#x3c;" horiz-adv-x="586" 
d="M547 402l-424 -147l424 -146v-73l-527 186v67l527 186v-73z" />
    <glyph glyph-name="equal" unicode="=" horiz-adv-x="664" 
d="M69 208h526v-68h-526v68zM69 371h526v-68h-526v68z" />
    <glyph glyph-name="greater" unicode="&#x3e;" horiz-adv-x="588" 
d="M40 402v73l528 -186v-67l-528 -186v73l424 146z" />
    <glyph glyph-name="question" unicode="?" horiz-adv-x="413" 
d="M113 547h-76c2 116 86 164 162 164c90 0 150 -52 154 -134c0 -70 -80 -138 -106 -164c-34 -38 -72 -74 -72 -106c0 -3 -1 -6 -1 -10c0 -26 15 -48 38 -48h11c20 0 39 8 44 46h54c-2 -63 -41 -114 -108 -114h-4c-54 2 -114 50 -114 116c0 72 50 124 100 169
c31 29 75 74 76 105c0 46 -24 66 -78 66c-43 0 -76 -32 -80 -90zM210 88c28 0 51 -23 51 -51s-23 -50 -51 -50s-50 22 -50 50s22 51 50 51z" />
    <glyph glyph-name="at" unicode="@" horiz-adv-x="788" 
d="M512 97c-32 -43 -74 -64 -130 -64c-92 0 -159 76 -159 189c0 108 64 189 159 189c53 0 98 -19 130 -64v55h58v-308c80 13 127 78 129 178c0 169 -144 275 -290 278c-188 0 -319 -154 -319 -326c0 -185 142 -319 311 -319c72 0 143 33 199 79l37 -46
c-68 -55 -151 -83 -236 -85c-224 0 -368 176 -368 371c0 221 173 378 375 378c187 0 349 -143 349 -329c0 -148 -93 -237 -245 -241v65zM288 222c0 -77 40 -128 110 -128c64 0 108 48 108 128c0 78 -43 127 -109 127c-63 0 -107 -44 -109 -127z" />
    <glyph glyph-name="A" unicode="A" horiz-adv-x="572" 
d="M285 711l282 -711h-80l-70 181h-261l-71 -181h-80zM285 513l-99 -260h201z" />
    <glyph glyph-name="B" unicode="B" horiz-adv-x="545" 
d="M69 700h212c121 0 197 -62 197 -171c0 -87 -35 -137 -108 -150c83 -21 134 -87 134 -186c0 -125 -77 -193 -214 -193h-221v700zM145 631v-223h130c84 0 129 32 129 111c0 72 -40 110 -129 112h-130zM145 341v-274h140c94 0 141 42 141 137c0 91 -46 137 -141 137h-140z
" />
    <glyph glyph-name="C" unicode="C" horiz-adv-x="567" 
d="M536 648l-40 -55c-46 34 -96 52 -150 52c-143 0 -227 -104 -227 -299c0 -190 77 -295 227 -295c52 0 100 15 145 48l44 -52c-58 -42 -121 -60 -194 -60c-184 0 -300 133 -300 359c0 225 115 365 300 365c74 0 137 -22 195 -63z" />
    <glyph glyph-name="D" unicode="D" horiz-adv-x="628" 
d="M69 703h171c235 0 345 -107 345 -352c0 -242 -107 -351 -345 -351h-171v703zM146 634v-567h106c176 0 255 89 255 284c0 194 -79 283 -255 283h-106z" />
    <glyph glyph-name="E" unicode="E" horiz-adv-x="492" 
d="M69 700h387v-73h-310v-179h310v-73h-310v-304h318v-71h-395v700z" />
    <glyph glyph-name="F" unicode="F" horiz-adv-x="444" 
d="M69 700h351v-73h-274v-179h274v-72h-274v-376h-77v700z" />
    <glyph glyph-name="G" unicode="G" horiz-adv-x="626" 
d="M501 90v200h-137v70h213v-304c-65 -47 -141 -68 -229 -68c-192 0 -307 130 -307 361s116 362 307 362c77 0 148 -21 210 -61l-41 -59c-50 36 -104 54 -163 54c-154 0 -236 -96 -236 -296c0 -193 79 -293 236 -293c64 0 111 10 147 34z" />
    <glyph glyph-name="H" unicode="H" horiz-adv-x="606" 
d="M69 700h76v-289h315v289h77v-700h-77v338h-315v-338h-76v700z" />
    <glyph glyph-name="I" unicode="I" horiz-adv-x="215" 
d="M69 700h77v-700h-77v700z" />
    <glyph glyph-name="J" unicode="J" horiz-adv-x="279" 
d="M137 700h77v-475c0 -162 -52 -237 -178 -237h-30v69h22c80 0 109 42 109 168v475z" />
    <glyph glyph-name="K" unicode="K" horiz-adv-x="557" 
d="M69 700h78v-302l286 302h101l-312 -325l334 -375h-103l-306 343v-343h-78v700z" />
    <glyph glyph-name="L" unicode="L" horiz-adv-x="455" 
d="M69 700h77v-629h304v-71h-381v700z" />
    <glyph glyph-name="M" unicode="M" horiz-adv-x="772" 
d="M14 0l193 711l179 -508l179 508l192 -711h-82l-125 460l-166 -460l-163 460l-125 -460h-82z" />
    <glyph glyph-name="N" unicode="N" horiz-adv-x="602" 
d="M69 711l388 -501v490h76v-711l-388 497v-486h-76v711z" />
    <glyph glyph-name="O" unicode="O" horiz-adv-x="749" 
d="M374 711c194 0 326 -143 326 -364c0 -219 -125 -359 -326 -359c-199 0 -327 139 -327 359s130 364 327 364zM374 645c-143 0 -255 -110 -255 -298c0 -183 107 -297 255 -297c144 0 254 110 254 297c0 182 -106 298 -254 298z" />
    <glyph glyph-name="P" unicode="P" horiz-adv-x="492" 
d="M69 700h180c134 0 215 -60 215 -201c0 -135 -78 -199 -215 -199h-103v-300h-77v700zM146 631v-264h103c81 0 138 41 138 132c0 90 -53 130 -138 132h-103z" />
    <glyph glyph-name="Q" unicode="Q" horiz-adv-x="733" 
d="M614 97l78 -97h-82l-41 52c-53 -41 -122 -64 -203 -64c-199 0 -327 139 -327 359s130 364 327 364c194 0 326 -143 326 -364c0 -103 -28 -189 -78 -250zM366 645c-143 0 -255 -110 -255 -298c0 -183 107 -297 255 -297c61 0 116 20 159 57l-107 133h82l68 -85
c33 49 52 114 52 192c0 182 -106 298 -254 298z" />
    <glyph glyph-name="R" unicode="R" horiz-adv-x="499" 
d="M69 700h183c121 0 199 -63 199 -197c-7 -119 -60 -167 -133 -189l159 -314h-83l-156 300h-92v-300h-77v700zM146 631v-261h103c85 0 129 47 129 133c0 85 -43 126 -129 128h-103z" />
    <glyph glyph-name="S" unicode="S" horiz-adv-x="500" 
d="M444 626l-48 -56c-38 46 -76 75 -131 75c-93 0 -140 -40 -141 -126c1 -61 31 -95 116 -114l51 -12c122 -29 176 -90 176 -204c0 -133 -81 -201 -234 -201c-58 0 -139 28 -195 76l50 62c48 -48 99 -68 145 -71c97 0 157 39 157 126c0 71 -29 112 -122 132l-52 12
c-117 27 -165 91 -166 189c0 120 70 197 205 197c82 -1 141 -33 189 -85z" />
    <glyph glyph-name="T" unicode="T" horiz-adv-x="519" 
d="M10 700h499v-73h-211v-627h-76v627h-212v73z" />
    <glyph glyph-name="U" unicode="U" horiz-adv-x="596" 
d="M63 700h77v-429c0 -155 44 -222 159 -222c111 0 160 66 160 222v429h74v-441c0 -181 -80 -271 -234 -271c-153 0 -236 88 -236 271v441z" />
    <glyph glyph-name="V" unicode="V" horiz-adv-x="582" 
d="M572 700l-280 -713l-281 713h80l201 -505l201 505h79z" />
    <glyph glyph-name="W" unicode="W" horiz-adv-x="780" 
d="M19 700h82l125 -457l163 457l166 -457l125 457h82l-192 -713l-179 508l-179 -508z" />
    <glyph glyph-name="X" unicode="X" horiz-adv-x="544" 
d="M36 700h82l158 -266l159 266h84l-203 -337l216 -363h-82l-180 302l-180 -302h-84l224 373z" />
    <glyph glyph-name="Y" unicode="Y" horiz-adv-x="525" 
d="M4 700h84l176 -292l175 292h82l-221 -364v-336h-75v336z" />
    <glyph glyph-name="Z" unicode="Z" horiz-adv-x="531" 
d="M24 700h481l-361 -629h370v-71h-499l360 626h-351v74z" />
    <glyph glyph-name="bracketleft" unicode="[" horiz-adv-x="269" 
d="M69 700h175v-63h-99v-699h99v-63h-175v825z" />
    <glyph glyph-name="backslash" unicode="\" horiz-adv-x="310" 
d="M83 597l214 -672h-71l-213 672h70z" />
    <glyph glyph-name="bracketright" unicode="]" horiz-adv-x="268" 
d="M199 700v-825h-174v63h99v699h-99v63h174z" />
    <glyph glyph-name="asciicircum" unicode="^" horiz-adv-x="570" 
d="M325 597l223 -223h-83l-180 168l-182 -168h-81l222 223h81z" />
    <glyph glyph-name="underscore" unicode="_" horiz-adv-x="430" 
d="M432 -135v-57h-437v57h437z" />
    <glyph glyph-name="quoteleft" unicode="&#x2018;" horiz-adv-x="225" 
d="M141 503h-86v69l67 128h53l-34 -128v-69z" />
    <glyph glyph-name="a" unicode="a" 
d="M124 222c0 -106 46 -174 128 -174c81 0 130 67 130 174s-49 174 -130 174c-78 0 -128 -63 -128 -174zM382 379v69h75v-448h-75v65c-30 -50 -77 -75 -147 -75c-111 0 -189 91 -189 232s77 236 189 236c66 0 115 -24 147 -79z" />
    <glyph glyph-name="b" unicode="b" horiz-adv-x="528" 
d="M145 379c32 53 77 79 146 79c112 0 188 -95 188 -236c0 -138 -75 -232 -188 -232c-66 0 -111 20 -146 75v-65h-76v750h76v-371zM402 222c0 107 -49 174 -128 174c-78 0 -129 -63 -129 -174c0 -104 45 -174 129 -174c79 0 128 67 128 174z" />
    <glyph glyph-name="c" unicode="c" horiz-adv-x="443" 
d="M269 458h8c46 0 99 -16 141 -54l-50 -56c-26 28 -61 46 -98 46c-82 0 -148 -80 -148 -173s66 -169 148 -169c38 0 72 16 98 44l50 -59c-46 -30 -89 -49 -135 -49c-5 0 -9 1 -14 1c-125 0 -227 101 -227 232c0 133 102 237 227 237z" />
    <glyph glyph-name="d" unicode="d" 
d="M124 222c0 -106 46 -174 128 -174c81 0 130 67 130 174s-49 174 -130 174c-78 0 -128 -63 -128 -174zM382 379v371h75v-750h-75v65c-30 -50 -77 -75 -147 -75c-111 0 -189 91 -189 232s77 236 189 236c66 0 115 -24 147 -79z" />
    <glyph glyph-name="e" unicode="e" horiz-adv-x="504" 
d="M264 458h4c121 0 195 -82 205 -211v-27h-351c0 -92 66 -168 148 -168h8c58 0 99 22 133 62l47 -42c-40 -54 -110 -82 -189 -83c-125 0 -225 101 -225 232c0 133 95 237 220 237zM130 283h266c-13 80 -69 111 -131 111c-63 0 -125 -64 -135 -111z" />
    <glyph glyph-name="f" unicode="f" horiz-adv-x="283" 
d="M320 750v-62h-72c-56 0 -70 -38 -72 -94v-146h83v-57h-83v-391h-76v391h-72v57h72v138c0 101 46 162 149 164h71z" />
    <glyph glyph-name="g" unicode="g" 
d="M457 0c0 -149 -67 -225 -212 -225h-12c-62 0 -128 22 -166 68l55 49c23 -34 64 -56 112 -56c94 0 148 47 148 149v93c-30 -53 -80 -78 -147 -78c-111 0 -189 90 -189 229c0 135 75 229 189 229c67 0 114 -24 147 -79v69h75v-448zM382 229c0 104 -46 167 -130 167
c-79 0 -127 -60 -127 -167c0 -106 44 -169 127 -169c82 0 130 62 130 169z" />
    <glyph glyph-name="h" unicode="h" horiz-adv-x="517" 
d="M454 270v-270h-76v267c0 85 -34 126 -102 127c-82 0 -129 -53 -131 -142v-252h-76v750h76v-373c36 54 83 81 148 81c104 0 161 -64 161 -188z" />
    <glyph glyph-name="i" unicode="i" horiz-adv-x="214" 
d="M107 675c28 0 51 -23 51 -51s-23 -50 -51 -50s-50 22 -50 50s22 51 50 51zM69 448h76v-448h-76v448z" />
    <glyph glyph-name="j" unicode="j" horiz-adv-x="214" 
d="M107 675c28 0 51 -23 51 -51s-23 -50 -51 -50s-50 22 -50 50s22 51 50 51zM69 448h76v-673h-76v673z" />
    <glyph glyph-name="k" unicode="k" horiz-adv-x="489" 
d="M69 750h76v-497l225 195h96l-244 -211l255 -237h-99l-233 218v-218h-76v750z" />
    <glyph glyph-name="l" unicode="l" horiz-adv-x="214" 
d="M69 750h76v-750h-76v750z" />
    <glyph glyph-name="m" unicode="m" horiz-adv-x="803" 
d="M430 361c35 64 88 97 159 97c96 0 151 -67 151 -188v-270h-76v267c0 84 -30 127 -95 127c-78 0 -125 -53 -127 -142v-252h-75v267c0 85 -30 127 -96 127c-78 0 -124 -56 -126 -142v-252h-76v448h76v-71c36 55 79 81 147 81c67 0 113 -34 138 -97z" />
    <glyph glyph-name="n" unicode="n" horiz-adv-x="517" 
d="M454 270v-270h-76v267c0 85 -34 126 -102 127c-82 0 -129 -53 -131 -142v-252h-76v448h76v-71c36 54 83 81 148 81c104 0 161 -64 161 -188z" />
    <glyph glyph-name="o" unicode="o" horiz-adv-x="538" 
d="M270 394c-82 0 -148 -80 -148 -173s66 -169 148 -169c81 0 147 76 147 169s-66 173 -147 173zM269 458c124 0 224 -103 224 -236c0 -131 -100 -233 -224 -233c-125 0 -227 101 -227 232c0 133 102 237 227 237z" />
    <glyph glyph-name="p" unicode="p" horiz-adv-x="528" 
d="M402 222c0 107 -49 174 -128 174c-78 0 -129 -63 -129 -174c0 -104 45 -174 129 -174c79 0 128 67 128 174zM145 65v-290h-76v673h76v-69c32 53 77 79 146 79c112 0 188 -95 188 -236c0 -138 -75 -232 -188 -232c-66 0 -111 20 -146 75z" />
    <glyph glyph-name="q" unicode="q" 
d="M382 65c-30 -50 -77 -77 -147 -77c-111 0 -189 93 -189 234s77 236 189 236c66 0 115 -24 147 -79v69h75v-673h-75v290zM124 222c0 -106 46 -174 128 -174c81 0 130 67 130 174s-49 174 -130 174c-78 0 -128 -63 -128 -174z" />
    <glyph glyph-name="r" unicode="r" horiz-adv-x="364" 
d="M353 444l-26 -68c-17 10 -29 17 -50 17c-86 0 -130 -57 -132 -158v-235h-76v448h76v-71c32 55 81 81 155 81c9 0 35 -4 53 -14z" />
    <glyph glyph-name="s" unicode="s" horiz-adv-x="411" 
d="M355 400l-43 -49c-29 27 -55 44 -96 44c-50 0 -88 -26 -88 -73c3 -44 52 -60 103 -71c66 -17 140 -53 140 -127c0 -108 -88 -135 -174 -135c-54 0 -118 25 -155 71l55 47c26 -36 64 -55 102 -55c67 0 93 10 95 56c0 54 -33 64 -92 79c-92 25 -141 58 -143 132
c0 83 62 139 160 139c46 0 90 -16 136 -58z" />
    <glyph glyph-name="t" unicode="t" horiz-adv-x="261" 
d="M168 625v-177h62v-57h-62v-391h-75v391h-62v57h62v177h75z" />
    <glyph glyph-name="u" unicode="u" horiz-adv-x="510" 
d="M63 176v272h74v-269c0 -85 50 -127 119 -127c80 0 114 39 115 141v255h76v-272c0 -116 -74 -187 -186 -187h-5c-106 0 -193 63 -193 187z" />
    <glyph glyph-name="v" unicode="v" horiz-adv-x="482" 
d="M16 448h83l142 -305l142 305h84l-226 -461z" />
    <glyph glyph-name="w" unicode="w" horiz-adv-x="698" 
d="M19 448h83l129 -287l117 287l121 -287l128 287h85l-213 -461l-121 290l-117 -290z" />
    <glyph glyph-name="x" unicode="x" horiz-adv-x="483" 
d="M454 448l-166 -219l174 -229h-89l-132 175l-135 -175h-89l178 234l-161 214h88l121 -161l123 161h88z" />
    <glyph glyph-name="y" unicode="y" horiz-adv-x="541" 
d="M397 229v219h75v-449c0 -148 -67 -224 -212 -224h-11c-62 0 -129 23 -167 68l55 49c23 -34 64 -56 112 -56c94 0 148 47 148 149v75c-30 -53 -80 -71 -147 -71c-111 0 -189 101 -189 240v219h79v-219c0 -106 44 -170 127 -170c82 0 130 63 130 170z" />
    <glyph glyph-name="z" unicode="z" horiz-adv-x="439" 
d="M44 448h358v-68l-283 -322h283v-58h-367v65l283 324h-274v59z" />
    <glyph glyph-name="braceleft" unicode="{" horiz-adv-x="356" 
d="M336 -82v-63h-25c-136 0 -172 30 -172 159v106c0 84 -22 116 -102 116h-27v64h27c77 0 102 28 102 116v106c0 129 32 163 172 163h25v-63h-28c-76 0 -92 -15 -94 -102v-109c0 -94 -21 -129 -82 -143c62 -17 82 -52 82 -143v-110c0 -78 15 -97 94 -97h28z" />
    <glyph glyph-name="bar" unicode="|" horiz-adv-x="207" 
d="M138 700v-850h-69v850h69z" />
    <glyph glyph-name="braceright" unicode="}" horiz-adv-x="355" 
d="M20 -82h29c77 0 92 17 92 97v110c0 92 22 126 82 143c-59 14 -82 48 -82 143v109c0 83 -15 102 -92 102h-29v63h26c138 0 171 -33 171 -163v-106c0 -88 25 -116 103 -116h24v-64h-24c-77 0 -103 -25 -103 -116v-106c0 -127 -33 -159 -171 -159h-26v63z" />
    <glyph glyph-name="asciitilde" unicode="~" horiz-adv-x="630" 
d="M573 327v-73c-57 -42 -102 -57 -157 -58c-29 0 -71 7 -112 25c-40 21 -85 29 -110 29c-48 0 -94 -20 -147 -64v71c56 40 100 59 157 59c29 0 71 -7 111 -26c42 -20 85 -28 110 -28c47 0 92 18 148 65z" />
    <glyph glyph-name="exclamdown" unicode="&#xa1;" horiz-adv-x="291" 
d="M147 710c28 0 51 -23 51 -51s-23 -50 -51 -50s-50 22 -50 50s22 51 50 51zM187 0h-83v321l5 165h73l5 -165v-321z" />
    <glyph glyph-name="cent" unicode="&#xa2;" horiz-adv-x="423" 
d="M394 430v-69c-41 22 -76 33 -115 34v-346c38 2 78 14 115 35v-69c-35 -15 -73 -22 -115 -25v-114h-41v116c-132 8 -207 92 -207 230s71 224 207 235v116h41v-116c39 -2 79 -9 115 -27zM238 51v343c-81 -9 -128 -73 -128 -172c0 -96 44 -161 128 -171z" />
    <glyph glyph-name="sterling" unicode="&#xa3;" horiz-adv-x="454" 
d="M456 584l-44 -50c-36 40 -54 62 -101 63h-3c-63 0 -105 -35 -105 -161v-94h157v-64h-157v-205h228v-73h-407v73h97v205h-81v64h81v104c0 152 69 220 183 222c64 -2 122 -32 152 -84z" />
    <glyph glyph-name="fraction" unicode="&#x2044;" horiz-adv-x="300" 
d="M317 607h66l-381 -617h-63z" />
    <glyph glyph-name="yen" unicode="&#xa5;" horiz-adv-x="505" 
d="M464 198h-169v-198h-83v198h-171v54h171v23l-34 69h-137v53h109l-131 260h79l155 -310l155 310h79l-131 -260h108v-53h-136l-34 -69v-23h170v-54z" />
    <glyph glyph-name="florin" unicode="&#x192;" horiz-adv-x="523" 
d="M507 611l-19 -53c-12 4 -24 6 -38 7c-52 0 -83 -30 -96 -102l-24 -125h117v-57h-131l-51 -254c-31 -150 -76 -197 -177 -197c-29 0 -55 6 -81 16l20 54c20 -8 39 -12 57 -12c51 0 77 28 98 119l56 274h-101v57h114l26 132c19 96 75 153 158 153c25 0 49 -3 72 -12z" />
    <glyph glyph-name="section" unicode="&#xa7;" horiz-adv-x="406" 
d="M333 642v-71c-45 21 -84 33 -117 34c-49 0 -85 -22 -85 -67c0 -25 29 -55 86 -90c127 -86 156 -105 156 -175c0 -53 -23 -92 -74 -125c33 -31 46 -58 48 -99c0 -80 -61 -133 -155 -133c-40 0 -81 7 -128 24v70c44 -19 86 -29 118 -31c56 0 89 21 89 67
c0 31 -30 61 -90 99l-11 7c-113 72 -139 99 -139 160c0 37 7 91 74 129c-31 25 -46 55 -48 100c0 73 58 127 151 127c36 0 81 -7 125 -26zM148 411c-34 -28 -50 -51 -51 -80c0 -44 14 -68 159 -151c33 26 51 50 51 80c0 42 -19 71 -159 151z" />
    <glyph glyph-name="currency" unicode="&#xa4;" horiz-adv-x="529" 
d="M373 282c0 62 -46 116 -109 116c-58 0 -111 -50 -111 -116c0 -67 48 -120 111 -120c61 0 109 53 109 120zM362 436l85 92l47 -51l-86 -90c20 -34 30 -70 30 -106c0 -39 -9 -69 -32 -104l87 -91l-47 -51l-85 91c-31 -22 -63 -33 -97 -33c-30 0 -66 9 -99 32l-84 -91
l-46 51l84 91c-19 35 -30 69 -30 105c0 33 9 70 31 104l-84 91l47 50l84 -91c30 22 61 33 97 33c32 0 67 -11 98 -32z" />
    <glyph glyph-name="quotesingle" unicode="'" horiz-adv-x="233" 
d="M197 677l-122 -183l-35 23l97 196z" />
    <glyph glyph-name="quotedblleft" unicode="&#x201c;" horiz-adv-x="393" 
d="M309 503h-87v69l68 128h52l-33 -128v-69zM141 503h-86v69l67 128h53l-34 -128v-69z" />
    <glyph glyph-name="guillemotleft" unicode="&#xab;" horiz-adv-x="450" 
d="M217 423v-77l-122 -107l122 -108v-75l-191 166v33zM396 423v-77l-124 -107l124 -108v-75l-192 166v33z" />
    <glyph glyph-name="guilsinglleft" unicode="&#x2039;" horiz-adv-x="271" 
d="M217 423v-77l-122 -107l122 -108v-75l-191 166v33z" />
    <glyph glyph-name="guilsinglright" unicode="&#x203a;" horiz-adv-x="272" 
d="M54 423l192 -168v-33l-192 -166v75l124 108l-124 107v77z" />
    <glyph glyph-name="endash" unicode="&#x2013;" horiz-adv-x="558" 
d="M69 252h420v-57h-420v57z" />
    <glyph glyph-name="dagger" unicode="&#x2020;" horiz-adv-x="392" 
d="M160 597h73v-169h150v-61h-150v-445h-73v445h-151v61h151v169z" />
    <glyph glyph-name="daggerdbl" unicode="&#x2021;" horiz-adv-x="419" 
d="M396 89h-150v-167h-72v167h-151v61h151v217h-151v61h151v169h72v-169h150v-61h-150v-217h150v-61z" />
    <glyph glyph-name="periodcentered" unicode="&#xb7;" horiz-adv-x="257" 
d="M127 360c41 0 75 -34 75 -75s-34 -75 -75 -75s-75 34 -75 75s34 75 75 75z" />
    <glyph glyph-name="paragraph" unicode="&#xb6;" horiz-adv-x="472" 
d="M219 657h184v-742h-58v688h-77v-688h-59v369c-115 10 -185 76 -185 186c0 109 77 187 195 187z" />
    <glyph glyph-name="bullet" unicode="&#x2022;" horiz-adv-x="350" 
d="M301 282c0 -72 -59 -132 -128 -132c-63 0 -123 57 -123 132c0 71 57 130 125 130c67 0 126 -57 126 -130z" />
    <glyph glyph-name="quotesinglbase" unicode="&#x201a;" horiz-adv-x="221" 
d="M79 100h86v-69l-68 -125h-52l34 125v69z" />
    <glyph glyph-name="quotedblbase" unicode="&#x201e;" horiz-adv-x="389" 
d="M79 100h86v-69l-68 -125h-52l34 125v69zM246 100h87v-69l-66 -125h-54l33 125v69z" />
    <glyph glyph-name="quotedblright" unicode="&#x201d;" horiz-adv-x="390" 
d="M247 700h87v-69l-66 -128h-54l33 128v69zM80 700h86v-69l-67 -128h-53l34 128v69z" />
    <glyph glyph-name="guillemotright" unicode="&#xbb;" horiz-adv-x="450" 
d="M232 423l192 -168v-33l-192 -166v75l123 108l-123 107v77zM54 423l192 -168v-33l-192 -166v75l124 108l-124 107v77z" />
    <glyph glyph-name="ellipsis" unicode="&#x2026;" horiz-adv-x="778" 
d="M665 89c28 0 51 -23 51 -51s-23 -50 -51 -50s-50 22 -50 50s22 51 50 51zM385 89c28 0 51 -23 51 -51s-23 -50 -51 -50s-50 22 -50 50s22 51 50 51zM105 89c28 0 51 -23 51 -51s-23 -50 -51 -50s-50 22 -50 50s22 51 50 51z" />
    <glyph glyph-name="perthousand" unicode="&#x2030;" horiz-adv-x="1211" 
d="M649 244c-52 0 -96 -43 -96 -95c0 -53 44 -96 97 -96c52 0 96 43 96 94c0 54 -43 97 -97 97zM649 310c91 0 163 -72 163 -163c0 -87 -75 -160 -162 -160c-89 0 -162 73 -162 162c0 88 73 161 161 161zM574 665h63l-375 -678h-63zM1027 244c-52 0 -96 -43 -96 -95
c0 -53 44 -96 97 -96c52 0 96 43 96 94c0 54 -43 97 -97 97zM1027 310c91 0 163 -72 163 -163c0 -87 -75 -160 -162 -160c-89 0 -162 73 -162 162c0 88 73 161 161 161zM185 599c-53 0 -96 -43 -96 -96c0 -52 43 -96 97 -96c52 0 95 43 95 95c0 54 -42 97 -96 97zM185 665
c91 0 162 -72 162 -164c0 -87 -73 -161 -161 -161c-90 0 -163 74 -163 163s73 162 162 162z" />
    <glyph glyph-name="questiondown" unicode="&#xbf;" horiz-adv-x="413" 
d="M202 611c-28 0 -51 23 -51 51s23 50 51 50s50 -22 50 -50s-22 -51 -50 -51zM299 151h76c-2 -116 -86 -164 -162 -164c-90 0 -150 52 -154 134c0 70 80 138 106 164c34 38 72 74 72 106c0 3 1 6 1 10c0 26 -15 48 -38 48h-11c-20 0 -39 -8 -44 -46h-54
c2 63 41 114 108 114h4c54 -2 114 -50 114 -116c0 -72 -50 -124 -100 -169c-31 -29 -75 -74 -76 -105c0 -46 24 -66 78 -66c43 0 76 32 80 90z" />
    <glyph glyph-name="grave" unicode="`" horiz-adv-x="260" 
d="M92 712l110 -157l-40 -30l-131 150z" />
    <glyph glyph-name="acute" unicode="&#xb4;" horiz-adv-x="262" 
d="M160 710l68 -35l-144 -165l-44 33z" />
    <glyph glyph-name="circumflex" unicode="&#x2c6;" horiz-adv-x="351" 
d="M143 675l-103 -128l55 -23l81 92l81 -92l54 23l-102 128h-66z" />
    <glyph glyph-name="tilde" unicode="&#x2dc;" horiz-adv-x="389" 
d="M257 555h-5c-24 0 -44 8 -67 25c-17 11 -43 30 -65 33h-2c-31 0 -52 -30 -68 -58l-39 30c19 33 58 83 105 84c27 0 49 -8 73 -26c18 -12 48 -32 64 -32h3c24 0 49 22 65 58l45 -30c-14 -42 -66 -84 -109 -84z" />
    <glyph glyph-name="macron" unicode="&#xaf;" horiz-adv-x="383" 
d="M69 610h245v-60h-245v60z" />
    <glyph glyph-name="breve" unicode="&#x2d8;" horiz-adv-x="368" 
d="M60 626l48 16c6 -27 25 -60 73 -60h4c45 0 77 26 79 60l46 -18c-4 -49 -50 -96 -121 -96h-4c-67 0 -119 40 -125 98z" />
    <glyph glyph-name="dotaccent" unicode="&#x2d9;" horiz-adv-x="222" 
d="M107 675c28 0 51 -23 51 -51s-23 -50 -51 -50s-50 22 -50 50s22 51 50 51z" />
    <glyph glyph-name="dieresis" unicode="&#xa8;" horiz-adv-x="370" 
d="M264 640c27 0 48 -23 48 -51s-21 -51 -48 -51s-48 23 -48 51s21 51 48 51zM99 640c27 0 48 -23 48 -51s-21 -51 -48 -51s-48 23 -48 51s21 51 48 51z" />
    <glyph glyph-name="ring" unicode="&#x2da;" horiz-adv-x="298" 
d="M242 616c0 -52 -43 -93 -97 -93c-52 0 -95 40 -95 93c0 50 41 94 95 94c53 0 95 -41 97 -94zM199 616c0 28 -24 51 -54 51c-28 0 -52 -20 -52 -51c0 -28 22 -52 52 -52c31 0 54 23 54 52z" />
    <glyph glyph-name="cedilla" unicode="&#xb8;" horiz-adv-x="265" 
d="M36 -180l86 140h48l-68 -180z" />
    <glyph glyph-name="hungarumlaut" unicode="&#x2dd;" horiz-adv-x="365" 
d="M331 677l-122 -183l-35 23l97 196zM196 677l-122 -183l-35 23l97 196z" />
    <glyph glyph-name="ogonek" unicode="&#x2db;" horiz-adv-x="252" 
d="M98 0h49c-25 -31 -37 -53 -37 -71c0 -23 13 -37 45 -37c16 0 33 3 51 13v-54c-21 -5 -39 -6 -55 -7c-64 0 -98 19 -98 71c0 26 14 53 45 85z" />
    <glyph glyph-name="caron" unicode="&#x2c7;" horiz-adv-x="336" 
d="M138 538l-94 116l50 21l74 -84l73 84l49 -21l-92 -116h-60z" />
    <glyph glyph-name="emdash" unicode="&#x2014;" horiz-adv-x="978" 
d="M69 252h840v-57h-840v57z" />
    <glyph glyph-name="ordfeminine" unicode="&#xaa;" horiz-adv-x="402" 
d="M224 485c-86 0 -118 -17 -118 -63c0 -36 25 -63 76 -63c57 0 94 48 94 113v13h-52zM338 513v-199h-62v50c-23 -36 -63 -59 -115 -59c-68 0 -113 41 -115 110c0 79 52 120 155 120h75v2c0 49 -27 80 -94 80c-33 0 -73 -10 -111 -30v56c37 15 80 25 118 25
c99 0 149 -51 149 -155zM57 260h282v-55h-282v55z" />
    <glyph glyph-name="Lslash" unicode="&#x141;" horiz-adv-x="500" 
d="M104 700h84v-272l129 97l33 -50l-162 -120v-282h295v-73h-379v293l-60 -47l-32 48l92 71v335z" />
    <glyph glyph-name="Oslash" unicode="&#xd8;" horiz-adv-x="749" 
d="M465 700l30 84h71l-38 -108c106 -57 172 -173 172 -329c0 -219 -125 -359 -326 -359c-30 0 -58 3 -85 10l-29 -82h-71l37 104c-113 52 -179 168 -179 327c0 220 130 364 327 364c32 0 63 -3 91 -11zM310 58c21 -6 42 -8 64 -8c144 0 254 110 254 297
c0 122 -48 214 -124 262zM374 645c-143 0 -255 -110 -255 -298c0 -125 50 -218 129 -264l195 553c-22 6 -45 9 -69 9z" />
    <glyph glyph-name="ordmasculine" unicode="&#xba;" horiz-adv-x="416" 
d="M207 617c-57 0 -95 -50 -95 -132c0 -75 37 -127 95 -127s94 53 94 127c0 80 -35 132 -94 132zM207 668c96 0 158 -66 158 -183c0 -110 -60 -180 -158 -180c-96 0 -159 69 -159 180c0 110 57 183 159 183zM66 260h282v-55h-282v55z" />
    <glyph glyph-name="dotlessi" unicode="&#x131;" horiz-adv-x="214" 
d="M69 448h76v-448h-76v448z" />
    <glyph glyph-name="lslash" unicode="&#x142;" horiz-adv-x="277" 
d="M100 750h77v-369l50 37l31 -43l-81 -57v-318h-77v266l-49 -36l-31 43l80 56v421z" />
    <glyph glyph-name="oslash" unicode="&#xf8;" horiz-adv-x="538" 
d="M206 70l93 321c-9 2 -19 3 -29 3c-82 0 -148 -80 -148 -173c0 -67 35 -123 84 -151zM346 370l-92 -316c6 -2 11 -2 16 -2c81 0 147 76 147 169c0 62 -29 118 -71 149zM269 458c17 0 32 -1 48 -5l12 47h53l-17 -64c76 -38 128 -118 128 -214c0 -131 -100 -233 -224 -233
c-11 0 -22 0 -33 2l-15 -52h-53l19 66c-85 33 -145 115 -145 216c0 133 102 237 227 237z" />
    <glyph glyph-name="onesuperior" unicode="&#xb9;" horiz-adv-x="149" 
d="M119 800v-350h-40v311h-49l17 39h72z" />
    <glyph glyph-name="logicalnot" unicode="&#xac;" horiz-adv-x="627" 
d="M32 344h526v-230h-69v162h-457v68z" />
    <glyph glyph-name="mu" unicode="&#xb5;" horiz-adv-x="522" 
d="M69 -220v668h76v-279c0 -78 37 -118 111 -118c81 0 122 43 122 135v262h77v-448h-77v50c-28 -40 -60 -60 -116 -60s-94 17 -117 59v-269h-76z" />
    <glyph glyph-name="trademark" unicode="&#x2122;" horiz-adv-x="636" 
d="M241 700v-43h-83v-212h-46v212h-82v43h211zM358 700l71 -113l68 113h70v-255h-47v212l-79 -132h-23l-83 132v-212h-48v255h71z" />
    <glyph glyph-name="Eth" unicode="&#xd0;" horiz-adv-x="652" 
d="M176 583v-244h67v-66h-67v-202h100c170 0 245 80 245 257c0 175 -75 255 -245 255h-100zM23 339h70v318h170c235 0 345 -101 345 -329c0 -226 -107 -328 -345 -328h-170v273h-70v66z" />
    <glyph glyph-name="onehalf" unicode="&#xbd;" horiz-adv-x="713" 
d="M480 48h210v-48h-284v48l170 147c36 34 51 54 51 79c0 36 -36 63 -90 63c-42 0 -73 -22 -75 -43h-57c0 53 63 95 131 97c90 0 151 -43 151 -113c0 -33 -14 -66 -51 -106zM140 668v-385h-64v330h-71l27 55h108zM450 668h63l-362 -679h-63z" />
    <glyph glyph-name="plusminus" unicode="&#xb1;" horiz-adv-x="451" 
d="M33 73h385v-73h-385v73zM259 564v-170h159v-76h-159v-170h-70v170h-156v76h156v170h70z" />
    <glyph glyph-name="Thorn" unicode="&#xde;" horiz-adv-x="489" 
d="M149 488v-247h104c75 0 121 43 121 124c0 75 -41 123 -121 123h-104zM69 700h80v-138h104c135 0 208 -66 208 -197c0 -129 -69 -194 -208 -197h-104v-168h-80v700z" />
    <glyph glyph-name="onequarter" unicode="&#xbc;" horiz-adv-x="690" 
d="M615 391v-260h64v-51h-64v-80h-62v80h-201zM553 254l-101 -123h101v123zM145 668v-385h-64v330h-71l27 55h108zM455 668h63l-362 -679h-63z" />
    <glyph glyph-name="divide" unicode="&#xf7;" horiz-adv-x="495" 
d="M246 459c28 0 51 -23 51 -51s-23 -50 -51 -50s-50 22 -50 50s22 51 50 51zM246 130c28 0 51 -23 51 -51s-23 -50 -51 -50s-50 22 -50 50s22 51 50 51zM23 290h449v-69h-449v69z" />
    <glyph glyph-name="brokenbar" unicode="&#xa6;" horiz-adv-x="206" 
d="M137 573v-304h-68v304h68zM137 162v-301h-68v301h68z" />
    <glyph glyph-name="degree" unicode="&#xb0;" horiz-adv-x="337" 
d="M168 667c81 0 115 -65 117 -120c0 -62 -50 -118 -117 -118c-68 0 -118 51 -118 118c0 65 51 120 118 120zM168 619c-38 0 -71 -30 -71 -72c0 -38 31 -70 71 -70c37 0 69 28 69 70c0 36 -29 72 -69 72z" />
    <glyph glyph-name="thorn" unicode="&#xfe;" horiz-adv-x="528" 
d="M402 222c0 107 -49 174 -128 174c-78 0 -129 -63 -129 -174c0 -104 45 -174 129 -174c79 0 128 67 128 174zM145 65v-290h-76v975h76v-371c32 53 77 79 146 79c112 0 188 -95 188 -236c0 -138 -75 -232 -188 -232c-66 0 -111 20 -146 75z" />
    <glyph glyph-name="threequarters" unicode="&#xbe;" horiz-adv-x="803" 
d="M727 391v-260h65v-51h-65v-80h-62v80h-200zM665 254l-101 -123h101v123zM-16 377h65c10 -30 43 -47 88 -47c55 0 92 25 92 67c0 41 -34 68 -92 68v50c50 0 83 20 83 55s-31 55 -83 55c-43 0 -72 -15 -80 -44h-63c6 61 60 98 143 98c86 0 144 -38 144 -104
c0 -42 -30 -72 -82 -84c57 -10 91 -45 92 -94c0 -74 -55 -115 -154 -115c-86 0 -142 29 -153 95zM580 668h62l-363 -679h-62z" />
    <glyph glyph-name="twosuperior" unicode="&#xb2;" horiz-adv-x="254" 
d="M76 489h148v-36h-193v36l118 136c27 32 37 56 37 82c0 39 -26 68 -66 68h-1c-31 0 -53 -21 -54 -42h-35c0 42 44 76 89 76c60 0 103 -36 103 -100c0 -39 -17 -72 -35 -93z" />
    <glyph glyph-name="registered" unicode="&#xae;" horiz-adv-x="539" 
d="M262 608c71 0 111 -24 111 -79c0 -37 -22 -63 -64 -72c11 -2 22 -19 43 -52l43 -74h-53l-41 71c-25 41 -35 46 -58 48h-21v-119h-49v277h89zM261 574h-39v-92h39c43 0 62 11 62 46c0 34 -19 44 -62 46zM269 711c133 0 232 -118 232 -246c0 -136 -105 -244 -232 -244
c-131 0 -231 112 -231 244c0 143 111 246 231 246zM269 677c-109 0 -200 -97 -200 -212c0 -119 94 -211 200 -211c114 0 199 98 199 211c0 132 -99 209 -199 212z" />
    <glyph glyph-name="minus" unicode="&#x2212;" horiz-adv-x="429" 
d="M22 318h385v-76h-385v76z" />
    <glyph glyph-name="eth" unicode="&#xf0;" horiz-adv-x="515" 
d="M368 455c70 -85 98 -148 98 -242c0 -135 -85 -223 -211 -223c-125 0 -211 88 -211 223c0 131 83 225 205 225c10 0 23 0 46 -4l-138 200l-130 -43l-14 39l115 38l-64 82h88l46 -59l138 44l13 -38l-121 -39zM270 378c-90 0 -145 -59 -145 -165c0 -99 50 -164 130 -164
c59 0 132 40 132 167c0 103 -52 162 -117 162z" />
    <glyph glyph-name="multiply" unicode="&#xd7;" horiz-adv-x="535" 
d="M505 484l-188 -203l188 -201l-49 -54l-188 202l-189 -202l-48 54l187 201l-187 203l48 52l189 -203l188 203z" />
    <glyph glyph-name="threesuperior" unicode="&#xb3;" horiz-adv-x="269" 
d="M30 520h40c8 -30 31 -47 64 -47c41 0 68 27 68 73c0 43 -24 72 -65 72v34c35 0 59 21 59 59c0 39 -23 62 -62 62c-31 0 -52 -16 -58 -45h-40c5 48 41 77 98 77c58 0 98 -32 98 -90c0 -39 -21 -68 -58 -79c40 -11 64 -43 65 -90c0 -66 -37 -102 -105 -102
c-59 0 -97 25 -104 76z" />
    <glyph glyph-name="copyright" unicode="&#xa9;" horiz-adv-x="712" 
d="M484 499v-57c-36 20 -73 27 -113 29c-84 0 -136 -50 -136 -146c0 -94 52 -147 140 -147c34 0 70 7 109 28v-55c-37 -17 -76 -25 -118 -26c-120 0 -202 75 -202 200c0 122 78 198 202 198c41 0 80 -7 118 -24zM354 607c-149 0 -275 -128 -275 -282
c0 -159 130 -281 275 -281c159 0 277 130 277 281c0 176 -139 279 -277 282zM354 653c186 0 320 -156 320 -328c0 -181 -145 -325 -320 -325c-179 0 -318 150 -318 325c0 191 154 328 318 328z" />
    <glyph glyph-name="Aacute" unicode="&#xc1;" horiz-adv-x="572" 
d="M313 943l68 -35l-144 -165l-44 33zM285 711l282 -711h-80l-70 181h-261l-71 -181h-80zM285 513l-99 -260h201z" />
    <glyph glyph-name="Acircumflex" unicode="&#xc2;" horiz-adv-x="572" 
d="M253 896l-103 -128l55 -23l81 92l81 -92l54 23l-102 128h-66zM285 711l282 -711h-80l-70 181h-261l-71 -181h-80zM285 513l-99 -260h201z" />
    <glyph glyph-name="Adieresis" unicode="&#xc4;" horiz-adv-x="572" 
d="M285 711l282 -711h-80l-70 181h-261l-71 -181h-80zM285 513l-99 -260h201zM364 870c27 0 48 -23 48 -51s-21 -51 -48 -51s-48 23 -48 51s21 51 48 51zM199 870c27 0 48 -23 48 -51s-21 -51 -48 -51s-48 23 -48 51s21 51 48 51z" />
    <glyph glyph-name="Agrave" unicode="&#xc0;" horiz-adv-x="572" 
d="M262 929l110 -157l-40 -30l-131 150zM285 711l282 -711h-80l-70 181h-261l-71 -181h-80zM285 513l-99 -260h201z" />
    <glyph glyph-name="Aring" unicode="&#xc5;" horiz-adv-x="572" 
d="M382 837c0 -52 -43 -93 -97 -93c-52 0 -95 40 -95 93c0 50 41 94 95 94c53 0 95 -41 97 -94zM339 837c0 28 -24 51 -54 51c-28 0 -52 -20 -52 -51c0 -28 22 -52 52 -52c31 0 54 23 54 52zM285 711l282 -711h-80l-70 181h-261l-71 -181h-80zM285 513l-99 -260h201z" />
    <glyph glyph-name="Atilde" unicode="&#xc3;" horiz-adv-x="572" 
d="M355 769h-5c-24 0 -44 8 -67 25c-17 11 -43 30 -65 33h-2c-31 0 -52 -30 -68 -58l-39 30c19 33 58 83 105 84c27 0 49 -8 73 -26c18 -12 48 -32 64 -32h3c24 0 49 22 65 58l45 -30c-14 -42 -66 -84 -109 -84zM285 711l282 -711h-80l-70 181h-261l-71 -181h-80zM285 513
l-99 -260h201z" />
    <glyph glyph-name="Ccedilla" unicode="&#xc7;" horiz-adv-x="567" 
d="M230 -180l86 140h48l-68 -180zM536 648l-41 -55c-45 34 -95 52 -149 52c-143 0 -227 -104 -227 -299c0 -190 77 -295 227 -295c53 0 101 14 147 49l41 -53c-57 -42 -120 -60 -193 -60c-184 0 -300 133 -300 359c0 225 115 365 300 365c74 0 137 -22 195 -63z" />
    <glyph glyph-name="Eacute" unicode="&#xc9;" horiz-adv-x="492" 
d="M303 943l68 -35l-144 -165l-44 33zM69 700h387v-73h-310v-179h310v-73h-310v-304h318v-71h-395v700z" />
    <glyph glyph-name="Ecircumflex" unicode="&#xca;" horiz-adv-x="492" 
d="M232 896l-103 -128l55 -23l81 92l81 -92l54 23l-102 128h-66zM69 700h387v-73h-310v-179h310v-73h-310v-304h318v-71h-395v700z" />
    <glyph glyph-name="Edieresis" unicode="&#xcb;" horiz-adv-x="492" 
d="M342 870c27 0 48 -23 48 -51s-21 -51 -48 -51s-48 23 -48 51s21 51 48 51zM177 870c27 0 48 -23 48 -51s-21 -51 -48 -51s-48 23 -48 51s21 51 48 51zM69 700h387v-73h-310v-179h310v-73h-310v-304h318v-71h-395v700z" />
    <glyph glyph-name="Egrave" unicode="&#xc8;" horiz-adv-x="492" 
d="M240 928l110 -157l-40 -30l-131 150zM69 700h387v-73h-310v-179h310v-73h-310v-304h318v-71h-395v700z" />
    <glyph glyph-name="Iacute" unicode="&#xcd;" horiz-adv-x="215" 
d="M132 944l68 -35l-144 -165l-44 33zM69 700h77v-700h-77v700z" />
    <glyph glyph-name="Icircumflex" unicode="&#xce;" horiz-adv-x="215" 
d="M74 900l-103 -128l55 -23l81 92l81 -92l54 23l-102 128h-66zM69 700h77v-700h-77v700z" />
    <glyph glyph-name="Idieresis" unicode="&#xcf;" horiz-adv-x="215" 
d="M190 870c27 0 48 -23 48 -51s-21 -51 -48 -51s-48 23 -48 51s21 51 48 51zM25 870c27 0 48 -23 48 -51s-21 -51 -48 -51s-48 23 -48 51s21 51 48 51zM69 700h77v-700h-77v700z" />
    <glyph glyph-name="Igrave" unicode="&#xcc;" horiz-adv-x="215" 
d="M80 929l110 -157l-40 -30l-131 150zM69 700h77v-700h-77v700z" />
    <glyph glyph-name="Ntilde" unicode="&#xd1;" horiz-adv-x="602" 
d="M368 769h-5c-24 0 -44 8 -67 25c-17 11 -43 30 -65 33h-2c-31 0 -52 -30 -68 -58l-39 30c19 33 58 83 105 84c27 0 49 -8 73 -26c18 -12 48 -32 64 -32h3c24 0 49 22 65 58l45 -30c-14 -42 -66 -84 -109 -84zM69 711l388 -501v490h76v-711l-388 497v-486h-76v711z" />
    <glyph glyph-name="Oacute" unicode="&#xd3;" horiz-adv-x="749" 
d="M393 942l68 -35l-144 -165l-44 33zM374 711c194 0 326 -143 326 -364c0 -219 -125 -359 -326 -359c-199 0 -327 139 -327 359s130 364 327 364zM374 645c-143 0 -255 -110 -255 -298c0 -183 107 -297 255 -297c144 0 254 110 254 297c0 182 -106 298 -254 298z" />
    <glyph glyph-name="Ocircumflex" unicode="&#xd4;" horiz-adv-x="749" 
d="M335 898l-103 -128l55 -23l81 92l81 -92l54 23l-102 128h-66zM374 711c194 0 326 -143 326 -364c0 -219 -125 -359 -326 -359c-199 0 -327 139 -327 359s130 364 327 364zM374 645c-143 0 -255 -110 -255 -298c0 -183 107 -297 255 -297c144 0 254 110 254 297
c0 182 -106 298 -254 298z" />
    <glyph glyph-name="Odieresis" unicode="&#xd6;" horiz-adv-x="749" 
d="M374 711c194 0 326 -143 326 -364c0 -219 -125 -359 -326 -359c-199 0 -327 139 -327 359s130 364 327 364zM374 645c-143 0 -255 -110 -255 -298c0 -183 107 -297 255 -297c144 0 254 110 254 297c0 182 -106 298 -254 298zM454 868c27 0 48 -23 48 -51s-21 -51 -48 -51
s-48 23 -48 51s21 51 48 51zM289 868c27 0 48 -23 48 -51s-21 -51 -48 -51s-48 23 -48 51s21 51 48 51z" />
    <glyph glyph-name="Ograve" unicode="&#xd2;" horiz-adv-x="749" 
d="M357 929l110 -157l-40 -30l-131 150zM374 711c194 0 326 -143 326 -364c0 -219 -125 -359 -326 -359c-199 0 -327 139 -327 359s130 364 327 364zM374 645c-143 0 -255 -110 -255 -298c0 -183 107 -297 255 -297c144 0 254 110 254 297c0 182 -106 298 -254 298z" />
    <glyph glyph-name="Otilde" unicode="&#xd5;" horiz-adv-x="749" 
d="M441 771h-5c-24 0 -44 8 -67 25c-17 11 -43 30 -65 33h-2c-31 0 -52 -30 -68 -58l-39 30c19 33 58 83 105 84c27 0 49 -8 73 -26c18 -12 48 -32 64 -32h3c24 0 49 22 65 58l45 -30c-14 -42 -66 -84 -109 -84zM374 711c194 0 326 -143 326 -364
c0 -219 -125 -359 -326 -359c-199 0 -327 139 -327 359s130 364 327 364zM374 645c-143 0 -255 -110 -255 -298c0 -183 107 -297 255 -297c144 0 254 110 254 297c0 182 -106 298 -254 298z" />
    <glyph glyph-name="Scaron" unicode="&#x160;" horiz-adv-x="499" 
d="M217 768l-94 116l50 21l74 -84l73 84l49 -21l-92 -116h-60zM443 626l-48 -56c-38 46 -76 75 -131 75c-93 0 -140 -40 -141 -126c1 -61 31 -95 116 -114l51 -12c122 -29 176 -90 176 -204c0 -133 -81 -201 -234 -201c-58 0 -139 28 -195 76l50 62c48 -48 99 -68 145 -71
c97 0 157 39 157 126c0 71 -29 112 -122 132l-52 12c-117 27 -165 91 -166 189c0 120 70 197 205 197c82 -1 141 -33 189 -85z" />
    <glyph glyph-name="Uacute" unicode="&#xda;" horiz-adv-x="596" 
d="M328 942l68 -35l-144 -165l-44 33zM63 700h77v-429c0 -155 44 -222 159 -222c111 0 160 66 160 222v429h74v-441c0 -181 -80 -271 -234 -271c-153 0 -236 88 -236 271v441z" />
    <glyph glyph-name="Ucircumflex" unicode="&#xdb;" horiz-adv-x="596" 
d="M267 898l-103 -128l55 -23l81 92l81 -92l54 23l-102 128h-66zM63 700h77v-429c0 -155 44 -222 159 -222c111 0 160 66 160 222v429h74v-441c0 -181 -80 -271 -234 -271c-153 0 -236 88 -236 271v441z" />
    <glyph glyph-name="Udieresis" unicode="&#xdc;" horiz-adv-x="596" 
d="M386 868c27 0 48 -23 48 -51s-21 -51 -48 -51s-48 23 -48 51s21 51 48 51zM221 868c27 0 48 -23 48 -51s-21 -51 -48 -51s-48 23 -48 51s21 51 48 51zM63 700h77v-429c0 -155 44 -222 159 -222c111 0 160 66 160 222v429h74v-441c0 -181 -80 -271 -234 -271
c-153 0 -236 88 -236 271v441z" />
    <glyph glyph-name="Ugrave" unicode="&#xd9;" horiz-adv-x="596" 
d="M280 929l110 -157l-40 -30l-131 150zM63 700h77v-429c0 -155 44 -222 159 -222c111 0 160 66 160 222v429h74v-441c0 -181 -80 -271 -234 -271c-153 0 -236 88 -236 271v441z" />
    <glyph glyph-name="Yacute" unicode="&#xdd;" horiz-adv-x="525" 
d="M285 942l68 -35l-144 -165l-44 33zM4 700h84l176 -292l175 292h82l-221 -364v-336h-75v336z" />
    <glyph glyph-name="Ydieresis" unicode="&#x178;" horiz-adv-x="525" 
d="M345 873c27 0 48 -23 48 -51s-21 -51 -48 -51s-48 23 -48 51s21 51 48 51zM180 873c27 0 48 -23 48 -51s-21 -51 -48 -51s-48 23 -48 51s21 51 48 51zM4 700h84l176 -292l175 292h82l-221 -364v-336h-75v336z" />
    <glyph glyph-name="Zcaron" unicode="&#x17d;" horiz-adv-x="531" 
d="M234 764l-94 116l50 21l74 -84l73 84l49 -21l-92 -116h-60zM24 700h481l-361 -629h370v-71h-499l360 626h-351v74z" />
    <glyph glyph-name="aacute" unicode="&#xe1;" 
d="M282 710l68 -35l-144 -165l-44 33zM124 222c0 -106 46 -174 128 -174c81 0 130 67 130 174s-49 174 -130 174c-78 0 -128 -63 -128 -174zM382 379v69h75v-448h-75v65c-30 -50 -77 -75 -147 -75c-111 0 -189 91 -189 232s77 236 189 236c66 0 115 -24 147 -79z" />
    <glyph glyph-name="acircumflex" unicode="&#xe2;" 
d="M222 675l-103 -128l55 -23l81 92l81 -92l54 23l-102 128h-66zM124 222c0 -106 46 -174 128 -174c81 0 130 67 130 174s-49 174 -130 174c-78 0 -128 -63 -128 -174zM382 379v69h75v-448h-75v65c-30 -50 -77 -75 -147 -75c-111 0 -189 91 -189 232s77 236 189 236
c66 0 115 -24 147 -79z" />
    <glyph glyph-name="adieresis" unicode="&#xe4;" 
d="M124 222c0 -106 46 -174 128 -174c81 0 130 67 130 174s-49 174 -130 174c-78 0 -128 -63 -128 -174zM382 379v69h75v-448h-75v65c-30 -50 -77 -75 -147 -75c-111 0 -189 91 -189 232s77 236 189 236c66 0 115 -24 147 -79zM343 640c27 0 48 -23 48 -51s-21 -51 -48 -51
s-48 23 -48 51s21 51 48 51zM178 640c27 0 48 -23 48 -51s-21 -51 -48 -51s-48 23 -48 51s21 51 48 51z" />
    <glyph glyph-name="agrave" unicode="&#xe0;" 
d="M216 712l110 -157l-40 -30l-131 150zM124 222c0 -106 46 -174 128 -174c81 0 130 67 130 174s-49 174 -130 174c-78 0 -128 -63 -128 -174zM382 379v69h75v-448h-75v65c-30 -50 -77 -75 -147 -75c-111 0 -189 91 -189 232s77 236 189 236c66 0 115 -24 147 -79z" />
    <glyph glyph-name="aring" unicode="&#xe5;" 
d="M351 656c0 -52 -43 -93 -97 -93c-52 0 -95 40 -95 93c0 50 41 94 95 94c53 0 95 -41 97 -94zM308 656c0 28 -24 51 -54 51c-28 0 -52 -20 -52 -51c0 -28 22 -52 52 -52c31 0 54 23 54 52zM124 222c0 -106 46 -174 128 -174c81 0 130 67 130 174s-49 174 -130 174
c-78 0 -128 -63 -128 -174zM382 379v69h75v-448h-75v65c-30 -50 -77 -75 -147 -75c-111 0 -189 91 -189 232s77 236 189 236c66 0 115 -24 147 -79z" />
    <glyph glyph-name="atilde" unicode="&#xe3;" 
d="M315 555h-5c-24 0 -44 8 -67 25c-17 11 -43 30 -65 33h-2c-31 0 -52 -30 -68 -58l-39 30c19 33 58 83 105 84c27 0 49 -8 73 -26c18 -12 48 -32 64 -32h3c24 0 49 22 65 58l45 -30c-14 -42 -66 -84 -109 -84zM382 379v69h75v-448h-75v65c-30 -50 -77 -75 -147 -75
c-111 0 -189 91 -189 232s77 236 189 236c66 0 115 -24 147 -79zM124 222c0 -106 46 -174 128 -174c81 0 130 67 130 174s-49 174 -130 174c-78 0 -128 -63 -128 -174z" />
    <glyph glyph-name="ccedilla" unicode="&#xe7;" horiz-adv-x="443" 
d="M159 -180l86 140h48l-68 -180zM269 458h8c46 0 99 -16 141 -54l-50 -56c-26 28 -61 46 -98 46c-82 0 -148 -80 -148 -173s66 -169 148 -169c38 0 72 16 98 44l50 -59c-46 -30 -89 -49 -135 -49c-5 0 -9 1 -14 1c-125 0 -227 101 -227 232c0 133 102 237 227 237z" />
    <glyph glyph-name="eacute" unicode="&#xe9;" horiz-adv-x="509" 
d="M308 710l68 -35l-144 -165l-44 33zM265 458h4c121 0 195 -82 205 -211v-27h-351c0 -92 66 -168 148 -168h8c58 0 99 22 133 62l47 -42c-40 -54 -110 -82 -189 -83c-125 0 -225 101 -225 232c0 133 95 237 220 237zM131 283h266c-13 80 -69 111 -131 111
c-63 0 -125 -64 -135 -111z" />
    <glyph glyph-name="ecircumflex" unicode="&#xea;" horiz-adv-x="509" 
d="M233 675l-103 -128l55 -23l81 92l81 -92l54 23l-102 128h-66zM265 458h4c121 0 195 -82 205 -211v-27h-351c0 -92 66 -168 148 -168h8c58 0 99 22 133 62l47 -42c-40 -54 -110 -82 -189 -83c-125 0 -225 101 -225 232c0 133 95 237 220 237zM131 283h266
c-13 80 -69 111 -131 111c-63 0 -125 -64 -135 -111z" />
    <glyph glyph-name="edieresis" unicode="&#xeb;" horiz-adv-x="509" 
d="M265 458h4c121 0 195 -82 205 -211v-27h-351c0 -92 66 -168 148 -168h8c58 0 99 22 133 62l47 -42c-40 -54 -110 -82 -189 -83c-125 0 -225 101 -225 232c0 133 95 237 220 237zM131 283h266c-13 80 -69 111 -131 111c-63 0 -125 -64 -135 -111zM183 640
c27 0 48 -23 48 -51s-21 -51 -48 -51s-48 23 -48 51s21 51 48 51zM348 640c27 0 48 -23 48 -51s-21 -51 -48 -51s-48 23 -48 51s21 51 48 51z" />
    <glyph glyph-name="egrave" unicode="&#xe8;" horiz-adv-x="509" 
d="M226 712l110 -157l-40 -30l-131 150zM265 458h4c121 0 195 -82 205 -211v-27h-351c0 -92 66 -168 148 -168h8c58 0 99 22 133 62l47 -42c-40 -54 -110 -82 -189 -83c-125 0 -225 101 -225 232c0 133 95 237 220 237zM131 283h266c-13 80 -69 111 -131 111
c-63 0 -125 -64 -135 -111z" />
    <glyph glyph-name="iacute" unicode="&#xed;" horiz-adv-x="214" 
d="M128 710l68 -35l-144 -165l-44 33zM69 448h76v-448h-76v448z" />
    <glyph glyph-name="icircumflex" unicode="&#xee;" horiz-adv-x="214" 
d="M78 675l-103 -128l55 -23l81 92l81 -92l54 23l-102 128h-66zM69 448h76v-448h-76v448z" />
    <glyph glyph-name="idieresis" unicode="&#xef;" horiz-adv-x="214" 
d="M189 640c27 0 48 -23 48 -51s-21 -51 -48 -51s-48 23 -48 51s21 51 48 51zM24 640c27 0 48 -23 48 -51s-21 -51 -48 -51s-48 23 -48 51s21 51 48 51zM69 448h76v-448h-76v448z" />
    <glyph glyph-name="igrave" unicode="&#xec;" horiz-adv-x="214" 
d="M81 712l110 -157l-40 -30l-131 150zM69 448h76v-448h-76v448z" />
    <glyph glyph-name="ntilde" unicode="&#xf1;" horiz-adv-x="517" 
d="M331 555h-5c-24 0 -44 8 -67 25c-17 11 -43 30 -65 33h-2c-31 0 -52 -30 -68 -58l-39 30c19 33 58 83 105 84c27 0 49 -8 73 -26c18 -12 48 -32 64 -32h3c24 0 49 22 65 58l45 -30c-14 -42 -66 -84 -109 -84zM454 270v-270h-76v267c0 85 -34 126 -102 127
c-82 0 -129 -53 -131 -142v-252h-76v448h76v-71c36 54 83 81 148 81c104 0 161 -64 161 -188z" />
    <glyph glyph-name="oacute" unicode="&#xf3;" horiz-adv-x="538" 
d="M293 710l68 -35l-144 -165l-44 33zM270 394c-82 0 -148 -80 -148 -173s66 -169 148 -169c81 0 147 76 147 169s-66 173 -147 173zM269 458c124 0 224 -103 224 -236c0 -131 -100 -233 -224 -233c-125 0 -227 101 -227 232c0 133 102 237 227 237z" />
    <glyph glyph-name="ocircumflex" unicode="&#xf4;" horiz-adv-x="538" 
d="M238 675l-103 -128l55 -23l81 92l81 -92l54 23l-102 128h-66zM270 394c-82 0 -148 -80 -148 -173s66 -169 148 -169c81 0 147 76 147 169s-66 173 -147 173zM269 458c124 0 224 -103 224 -236c0 -131 -100 -233 -224 -233c-125 0 -227 101 -227 232
c0 133 102 237 227 237z" />
    <glyph glyph-name="odieresis" unicode="&#xf6;" horiz-adv-x="538" 
d="M270 394c-82 0 -148 -80 -148 -173s66 -169 148 -169c81 0 147 76 147 169s-66 173 -147 173zM269 458c124 0 224 -103 224 -236c0 -131 -100 -233 -224 -233c-125 0 -227 101 -227 232c0 133 102 237 227 237zM351 640c27 0 48 -23 48 -51s-21 -51 -48 -51
s-48 23 -48 51s21 51 48 51zM186 640c27 0 48 -23 48 -51s-21 -51 -48 -51s-48 23 -48 51s21 51 48 51z" />
    <glyph glyph-name="ograve" unicode="&#xf2;" horiz-adv-x="538" 
d="M233 712l110 -157l-40 -30l-131 150zM270 394c-82 0 -148 -80 -148 -173s66 -169 148 -169c81 0 147 76 147 169s-66 173 -147 173zM269 458c124 0 224 -103 224 -236c0 -131 -100 -233 -224 -233c-125 0 -227 101 -227 232c0 133 102 237 227 237z" />
    <glyph glyph-name="otilde" unicode="&#xf5;" horiz-adv-x="538" 
d="M336 555h-5c-24 0 -44 8 -67 25c-17 11 -43 30 -65 33h-2c-31 0 -52 -30 -68 -58l-39 30c19 33 58 83 105 84c27 0 49 -8 73 -26c18 -12 48 -32 64 -32h3c24 0 49 22 65 58l45 -30c-14 -42 -66 -84 -109 -84zM269 458c124 0 224 -103 224 -236
c0 -131 -100 -233 -224 -233c-125 0 -227 101 -227 232c0 133 102 237 227 237zM270 394c-82 0 -148 -80 -148 -173s66 -169 148 -169c81 0 147 76 147 169s-66 173 -147 173z" />
    <glyph glyph-name="scaron" unicode="&#x161;" horiz-adv-x="411" 
d="M178 538l-94 116l50 21l74 -84l73 84l49 -21l-92 -116h-60zM355 400l-43 -49c-29 27 -55 44 -96 44c-50 0 -88 -26 -88 -73c3 -44 52 -60 103 -71c66 -17 140 -53 140 -127c0 -108 -88 -135 -174 -135c-54 0 -118 25 -155 71l55 47c26 -36 64 -55 102 -55
c67 0 93 10 95 56c0 54 -33 64 -92 79c-92 25 -141 58 -143 132c0 83 62 139 160 139c46 0 90 -16 136 -58z" />
    <glyph glyph-name="uacute" unicode="&#xfa;" horiz-adv-x="510" 
d="M281 710l68 -35l-144 -165l-44 33zM63 176v272h74v-269c0 -85 50 -127 119 -127c80 0 114 39 115 141v255h76v-272c0 -116 -74 -187 -186 -187h-5c-106 0 -193 63 -193 187z" />
    <glyph glyph-name="ucircumflex" unicode="&#xfb;" horiz-adv-x="510" 
d="M222 675l-103 -128l55 -23l81 92l81 -92l54 23l-102 128h-66zM63 176v272h74v-269c0 -85 50 -127 119 -127c80 0 114 39 115 141v255h76v-272c0 -116 -74 -187 -186 -187h-5c-106 0 -193 63 -193 187z" />
    <glyph glyph-name="udieresis" unicode="&#xfc;" horiz-adv-x="510" 
d="M336 640c27 0 48 -23 48 -51s-21 -51 -48 -51s-48 23 -48 51s21 51 48 51zM171 640c27 0 48 -23 48 -51s-21 -51 -48 -51s-48 23 -48 51s21 51 48 51zM63 176v272h74v-269c0 -85 50 -127 119 -127c80 0 114 39 115 141v255h76v-272c0 -116 -74 -187 -186 -187h-5
c-106 0 -193 63 -193 187z" />
    <glyph glyph-name="ugrave" unicode="&#xf9;" horiz-adv-x="510" 
d="M217 712l110 -157l-40 -30l-131 150zM63 176v272h74v-269c0 -85 50 -127 119 -127c80 0 114 39 115 141v255h76v-272c0 -116 -74 -187 -186 -187h-5c-106 0 -193 63 -193 187z" />
    <glyph glyph-name="yacute" unicode="&#xfd;" horiz-adv-x="541" 
d="M294 710l68 -35l-144 -165l-44 33zM397 229v219h75v-449c0 -148 -67 -224 -212 -224h-11c-62 0 -129 23 -167 68l55 49c23 -34 64 -56 112 -56c94 0 148 47 148 149v75c-30 -53 -80 -71 -147 -71c-111 0 -189 101 -189 240v219h79v-219c0 -106 44 -170 127 -170
c82 0 130 63 130 170z" />
    <glyph glyph-name="ydieresis" unicode="&#xff;" horiz-adv-x="541" 
d="M352 640c27 0 48 -23 48 -51s-21 -51 -48 -51s-48 23 -48 51s21 51 48 51zM187 640c27 0 48 -23 48 -51s-21 -51 -48 -51s-48 23 -48 51s21 51 48 51zM397 229v219h75v-449c0 -148 -67 -224 -212 -224h-11c-62 0 -129 23 -167 68l55 49c23 -34 64 -56 112 -56
c94 0 148 47 148 149v75c-30 -53 -80 -71 -147 -71c-111 0 -189 101 -189 240v219h79v-219c0 -106 44 -170 127 -170c82 0 130 63 130 170z" />
    <glyph glyph-name="zcaron" unicode="&#x17e;" horiz-adv-x="439" 
d="M196 538l-94 116l50 21l74 -84l73 84l49 -21l-92 -116h-60zM44 448h358v-68l-283 -322h283v-58h-367v65l283 324h-274v59z" />
    <glyph glyph-name="figuredash" unicode="&#x2012;" horiz-adv-x="586" 
d="M78 256h430v-66h-430v66z" />
    <glyph glyph-name="Dcroat" unicode="&#x110;" horiz-adv-x="652" 
d="M176 583v-244h67v-66h-67v-202h100c170 0 245 80 245 257c0 175 -75 255 -245 255h-100zM23 339h70v318h170c235 0 345 -101 345 -329c0 -226 -107 -328 -345 -328h-170v273h-70v66z" />
    <glyph glyph-name="Eng" unicode="&#x14a;" horiz-adv-x="602" 
d="M69 711l388 -499v488h77v-688c0 -162 -52 -237 -178 -237h-30v69h22c80 0 109 42 109 168v72l-312 402v-486h-76v711z" />
    <glyph glyph-name="Hbar" unicode="&#x126;" horiz-adv-x="606" 
d="M145 550v-139h315v139h-315zM69 700h76v-90h315v90h77v-90h40v-60h-40v-550h-77v338h-315v-338h-76v550h-40v60h40v90z" />
    <glyph glyph-name="Tbar" unicode="&#x166;" horiz-adv-x="519" 
d="M10 700h499v-73h-211v-179h85v-60h-85v-388h-76v388h-84v60h84v179h-212v73z" />
    <glyph glyph-name="longs" unicode="&#x17f;" horiz-adv-x="439" 
d="M67 446v69c0 117 67 196 187 196c86 0 176 -66 177 -191h-75c-2 64 -50 122 -104 122c-69 0 -106 -50 -108 -128v-514h-77v392h-29z" />
    <glyph glyph-name="dcroat" unicode="&#x111;" 
d="M124 222c0 -106 46 -174 128 -174c81 0 130 67 130 174s-49 174 -130 174c-78 0 -128 -63 -128 -174zM382 379v171h-130v60h130v140h75v-140h40v-60h-40v-550h-75v65c-30 -50 -77 -75 -147 -75c-111 0 -189 91 -189 232s77 236 189 236c66 0 115 -24 147 -79z" />
    <glyph glyph-name="eng" unicode="&#x14b;" horiz-adv-x="517" 
d="M454 270v-495h-76v492c0 85 -34 126 -102 127c-82 0 -129 -53 -131 -142v-252h-76v448h76v-71c36 54 83 81 148 81c104 0 161 -64 161 -188z" />
    <glyph glyph-name="hbar" unicode="&#x127;" horiz-adv-x="517" 
d="M454 270v-270h-76v267c0 85 -34 126 -102 127c-82 0 -129 -53 -131 -142v-252h-76v550h-40v60h40v140h76v-140h129v-60h-129v-173c36 54 83 81 148 81c104 0 161 -64 161 -188z" />
    <glyph glyph-name="napostrophe" unicode="&#x149;" horiz-adv-x="517" 
d="M81 700h85v-61l-67 -128h-52l34 128v61zM454 270v-270h-76v267c0 85 -34 126 -102 127c-82 0 -129 -53 -131 -142v-252h-76v448h76v-71c36 54 83 81 148 81c104 0 161 -64 161 -188z" />
    <glyph glyph-name="tbar" unicode="&#x167;" horiz-adv-x="261" 
d="M168 625v-177h62v-57h-62v-141h62v-55h-62v-195h-75v195h-62v55h62v141h-62v57h62v177h75z" />
    <glyph glyph-name="IJ" unicode="&#x132;" horiz-adv-x="494" 
d="M69 700h77v-700h-77v700zM352 700h77v-475c0 -162 -52 -237 -178 -237h-30v69h22c80 0 109 42 109 168v475z" />
    <glyph glyph-name="c_t" unicode="&#xe087;" horiz-adv-x="698" 
d="M614 625v-177h62v-57h-62v-391h-75v391h-62v57h62v87c0 65 -53 120 -103 120c-69 0 -113 -49 -115 -127v-6c0 -54 37 -90 82 -118l-50 -56c-26 28 -61 46 -98 46c-82 0 -148 -80 -148 -173s66 -169 148 -169c38 0 72 16 98 44l50 -59c-46 -30 -89 -49 -135 -49
c-5 0 -9 1 -14 1c-125 0 -227 101 -227 232c0 133 102 237 227 237c11 0 43 -10 54 -12c-32 14 -54 60 -56 94c0 101 66 171 186 171h2c104 0 102 -85 174 -86z" />
    <glyph glyph-name="ij" unicode="&#x133;" horiz-adv-x="428" 
d="M107 675c28 0 51 -23 51 -51s-23 -50 -51 -50s-50 22 -50 50s22 51 50 51zM69 448h76v-448h-76v448zM321 675c28 0 51 -23 51 -51s-23 -50 -51 -50s-50 22 -50 50s22 51 50 51zM283 448h76v-673h-76v673z" />
    <glyph glyph-name="s_p" unicode="&#xe0db;" horiz-adv-x="924" 
d="M385 711h2c105 0 172 -84 174 -155v-177c32 53 77 79 146 79c135 0 188 -126 188 -236c0 -138 -75 -232 -188 -232c-66 0 -111 20 -146 75v-290h-75v760c0 65 -53 120 -103 120c-69 0 -113 -49 -115 -127v-11c0 -49 18 -87 60 -117l-43 -49c-29 27 -55 44 -96 44
c-50 0 -88 -26 -88 -73c3 -44 52 -60 103 -71c66 -17 140 -53 140 -127c0 -108 -88 -135 -174 -135c-54 0 -118 25 -155 71l55 47c26 -36 64 -55 102 -55c67 0 93 10 95 56c0 54 -33 64 -92 79c-92 25 -141 58 -143 132c0 83 62 139 160 139c14 0 33 -6 49 -11
c-24 28 -40 78 -40 105c0 88 66 159 184 159zM818 222c0 107 -49 174 -128 174c-78 0 -129 -63 -129 -174c0 -104 45 -174 129 -174c79 0 128 67 128 174z" />
    <glyph glyph-name="s_t" unicode="&#xfb06;" horiz-adv-x="681" 
d="M412 711h2c103 0 104 -86 173 -86h1v-177h62v-57h-62v-391h-75v391h-62v57h62v87c0 65 -53 120 -103 120c-69 0 -113 -49 -115 -127v-11c0 -49 18 -87 60 -117l-43 -49c-29 27 -55 44 -96 44c-50 0 -88 -26 -88 -73c3 -44 52 -60 103 -71c66 -17 140 -53 140 -127
c0 -108 -88 -135 -174 -135c-54 0 -118 25 -155 71l55 47c26 -36 64 -55 102 -55c67 0 93 10 95 56c0 54 -33 64 -92 79c-92 25 -141 58 -143 132c0 83 62 139 160 139c14 0 33 -6 49 -11c-24 28 -40 78 -40 105c0 88 66 159 184 159z" />
    <glyph glyph-name="longs_t" unicode="&#xfb05;" horiz-adv-x="515" 
d="M67 446v69c0 117 67 196 187 196c128 -1 104 -85 176 -86v-177h62v-57h-62v-391h-75v391h-62v57h62v87c-9 58 -53 107 -103 107c-69 0 -106 -50 -108 -128v-514h-77v392h-29z" />
    <glyph glyph-name="Euro" unicode="&#x20ac;" horiz-adv-x="534" 
d="M496 607l-39 -51c-34 29 -68 41 -108 41c-85 0 -142 -58 -161 -171h237l-23 -53h-220c-3 -14 -4 -27 -4 -41s2 -32 4 -50h183l-24 -55h-153c17 -109 74 -171 161 -171c36 0 66 10 97 35l48 -44c-47 -40 -94 -58 -149 -58c-127 0 -217 84 -241 238h-86l22 55h58
c-1 20 -2 39 -2 57c0 13 0 24 2 34h-80l22 53h64c23 151 113 242 241 242c54 0 104 -21 151 -61z" />
    <glyph glyph-name="estimated" unicode="&#x212e;" horiz-adv-x="780" 
d="M627 364v197c0 9 -3 17 -9 24c-57 61 -134 101 -220 101s-164 -41 -221 -105c-5 -6 -8 -14 -8 -24v-193c0 -2 2 -6 4 -6h450c3 0 4 4 4 6zM760 338h-587c-2 0 -4 -1 -4 -5v-196c0 -8 3 -16 7 -22c57 -65 135 -106 222 -106c93 0 177 47 233 119h53
c-65 -84 -170 -138 -287 -138c-200 0 -362 159 -362 357c0 201 162 361 362 361c201 0 363 -160 363 -361v-9z" />
    <glyph glyph-name="lessequal" unicode="&#x2264;" horiz-adv-x="609" 
d="M35 66h525v-66h-525v66zM560 406l-395 -111l395 -110v-71l-525 148v67l525 147v-70z" />
    <glyph glyph-name="greaterequal" unicode="&#x2265;" horiz-adv-x="609" 
d="M574 66v-66h-525v66h525zM49 406v70l525 -147v-67l-525 -148v71l394 110z" />
    <glyph glyph-name="approxequal" unicode="&#x2248;" horiz-adv-x="629" 
d="M572 404v-71c-57 -42 -101 -60 -156 -60c-33 0 -65 11 -112 27c-41 19 -86 28 -111 28c-47 0 -95 -19 -146 -64v71c55 41 101 58 156 59c30 0 71 -7 112 -26c41 -21 85 -28 111 -28c47 0 89 18 146 64zM572 248v-71c-57 -42 -101 -59 -156 -59c-34 0 -65 10 -112 26
c-41 19 -86 28 -111 28c-47 0 -95 -19 -146 -64v72c54 40 102 58 156 58c30 0 71 -6 112 -26c41 -21 85 -28 111 -28c47 0 89 18 146 64z" />
    <glyph glyph-name="notequal" unicode="&#x2260;" horiz-adv-x="589" 
d="M32 371h316l105 127l51 -42l-71 -85h124v-68h-180l-80 -95h260v-68h-318l-106 -125l-50 41l71 84h-122v68h179l80 95h-259v68z" />
    <glyph glyph-name="infinity" unicode="&#x221e;" horiz-adv-x="610" 
d="M304 192c-38 -71 -79 -104 -132 -104c-73 0 -132 65 -132 155c0 91 49 157 124 157c51 0 90 -32 131 -105c36 71 79 106 132 106c72 0 132 -67 132 -156c0 -92 -49 -155 -122 -155c-52 0 -89 26 -133 102zM274 266c-24 45 -62 69 -108 69c-57 0 -95 -38 -95 -94
c0 -53 35 -94 85 -94c44 0 78 29 118 119zM325 222c26 -45 63 -71 110 -71c54 0 94 39 94 96c0 52 -36 95 -86 95c-43 0 -77 -30 -118 -120z" />
    <glyph glyph-name="lozenge" unicode="&#x25ca;" horiz-adv-x="437" 
d="M218 661l206 -425l-206 -425l-205 425zM218 564l-156 -328l156 -328l159 328z" />
    <glyph glyph-name="integral" unicode="&#x222b;" horiz-adv-x="411" 
d="M115 -114c29 0 45 101 48 300c10 360 43 496 168 496c39 0 73 -25 73 -67c0 -29 -17 -51 -48 -51c-23 0 -38 11 -46 32c-2 6 -3 39 -11 39c-30 0 -47 -91 -51 -273c-8 -375 -40 -523 -167 -523c-45 0 -76 26 -76 65c0 29 16 52 55 52c17 0 31 -9 38 -26
c4 -8 6 -44 17 -44z" />
    <glyph glyph-name="partialdiff" unicode="&#x2202;" horiz-adv-x="428" 
d="M277 196c0 63 -25 98 -68 98c-59 0 -103 -76 -103 -187c0 -62 24 -94 69 -96c58 0 102 77 102 185zM298 247c7 48 10 90 11 130c0 68 -20 106 -60 106c-26 0 -78 -48 -96 -48s-34 13 -34 31c0 34 46 62 100 64c98 0 162 -89 162 -230c0 -175 -88 -308 -205 -308
c-81 0 -145 60 -145 149c0 104 67 182 156 182c54 0 87 -22 111 -76z" />
    <glyph glyph-name="product" unicode="&#x220f;" horiz-adv-x="645" 
d="M69 647h507v-819h-97v729h-312v-729h-98v819z" />
    <glyph glyph-name="radical" unicode="&#x221a;" horiz-adv-x="576" 
d="M433 729h147v-41h-116l-244 -704h-27l-131 384l-51 -18l-9 35l115 42l104 -311z" />
    <glyph glyph-name="summation" unicode="&#x2211;" horiz-adv-x="580" 
d="M36 647h517v-84h-395l276 -317l-284 -333h413v-85h-540v66l297 349l-284 326v78z" />
    <glyph glyph-name="Delta" unicode="&#x2206;" horiz-adv-x="587" 
d="M248 657h91l238 -657h-568zM293 554l-171 -477h342z" />
    <glyph glyph-name="Omega" unicode="&#x2126;" horiz-adv-x="662" 
d="M619 77v-77h-247v77c97 56 154 159 154 278c0 140 -78 233 -196 233c-117 0 -198 -92 -198 -233c0 -117 56 -221 155 -278v-77h-247v77h132c-86 79 -124 163 -124 274c0 184 114 314 282 314c162 0 283 -128 283 -310c0 -114 -36 -195 -125 -278h131z" />
    <glyph glyph-name="pi" unicode="&#x3c0;" horiz-adv-x="546" 
d="M511 378h-74l-43 -215c-8 -41 -11 -45 -12 -60c0 -34 11 -47 41 -47c10 0 22 1 41 5l-12 -61c-17 -1 -30 -3 -46 -5c-64 0 -98 26 -98 85c0 30 3 37 23 132l33 166h-134l-79 -378h-75l80 378h-17c-28 0 -45 -17 -50 -59h-66c14 100 47 129 138 129h364z" />
    <glyph glyph-name="afii61289" unicode="&#x2113;" horiz-adv-x="374" 
d="M165 469v-115c48 59 82 147 82 230c0 59 -13 98 -40 98c-31 0 -42 -51 -42 -213zM339 113l19 -17c-34 -67 -84 -105 -151 -105c-45 0 -75 14 -94 37c-20 27 -30 68 -30 148v79l-52 -40l-11 24l63 51v125c0 151 9 200 47 248c24 32 52 48 82 48c55 0 84 -55 84 -126
c0 -113 -56 -197 -131 -277v-90c0 -124 26 -172 78 -172c42 0 72 30 96 67z" />
    <glyph glyph-name="Abreve" unicode="&#x102;" horiz-adv-x="572" 
d="M285 711l282 -711h-80l-70 181h-261l-71 -181h-80zM285 513l-99 -260h201zM160 869l48 16c6 -27 25 -60 73 -60h4c45 0 77 26 79 60l46 -18c-4 -49 -50 -96 -121 -96h-4c-67 0 -119 40 -125 98z" />
    <glyph glyph-name="Amacron" unicode="&#x100;" horiz-adv-x="572" 
d="M285 711l282 -711h-80l-70 181h-261l-71 -181h-80zM285 513l-99 -260h201zM163 831h245v-60h-245v60z" />
    <glyph glyph-name="Aogonek" unicode="&#x104;" horiz-adv-x="572" 
d="M285 711l282 -711h-34c-22 -28 -33 -49 -33 -66c0 -23 13 -37 45 -37c16 0 33 3 51 13v-54c-21 -5 -39 -6 -55 -7c-64 0 -98 19 -98 71c0 25 13 52 43 83l-69 178h-261l-71 -181h-80zM285 513l-99 -260h201z" />
    <glyph glyph-name="uni01FA" unicode="&#x1fa;" horiz-adv-x="572" 
d="M356 819c0 -39 -32 -70 -73 -70c-39 0 -71 30 -71 70c0 37 31 70 71 70s71 -31 73 -70zM324 819c0 21 -18 38 -41 38c-21 0 -39 -15 -39 -38c0 -21 17 -39 39 -39c23 0 41 17 41 39zM285 711l282 -711h-80l-70 181h-261l-71 -181h-80zM285 513l-99 -260h201zM383 990
l51 -28l-78 -72l-33 26z" />
    <glyph glyph-name="Cacute" unicode="&#x106;" horiz-adv-x="567" 
d="M536 648l-40 -55c-46 34 -96 52 -150 52c-143 0 -227 -104 -227 -299c0 -190 77 -295 227 -295c52 0 100 15 145 48l44 -52c-58 -42 -121 -60 -194 -60c-184 0 -300 133 -300 359c0 225 115 365 300 365c74 0 137 -22 195 -63zM417 971l68 -35l-144 -165l-44 33z" />
    <glyph glyph-name="Ccaron" unicode="&#x10c;" horiz-adv-x="567" 
d="M536 648l-40 -55c-46 34 -96 52 -150 52c-143 0 -227 -104 -227 -299c0 -190 77 -295 227 -295c52 0 100 15 145 48l44 -52c-58 -42 -121 -60 -194 -60c-184 0 -300 133 -300 359c0 225 115 365 300 365c74 0 137 -22 195 -63zM312 771l-94 116l50 21l74 -84l73 84
l49 -21l-92 -116h-60z" />
    <glyph glyph-name="Ccircumflex" unicode="&#x108;" horiz-adv-x="567" 
d="M536 648l-40 -55c-46 34 -96 52 -150 52c-143 0 -227 -104 -227 -299c0 -190 77 -295 227 -295c52 0 100 15 145 48l44 -52c-58 -42 -121 -60 -194 -60c-184 0 -300 133 -300 359c0 225 115 365 300 365c74 0 137 -22 195 -63zM308 922l-103 -128l55 -23l81 92l81 -92
l54 23l-102 128h-66z" />
    <glyph glyph-name="Cdotaccent" unicode="&#x10a;" horiz-adv-x="567" 
d="M536 648l-40 -55c-46 34 -96 52 -150 52c-143 0 -227 -104 -227 -299c0 -190 77 -295 227 -295c52 0 100 15 145 48l44 -52c-58 -42 -121 -60 -194 -60c-184 0 -300 133 -300 359c0 225 115 365 300 365c74 0 137 -22 195 -63zM341 872c28 0 51 -23 51 -51
s-23 -50 -51 -50s-50 22 -50 50s22 51 50 51z" />
    <glyph glyph-name="Dcaron" unicode="&#x10e;" horiz-adv-x="628" 
d="M69 703h171c235 0 345 -107 345 -352c0 -242 -107 -351 -345 -351h-171v703zM146 634v-567h106c176 0 255 89 255 284c0 194 -79 283 -255 283h-106zM298 771l-94 116l50 21l74 -84l73 84l49 -21l-92 -116h-60z" />
    <glyph glyph-name="Ebreve" unicode="&#x114;" horiz-adv-x="492" 
d="M69 700h387v-73h-310v-179h310v-73h-310v-304h318v-71h-395v700zM137 869l48 16c6 -27 25 -60 73 -60h4c45 0 77 26 79 60l46 -18c-4 -49 -50 -96 -121 -96h-4c-67 0 -119 40 -125 98z" />
    <glyph glyph-name="Ecaron" unicode="&#x11a;" horiz-adv-x="492" 
d="M69 700h387v-73h-310v-179h310v-73h-310v-304h318v-71h-395v700zM233 771l-94 116l50 21l74 -84l73 84l49 -21l-92 -116h-60z" />
    <glyph glyph-name="Edotaccent" unicode="&#x116;" horiz-adv-x="492" 
d="M69 700h387v-73h-310v-179h310v-73h-310v-304h318v-71h-395v700zM262 872c28 0 51 -23 51 -51s-23 -50 -51 -50s-50 22 -50 50s22 51 50 51z" />
    <glyph glyph-name="Emacron" unicode="&#x112;" horiz-adv-x="492" 
d="M69 700h387v-73h-310v-179h310v-73h-310v-304h318v-71h-395v700zM140 831h245v-60h-245v60z" />
    <glyph glyph-name="Eogonek" unicode="&#x118;" horiz-adv-x="492" 
d="M69 700h387v-73h-310v-179h310v-73h-310v-304h318v-71h-61c-22 -28 -33 -49 -33 -66c0 -23 13 -37 45 -37c16 0 33 3 51 13v-54c-21 -5 -39 -6 -55 -7c-64 0 -98 19 -98 71c0 25 13 50 40 80h-284v700z" />
    <glyph glyph-name="Gbreve" unicode="&#x11e;" horiz-adv-x="626" 
d="M501 90v200h-137v70h213v-304c-65 -47 -141 -68 -229 -68c-192 0 -307 130 -307 361s116 362 307 362c77 0 148 -21 210 -61l-41 -59c-50 36 -104 54 -163 54c-154 0 -236 -96 -236 -296c0 -193 79 -293 236 -293c64 0 111 10 147 34zM223 869l48 16c6 -27 25 -60 73 -60
h4c45 0 77 26 79 60l46 -18c-4 -49 -50 -96 -121 -96h-4c-67 0 -119 40 -125 98z" />
    <glyph glyph-name="Gcircumflex" unicode="&#x11c;" horiz-adv-x="626" 
d="M501 90v200h-137v70h213v-304c-65 -47 -141 -68 -229 -68c-192 0 -307 130 -307 361s116 362 307 362c77 0 148 -21 210 -61l-41 -59c-50 36 -104 54 -163 54c-154 0 -236 -96 -236 -296c0 -193 79 -293 236 -293c64 0 111 10 147 34zM316 922l-103 -128l55 -23l81 92
l81 -92l54 23l-102 128h-66z" />
    <glyph glyph-name="Gcommaaccent" unicode="&#x122;" horiz-adv-x="626" 
d="M501 90v200h-137v70h213v-304c-65 -47 -141 -68 -229 -68c-192 0 -307 130 -307 361s116 362 307 362c77 0 148 -21 210 -61l-41 -59c-50 36 -104 54 -163 54c-154 0 -236 -96 -236 -296c0 -193 79 -293 236 -293c64 0 111 10 147 34zM426 -77l-122 -173l-35 23l97 186z
" />
    <glyph glyph-name="Gdotaccent" unicode="&#x120;" horiz-adv-x="626" 
d="M501 90v200h-137v70h213v-304c-65 -47 -141 -68 -229 -68c-192 0 -307 130 -307 361s116 362 307 362c77 0 148 -21 210 -61l-41 -59c-50 36 -104 54 -163 54c-154 0 -236 -96 -236 -296c0 -193 79 -293 236 -293c64 0 111 10 147 34zM347 872c28 0 51 -23 51 -51
s-23 -50 -51 -50s-50 22 -50 50s22 51 50 51z" />
    <glyph glyph-name="Hcircumflex" unicode="&#x124;" horiz-adv-x="606" 
d="M69 700h76v-289h315v289h77v-700h-77v338h-315v-338h-76v700zM270 922l-103 -128l55 -23l81 92l81 -92l54 23l-102 128h-66z" />
    <glyph glyph-name="Ibreve" unicode="&#x12c;" horiz-adv-x="215" 
d="M69 700h77v-700h-77v700zM-18 869l48 16c6 -27 25 -60 74 -60h4c44 0 76 26 78 60l46 -18c-4 -49 -50 -96 -120 -96h-4c-68 0 -120 40 -126 98z" />
    <glyph glyph-name="Idotaccent" unicode="&#x130;" horiz-adv-x="215" 
d="M69 700h77v-700h-77v700zM107 872c28 0 51 -23 51 -51s-23 -50 -51 -50s-50 22 -50 50s22 51 50 51z" />
    <glyph glyph-name="Imacron" unicode="&#x12a;" horiz-adv-x="215" 
d="M69 700h77v-700h-77v700zM-15 831h245v-60h-245v60z" />
    <glyph glyph-name="Iogonek" unicode="&#x12e;" horiz-adv-x="215" 
d="M69 700h77v-700h-18c-22 -28 -33 -49 -33 -66c0 -23 13 -37 45 -37c16 0 33 3 51 13v-54c-21 -5 -39 -6 -55 -7c-64 0 -98 19 -98 71c0 25 13 50 40 80h-9v700z" />
    <glyph glyph-name="Itilde" unicode="&#x128;" horiz-adv-x="354" 
d="M315 771h-5c-24 0 -44 8 -67 25c-17 11 -43 30 -65 33h-2c-31 0 -52 -30 -68 -58l-39 30c19 33 58 83 105 84c27 0 49 -8 73 -26c18 -12 48 -32 64 -32h3c24 0 49 22 65 58l45 -30c-14 -42 -66 -84 -109 -84zM208 700h77v-700h-77v700z" />
    <glyph glyph-name="Jcircumflex" unicode="&#x134;" horiz-adv-x="279" 
d="M137 700h77v-475c0 -162 -52 -237 -178 -237h-30v69h22c80 0 109 42 109 168v475zM143 922l-103 -128l55 -23l81 92l81 -92l54 23l-102 128h-66z" />
    <glyph glyph-name="Kcommaaccent" unicode="&#x136;" horiz-adv-x="557" 
d="M69 700h78v-302l286 302h101l-312 -325l334 -375h-103l-306 343v-343h-78v700zM391 -77l-122 -173l-35 23l97 186z" />
    <glyph glyph-name="Lacute" unicode="&#x139;" horiz-adv-x="455" 
d="M69 700h77v-629h304v-71h-381v700zM183 971l68 -35l-144 -165l-44 33z" />
    <glyph glyph-name="Lcaron" unicode="&#x13d;" horiz-adv-x="479" 
d="M69 700h77v-629h304v-71h-381v700zM451 675l-122 -183l-35 23l97 196z" />
    <glyph glyph-name="Lcommaaccent" unicode="&#x13b;" horiz-adv-x="455" 
d="M69 700h77v-629h304v-71h-381v700zM338 -77l-122 -173l-35 23l97 186z" />
    <glyph glyph-name="Ldot" unicode="&#x13f;" horiz-adv-x="455" 
d="M69 700h77v-629h304v-71h-381v700zM306 410c34 0 62 -29 62 -65c0 -35 -28 -65 -62 -65s-62 30 -62 65c0 36 28 65 62 65z" />
    <glyph glyph-name="Nacute" unicode="&#x143;" horiz-adv-x="602" 
d="M69 711l388 -501v490h76v-711l-388 497v-486h-76v711zM319 971l68 -35l-144 -165l-44 33z" />
    <glyph glyph-name="Ncaron" unicode="&#x147;" horiz-adv-x="590" 
d="M64 711l388 -501v490h76v-711l-388 497v-486h-76v711zM265 771l-94 116l50 21l74 -84l73 84l49 -21l-92 -116h-60z" />
    <glyph glyph-name="Ncommaaccent" unicode="&#x145;" horiz-adv-x="602" 
d="M69 711l388 -501v490h76v-711l-388 497v-486h-76v711zM384 -77l-122 -173l-35 23l97 186z" />
    <glyph glyph-name="Obreve" unicode="&#x14e;" horiz-adv-x="749" 
d="M374 711c194 0 326 -143 326 -364c0 -219 -125 -359 -326 -359c-199 0 -327 139 -327 359s130 364 327 364zM374 645c-143 0 -255 -110 -255 -298c0 -183 107 -297 255 -297c144 0 254 110 254 297c0 182 -106 298 -254 298zM249 869l48 16c6 -27 25 -60 73 -60h4
c45 0 77 26 79 60l46 -18c-4 -49 -50 -96 -121 -96h-4c-67 0 -119 40 -125 98z" />
    <glyph glyph-name="Ohungarumlaut" unicode="&#x150;" horiz-adv-x="749" 
d="M374 711c194 0 326 -143 326 -364c0 -219 -125 -359 -326 -359c-199 0 -327 139 -327 359s130 364 327 364zM374 645c-143 0 -255 -110 -255 -298c0 -183 107 -297 255 -297c144 0 254 110 254 297c0 182 -106 298 -254 298zM563 954l-122 -183l-35 23l97 196zM428 954
l-122 -183l-35 23l97 196z" />
    <glyph glyph-name="Omacron" unicode="&#x14c;" horiz-adv-x="749" 
d="M374 711c194 0 326 -143 326 -364c0 -219 -125 -359 -326 -359c-199 0 -327 139 -327 359s130 364 327 364zM374 645c-143 0 -255 -110 -255 -298c0 -183 107 -297 255 -297c144 0 254 110 254 297c0 182 -106 298 -254 298zM251 831h245v-60h-245v60z" />
    <glyph glyph-name="Oslashacute" unicode="&#x1fe;" horiz-adv-x="749" 
d="M465 700l30 84h71l-38 -108c106 -57 172 -173 172 -329c0 -219 -125 -359 -326 -359c-30 0 -58 3 -85 10l-29 -82h-71l37 104c-113 52 -179 168 -179 327c0 220 130 364 327 364c32 0 63 -3 91 -11zM310 58c21 -6 42 -8 64 -8c144 0 254 110 254 297
c0 122 -48 214 -124 262zM374 645c-143 0 -255 -110 -255 -298c0 -125 50 -218 129 -264l195 553c-22 6 -45 9 -69 9zM393 942l68 -35l-144 -165l-44 33z" />
    <glyph glyph-name="Racute" unicode="&#x154;" horiz-adv-x="499" 
d="M266 971l68 -35l-144 -165l-44 33zM69 700h183c121 0 199 -63 199 -197c-7 -119 -60 -167 -133 -189l159 -314h-83l-156 300h-92v-300h-77v700zM146 631v-261h103c85 0 129 47 129 133c0 85 -43 126 -129 128h-103z" />
    <glyph glyph-name="Rcaron" unicode="&#x158;" horiz-adv-x="499" 
d="M207 771l-94 116l50 21l74 -84l73 84l49 -21l-92 -116h-60zM69 700h183c121 0 199 -63 199 -197c-7 -119 -60 -167 -133 -189l159 -314h-83l-156 300h-92v-300h-77v700zM146 631v-261h103c85 0 129 47 129 133c0 85 -43 126 -129 128h-103z" />
    <glyph glyph-name="Rcommaaccent" unicode="&#x156;" horiz-adv-x="499" 
d="M69 700h183c121 0 199 -63 199 -197c-7 -119 -60 -167 -133 -189l159 -314h-83l-156 300h-92v-300h-77v700zM146 631v-261h103c85 0 129 47 129 133c0 85 -43 126 -129 128h-103zM352 -77l-122 -173l-35 23l97 186z" />
    <glyph glyph-name="Sacute" unicode="&#x15a;" horiz-adv-x="500" 
d="M444 626l-48 -56c-38 46 -76 75 -131 75c-93 0 -140 -40 -141 -126c1 -61 31 -95 116 -114l51 -12c122 -29 176 -90 176 -204c0 -133 -81 -201 -234 -201c-58 0 -139 28 -195 76l50 62c48 -48 99 -68 145 -71c97 0 157 39 157 126c0 71 -29 112 -122 132l-52 12
c-117 27 -165 91 -166 189c0 120 70 197 205 197c82 -1 141 -33 189 -85zM331 971l68 -35l-144 -165l-44 33z" />
    <glyph glyph-name="Scedilla" unicode="&#x15e;" horiz-adv-x="500" 
d="M444 626l-48 -56c-38 46 -76 75 -131 75c-93 0 -140 -40 -141 -126c1 -61 31 -95 116 -114l51 -12c122 -29 176 -90 176 -204c0 -133 -81 -201 -234 -201c-58 0 -139 28 -195 76l50 62c48 -48 99 -68 145 -71c97 0 157 39 157 126c0 71 -29 112 -122 132l-52 12
c-117 27 -165 91 -166 189c0 120 70 197 205 197c82 -1 141 -33 189 -85zM143 -180l86 140h48l-68 -180z" />
    <glyph glyph-name="Scircumflex" unicode="&#x15c;" horiz-adv-x="500" 
d="M444 626l-48 -56c-38 46 -76 75 -131 75c-93 0 -140 -40 -141 -126c1 -61 31 -95 116 -114l51 -12c122 -29 176 -90 176 -204c0 -133 -81 -201 -234 -201c-58 0 -139 28 -195 76l50 62c48 -48 99 -68 145 -71c97 0 157 39 157 126c0 71 -29 112 -122 132l-52 12
c-117 27 -165 91 -166 189c0 120 70 197 205 197c82 -1 141 -33 189 -85zM223 922l-103 -128l55 -23l81 92l81 -92l54 23l-102 128h-66z" />
    <glyph glyph-name="Scommaaccent" unicode="&#x218;" horiz-adv-x="500" 
d="M444 626l-48 -56c-38 46 -76 75 -131 75c-93 0 -140 -40 -141 -126c1 -61 31 -95 116 -114l51 -12c122 -29 176 -90 176 -204c0 -133 -81 -201 -234 -201c-58 0 -139 28 -195 76l50 62c48 -48 99 -68 145 -71c97 0 157 39 157 126c0 71 -29 112 -122 132l-52 12
c-117 27 -165 91 -166 189c0 120 70 197 205 197c82 -1 141 -33 189 -85zM311 -77l-122 -173l-35 23l97 186z" />
    <glyph glyph-name="Tcaron" unicode="&#x164;" horiz-adv-x="519" 
d="M10 700h499v-73h-211v-627h-76v627h-212v73zM230 771l-94 116l50 21l74 -84l73 84l49 -21l-92 -116h-60z" />
    <glyph glyph-name="Tcommaaccent" unicode="&#x162;" horiz-adv-x="519" 
d="M10 700h499v-73h-211v-627h-76v627h-212v73zM149 -180l86 140h48l-68 -180z" />
    <glyph glyph-name="Ubreve" unicode="&#x16c;" horiz-adv-x="596" 
d="M63 700h77v-429c0 -155 44 -222 159 -222c111 0 160 66 160 222v429h74v-441c0 -181 -80 -271 -234 -271c-153 0 -236 88 -236 271v441zM173 869l48 16c6 -27 25 -60 73 -60h4c45 0 77 26 79 60l46 -18c-4 -49 -50 -96 -121 -96h-4c-67 0 -119 40 -125 98z" />
    <glyph glyph-name="Uhungarumlaut" unicode="&#x170;" horiz-adv-x="596" 
d="M63 700h77v-429c0 -155 44 -222 159 -222c111 0 160 66 160 222v429h74v-441c0 -181 -80 -271 -234 -271c-153 0 -236 88 -236 271v441zM487 954l-122 -183l-35 23l97 196zM352 954l-122 -183l-35 23l97 196z" />
    <glyph glyph-name="Umacron" unicode="&#x16a;" horiz-adv-x="596" 
d="M63 700h77v-429c0 -155 44 -222 159 -222c111 0 160 66 160 222v429h74v-441c0 -181 -80 -271 -234 -271c-153 0 -236 88 -236 271v441zM175 831h245v-60h-245v60z" />
    <glyph glyph-name="Uogonek" unicode="&#x172;" horiz-adv-x="596" 
d="M63 700h77v-429c0 -155 44 -222 159 -222c111 0 160 66 160 222v429h74v-441c0 -173 -73 -263 -214 -270c-22 -29 -33 -50 -33 -67c0 -23 13 -37 45 -37c16 0 33 3 51 13v-54c-21 -5 -39 -6 -55 -7c-64 0 -98 19 -98 71c0 25 13 51 41 81c-134 11 -207 99 -207 270v441z
" />
    <glyph glyph-name="Uring" unicode="&#x16e;" horiz-adv-x="596" 
d="M63 700h77v-429c0 -155 44 -222 159 -222c111 0 160 66 160 222v429h74v-441c0 -181 -80 -271 -234 -271c-153 0 -236 88 -236 271v441zM394 864c0 -52 -43 -93 -97 -93c-52 0 -95 40 -95 93c0 50 41 94 95 94c53 0 95 -41 97 -94zM351 864c0 28 -24 51 -54 51
c-28 0 -52 -20 -52 -51c0 -28 22 -52 52 -52c31 0 54 23 54 52z" />
    <glyph glyph-name="Utilde" unicode="&#x168;" horiz-adv-x="596" 
d="M367 771h-5c-24 0 -44 8 -67 25c-17 11 -43 30 -65 33h-2c-31 0 -52 -30 -68 -58l-39 30c19 33 58 83 105 84c27 0 49 -8 73 -26c18 -12 48 -32 64 -32h3c24 0 49 22 65 58l45 -30c-14 -42 -66 -84 -109 -84zM63 700h77v-429c0 -155 44 -222 159 -222
c111 0 160 66 160 222v429h74v-441c0 -181 -80 -271 -234 -271c-153 0 -236 88 -236 271v441z" />
    <glyph glyph-name="Wacute" unicode="&#x1e82;" horiz-adv-x="780" 
d="M466 971l68 -35l-144 -165l-44 33zM19 700h82l125 -457l163 457l166 -457l125 457h82l-192 -713l-179 508l-179 -508z" />
    <glyph glyph-name="Wcircumflex" unicode="&#x174;" horiz-adv-x="780" 
d="M19 700h82l125 -457l163 457l166 -457l125 457h82l-192 -713l-179 508l-179 -508zM358 922l-103 -128l55 -23l81 92l81 -92l54 23l-102 128h-66z" />
    <glyph glyph-name="Wdieresis" unicode="&#x1e84;" horiz-adv-x="780" 
d="M473 873c27 0 48 -23 48 -51s-21 -51 -48 -51s-48 23 -48 51s21 51 48 51zM308 873c27 0 48 -23 48 -51s-21 -51 -48 -51s-48 23 -48 51s21 51 48 51zM19 700h82l125 -457l163 457l166 -457l125 457h82l-192 -713l-179 508l-179 -508z" />
    <glyph glyph-name="Wgrave" unicode="&#x1e80;" horiz-adv-x="780" 
d="M320 958l110 -157l-40 -30l-130 150zM19 700h82l125 -457l163 457l166 -457l125 457h82l-192 -713l-179 508l-179 -508z" />
    <glyph glyph-name="Ycircumflex" unicode="&#x176;" horiz-adv-x="525" 
d="M4 700h84l176 -292l175 292h82l-221 -364v-336h-75v336zM230 922l-103 -128l55 -23l81 92l81 -92l54 23l-102 128h-66z" />
    <glyph glyph-name="Ygrave" unicode="&#x1ef2;" horiz-adv-x="525" 
d="M192 958l110 -157l-40 -30l-130 150zM4 700h84l176 -292l175 292h82l-221 -364v-336h-75v336z" />
    <glyph glyph-name="Zacute" unicode="&#x179;" horiz-adv-x="531" 
d="M24 700h481l-361 -629h370v-71h-499l360 626h-351v74zM341 971l68 -35l-144 -165l-44 33z" />
    <glyph glyph-name="Zdotaccent" unicode="&#x17b;" horiz-adv-x="531" 
d="M24 700h481l-361 -629h370v-71h-499l360 626h-351v74zM264 872c28 0 51 -23 51 -51s-23 -50 -51 -50s-50 22 -50 50s22 51 50 51z" />
    <glyph glyph-name="AEacute" unicode="&#x1fc;" horiz-adv-x="860" 
d="M850 0h-368l-70 181h-256l-71 -181h-80l280 711l4 -11h308l30 -73h-308l69 -179h310l29 -73h-306l115 -304h286zM285 513l-99 -260h201zM479 971l68 -35l-144 -165l-44 33z" />
    <glyph glyph-name="abreve" unicode="&#x103;" 
d="M124 222c0 -106 46 -174 128 -174c81 0 130 67 130 174s-49 174 -130 174c-78 0 -128 -63 -128 -174zM382 379v69h75v-448h-75v65c-30 -50 -77 -75 -147 -75c-111 0 -189 91 -189 232s77 236 189 236c66 0 115 -24 147 -79zM137 616l48 16c6 -27 25 -60 73 -60h4
c45 0 77 26 79 60l46 -18c-4 -49 -50 -96 -121 -96h-4c-67 0 -119 40 -125 98z" />
    <glyph glyph-name="amacron" unicode="&#x101;" 
d="M124 222c0 -106 46 -174 128 -174c81 0 130 67 130 174s-49 174 -130 174c-78 0 -128 -63 -128 -174zM382 379v69h75v-448h-75v65c-30 -50 -77 -75 -147 -75c-111 0 -189 91 -189 232s77 236 189 236c66 0 115 -24 147 -79zM142 578h245v-60h-245v60z" />
    <glyph glyph-name="aogonek" unicode="&#x105;" 
d="M124 222c0 -106 46 -174 128 -174c81 0 130 67 130 174s-49 174 -130 174c-78 0 -128 -63 -128 -174zM382 379v69h75v-448h-28c-22 -30 -33 -52 -33 -70c0 -25 13 -39 45 -39c16 0 33 3 51 13v-57c-21 -6 -39 -7 -55 -8c-64 0 -98 21 -98 76c0 27 13 56 43 89v61
c-30 -50 -77 -75 -147 -75c-111 0 -189 91 -189 232s77 236 189 236c66 0 115 -24 147 -79z" />
    <glyph glyph-name="uni01FB" unicode="&#x1fb;" 
d="M351 656c0 -52 -43 -93 -97 -93c-52 0 -95 40 -95 93c0 50 41 94 95 94c53 0 95 -41 97 -94zM308 656c0 28 -24 51 -54 51c-28 0 -52 -20 -52 -51c0 -28 22 -52 52 -52c31 0 54 23 54 52zM124 222c0 -106 46 -174 128 -174c81 0 130 67 130 174s-49 174 -130 174
c-78 0 -128 -63 -128 -174zM382 379v69h75v-448h-75v65c-30 -50 -77 -75 -147 -75c-111 0 -189 91 -189 232s77 236 189 236c66 0 115 -24 147 -79zM330 1010l68 -35l-144 -165l-44 33z" />
    <glyph glyph-name="cacute" unicode="&#x107;" horiz-adv-x="443" 
d="M269 458h8c46 0 99 -16 141 -54l-50 -56c-26 28 -61 46 -98 46c-82 0 -148 -80 -148 -173s66 -169 148 -169c38 0 72 16 98 44l50 -59c-46 -30 -89 -49 -135 -49c-5 0 -9 1 -14 1c-125 0 -227 101 -227 232c0 133 102 237 227 237zM353 718l68 -35l-144 -165l-44 33z" />
    <glyph glyph-name="ccaron" unicode="&#x10d;" horiz-adv-x="443" 
d="M269 458h8c46 0 99 -16 141 -54l-50 -56c-26 28 -61 46 -98 46c-82 0 -148 -80 -148 -173s66 -169 148 -169c38 0 72 16 98 44l50 -59c-46 -30 -89 -49 -135 -49c-5 0 -9 1 -14 1c-125 0 -227 101 -227 232c0 133 102 237 227 237zM248 518l-94 116l50 21l74 -84l73 84
l49 -21l-92 -116h-60z" />
    <glyph glyph-name="ccircumflex" unicode="&#x109;" horiz-adv-x="443" 
d="M269 458h8c46 0 99 -16 141 -54l-50 -56c-26 28 -61 46 -98 46c-82 0 -148 -80 -148 -173s66 -169 148 -169c38 0 72 16 98 44l50 -59c-46 -30 -89 -49 -135 -49c-5 0 -9 1 -14 1c-125 0 -227 101 -227 232c0 133 102 237 227 237zM245 669l-103 -128l55 -23l81 92
l81 -92l54 23l-102 128h-66z" />
    <glyph glyph-name="cdotaccent" unicode="&#x10b;" horiz-adv-x="443" 
d="M269 458h8c46 0 99 -16 141 -54l-50 -56c-26 28 -61 46 -98 46c-82 0 -148 -80 -148 -173s66 -169 148 -169c38 0 72 16 98 44l50 -59c-46 -30 -89 -49 -135 -49c-5 0 -9 1 -14 1c-125 0 -227 101 -227 232c0 133 102 237 227 237zM277 619c28 0 51 -23 51 -51
s-23 -50 -51 -50s-50 22 -50 50s22 51 50 51z" />
    <glyph glyph-name="dcaron" unicode="&#x10f;" horiz-adv-x="699" 
d="M124 222c0 -106 46 -174 128 -174c81 0 130 67 130 174s-49 174 -130 174c-78 0 -128 -63 -128 -174zM382 379v371h75v-750h-75v65c-30 -50 -77 -75 -147 -75c-111 0 -189 91 -189 232s77 236 189 236c66 0 115 -24 147 -79zM656 714l-122 -183l-35 23l97 196z" />
    <glyph glyph-name="ebreve" unicode="&#x115;" horiz-adv-x="504" 
d="M143 616l48 16c6 -27 25 -60 73 -60h4c45 0 77 26 79 60l46 -18c-4 -49 -50 -96 -121 -96h-4c-67 0 -119 40 -125 98zM264 458h4c121 0 195 -82 205 -211v-27h-351c0 -92 66 -168 148 -168h8c58 0 99 22 133 62l47 -42c-40 -54 -110 -82 -189 -83
c-125 0 -225 101 -225 232c0 133 95 237 220 237zM130 283h266c-13 80 -69 111 -131 111c-63 0 -125 -64 -135 -111z" />
    <glyph glyph-name="ecaron" unicode="&#x11b;" horiz-adv-x="504" 
d="M239 518l-94 116l50 21l74 -84l73 84l49 -21l-92 -116h-60zM264 458h4c121 0 195 -82 205 -211v-27h-351c0 -92 66 -168 148 -168h8c58 0 99 22 133 62l47 -42c-40 -54 -110 -82 -189 -83c-125 0 -225 101 -225 232c0 133 95 237 220 237zM130 283h266
c-13 80 -69 111 -131 111c-63 0 -125 -64 -135 -111z" />
    <glyph glyph-name="edotaccent" unicode="&#x117;" horiz-adv-x="504" 
d="M268 619c28 0 51 -23 51 -51s-23 -50 -51 -50s-50 22 -50 50s22 51 50 51zM264 458h4c121 0 195 -82 205 -211v-27h-351c0 -92 66 -168 148 -168h8c58 0 99 22 133 62l47 -42c-40 -54 -110 -82 -189 -83c-125 0 -225 101 -225 232c0 133 95 237 220 237zM130 283h266
c-13 80 -69 111 -131 111c-63 0 -125 -64 -135 -111z" />
    <glyph glyph-name="emacron" unicode="&#x113;" horiz-adv-x="504" 
d="M146 578h245v-60h-245v60zM264 458h4c121 0 195 -82 205 -211v-27h-351c0 -92 66 -168 148 -168h8c58 0 99 22 133 62l47 -42c-40 -54 -110 -82 -189 -83c-125 0 -225 101 -225 232c0 133 95 237 220 237zM130 283h266c-13 80 -69 111 -131 111c-63 0 -125 -64 -135 -111
z" />
    <glyph glyph-name="eogonek" unicode="&#x119;" horiz-adv-x="504" 
d="M264 458h4c121 0 195 -82 205 -211v-27h-351c0 -92 66 -168 148 -168h8c58 0 99 22 133 62l47 -42c-28 -38 -72 -63 -123 -75c-24 -31 -35 -53 -35 -71c0 -23 14 -38 46 -38c16 0 32 3 50 13v-56c-20 -5 -38 -6 -54 -7c-64 0 -98 20 -98 74c0 24 11 49 35 77h-10
c-125 0 -225 101 -225 232c0 133 95 237 220 237zM130 283h266c-13 80 -69 111 -131 111c-63 0 -125 -64 -135 -111z" />
    <glyph glyph-name="gbreve" unicode="&#x11f;" 
d="M457 0c0 -149 -67 -225 -212 -225h-12c-62 0 -128 22 -166 68l55 49c23 -34 64 -56 112 -56c94 0 148 47 148 149v93c-30 -53 -80 -78 -147 -78c-111 0 -189 90 -189 229c0 135 75 229 189 229c67 0 114 -24 147 -79v69h75v-448zM382 229c0 104 -46 167 -130 167
c-79 0 -127 -60 -127 -167c0 -106 44 -169 127 -169c82 0 130 62 130 169zM132 616l48 16c6 -27 25 -60 73 -60h4c45 0 77 26 79 60l46 -18c-4 -49 -50 -96 -121 -96h-4c-67 0 -119 40 -125 98z" />
    <glyph glyph-name="gcircumflex" unicode="&#x11d;" 
d="M457 0c0 -149 -67 -225 -212 -225h-12c-62 0 -128 22 -166 68l55 49c23 -34 64 -56 112 -56c94 0 148 47 148 149v93c-30 -53 -80 -78 -147 -78c-111 0 -189 90 -189 229c0 135 75 229 189 229c67 0 114 -24 147 -79v69h75v-448zM382 229c0 104 -46 167 -130 167
c-79 0 -127 -60 -127 -167c0 -106 44 -169 127 -169c82 0 130 62 130 169zM229 669l-103 -128l55 -23l81 92l81 -92l54 23l-102 128h-66z" />
    <glyph glyph-name="gcommaaccent" unicode="&#x123;" 
d="M164 566l122 183l35 -23l-97 -196zM457 0c0 -149 -67 -225 -212 -225h-12c-62 0 -128 22 -166 68l55 49c23 -34 64 -56 112 -56c94 0 148 47 148 149v93c-30 -53 -80 -78 -147 -78c-111 0 -189 90 -189 229c0 135 75 229 189 229c67 0 114 -24 147 -79v69h75v-448z
M382 229c0 104 -46 167 -130 167c-79 0 -127 -60 -127 -167c0 -106 44 -169 127 -169c82 0 130 62 130 169z" />
    <glyph glyph-name="gdotaccent" unicode="&#x121;" 
d="M457 0c0 -149 -67 -225 -212 -225h-12c-62 0 -128 22 -166 68l55 49c23 -34 64 -56 112 -56c94 0 148 47 148 149v93c-30 -53 -80 -78 -147 -78c-111 0 -189 90 -189 229c0 135 75 229 189 229c67 0 114 -24 147 -79v69h75v-448zM382 229c0 104 -46 167 -130 167
c-79 0 -127 -60 -127 -167c0 -106 44 -169 127 -169c82 0 130 62 130 169zM234 619c28 0 51 -23 51 -51s-23 -50 -51 -50s-50 22 -50 50s22 51 50 51z" />
    <glyph glyph-name="hcircumflex" unicode="&#x125;" horiz-adv-x="517" 
d="M454 270v-270h-76v267c0 85 -34 126 -102 127c-82 0 -129 -53 -131 -142v-252h-76v750h76v-373c36 54 83 81 148 81c104 0 161 -64 161 -188zM74 961l-103 -128l55 -23l81 92l81 -92l54 23l-102 128h-66z" />
    <glyph glyph-name="ibreve" unicode="&#x12d;" horiz-adv-x="214" 
d="M69 448h76v-448h-76v448zM-18 616l48 16c6 -27 25 -60 73 -60h4c45 0 77 26 79 60l46 -18c-4 -49 -50 -96 -121 -96h-4c-67 0 -119 40 -125 98z" />
    <glyph glyph-name="imacron" unicode="&#x12b;" horiz-adv-x="214" 
d="M69 448h76v-448h-76v448zM-16 578h246v-60h-246v60z" />
    <glyph glyph-name="iogonek" unicode="&#x12f;" horiz-adv-x="214" 
d="M107 675c28 0 51 -23 51 -51s-23 -50 -51 -50s-50 22 -50 50s22 51 50 51zM69 448h76v-448h-17c-23 -28 -34 -49 -34 -66c0 -23 14 -37 46 -37c16 0 32 3 50 13v-54c-20 -5 -38 -6 -54 -7c-64 0 -98 19 -98 71c0 25 13 50 39 80h-8v448z" />
    <glyph glyph-name="itilde" unicode="&#x129;" horiz-adv-x="353" 
d="M315 518h-5c-24 0 -44 8 -67 25c-17 11 -43 30 -65 33h-2c-31 0 -52 -30 -68 -58l-39 30c19 33 58 83 105 84c27 0 49 -8 73 -26c18 -12 48 -32 64 -32h3c24 0 49 22 65 58l45 -30c-14 -42 -66 -84 -109 -84zM208 448h76v-448h-76v448z" />
    <glyph glyph-name="jcircumflex" unicode="&#x135;" horiz-adv-x="214" 
d="M69 448h76v-673h-76v673zM74 669l-102 -128l54 -23l82 92l80 -92l54 23l-102 128h-66z" />
    <glyph glyph-name="kcommaaccent" unicode="&#x137;" horiz-adv-x="489" 
d="M69 750h76v-497l225 195h96l-244 -211l255 -237h-99l-233 218v-218h-76v750zM352 -76l-122 -174l-35 23l97 187z" />
    <glyph glyph-name="lacute" unicode="&#x13a;" horiz-adv-x="214" 
d="M69 750h76v-750h-76v750zM183 1010l68 -35l-144 -165l-44 33z" />
    <glyph glyph-name="lcaron" unicode="&#x13e;" horiz-adv-x="380" 
d="M69 750h76v-750h-76v750zM354 714l-122 -183l-35 23l97 196z" />
    <glyph glyph-name="lcommaaccent" unicode="&#x13c;" horiz-adv-x="214" 
d="M69 750h76v-750h-76v750zM186 -77l-122 -173l-36 23l98 186z" />
    <glyph glyph-name="ldot" unicode="&#x140;" horiz-adv-x="342" 
d="M69 750h76v-750h-76v750zM256 340c32 0 59 -29 59 -65s-27 -65 -59 -65c-33 0 -60 29 -60 65s27 65 60 65z" />
    <glyph glyph-name="nacute" unicode="&#x144;" horiz-adv-x="517" 
d="M454 270v-270h-76v267c0 85 -34 126 -102 127c-82 0 -129 -53 -131 -142v-252h-76v448h76v-71c36 54 83 81 148 81c104 0 161 -64 161 -188zM337 718l68 -35l-144 -165l-44 33z" />
    <glyph glyph-name="ncaron" unicode="&#x148;" horiz-adv-x="517" 
d="M454 270v-270h-76v267c0 85 -34 126 -102 127c-82 0 -129 -53 -131 -142v-252h-76v448h76v-71c36 54 83 81 148 81c104 0 161 -64 161 -188zM233 518l-94 116l50 21l74 -84l73 84l49 -21l-92 -116h-60z" />
    <glyph glyph-name="ncommaaccent" unicode="&#x146;" horiz-adv-x="517" 
d="M454 270v-270h-76v267c0 85 -34 126 -102 127c-82 0 -129 -53 -131 -142v-252h-76v448h76v-71c36 54 83 81 148 81c104 0 161 -64 161 -188zM340 -77l-122 -173l-35 23l97 186z" />
    <glyph glyph-name="obreve" unicode="&#x14f;" horiz-adv-x="538" 
d="M270 394c-82 0 -148 -80 -148 -173s66 -169 148 -169c81 0 147 76 147 169s-66 173 -147 173zM269 458c124 0 224 -103 224 -236c0 -131 -100 -233 -224 -233c-125 0 -227 101 -227 232c0 133 102 237 227 237zM144 616l48 16c6 -27 25 -60 73 -60h4c45 0 77 26 79 60
l46 -18c-4 -49 -50 -96 -121 -96h-4c-67 0 -119 40 -125 98z" />
    <glyph glyph-name="ohungarumlaut" unicode="&#x151;" horiz-adv-x="538" 
d="M270 394c-82 0 -148 -80 -148 -173s66 -169 148 -169c81 0 147 76 147 169s-66 173 -147 173zM269 458c124 0 224 -103 224 -236c0 -131 -100 -233 -224 -233c-125 0 -227 101 -227 232c0 133 102 237 227 237zM458 701l-122 -183l-35 23l97 196zM323 701l-122 -183
l-35 23l97 196z" />
    <glyph glyph-name="omacron" unicode="&#x14d;" horiz-adv-x="538" 
d="M270 394c-82 0 -148 -80 -148 -173s66 -169 148 -169c81 0 147 76 147 169s-66 173 -147 173zM269 458c124 0 224 -103 224 -236c0 -131 -100 -233 -224 -233c-125 0 -227 101 -227 232c0 133 102 237 227 237zM146 578h245v-60h-245v60z" />
    <glyph glyph-name="oslashacute" unicode="&#x1ff;" horiz-adv-x="538" 
d="M269 458c17 0 32 -1 48 -5l12 47h53l-17 -64c76 -38 128 -118 128 -214c0 -131 -100 -233 -224 -233c-11 0 -22 0 -33 2l-15 -52h-53l19 66c-85 33 -145 115 -145 216c0 133 102 237 227 237zM206 70l93 321c-9 2 -19 3 -29 3c-82 0 -148 -80 -148 -173
c0 -67 35 -123 84 -151zM346 370l-92 -316c6 -2 11 -2 16 -2c81 0 147 76 147 169c0 62 -29 118 -71 149zM344 760l68 -35l-144 -165l-44 33z" />
    <glyph glyph-name="racute" unicode="&#x155;" horiz-adv-x="364" 
d="M287 718l68 -35l-144 -165l-44 33zM353 444l-26 -68c-17 10 -29 17 -50 17c-86 0 -130 -57 -132 -158v-235h-76v448h76v-71c32 55 81 81 155 81c9 0 35 -4 53 -14z" />
    <glyph glyph-name="rcaron" unicode="&#x159;" horiz-adv-x="364" 
d="M182 518l-94 116l50 21l74 -84l73 84l49 -21l-92 -116h-60zM353 444l-26 -68c-17 10 -29 17 -50 17c-86 0 -130 -57 -132 -158v-235h-76v448h76v-71c32 55 81 81 155 81c9 0 35 -4 53 -14z" />
    <glyph glyph-name="rcommaaccent" unicode="&#x157;" horiz-adv-x="364" 
d="M353 444l-26 -68c-17 10 -29 17 -50 17c-86 0 -130 -57 -132 -158v-235h-76v448h76v-71c32 55 81 81 155 81c9 0 35 -4 53 -14zM186 -77l-122 -173l-36 23l98 186z" />
    <glyph glyph-name="sacute" unicode="&#x15b;" horiz-adv-x="411" 
d="M355 400l-43 -49c-29 27 -55 44 -96 44c-50 0 -88 -26 -88 -73c3 -44 52 -60 103 -71c66 -17 140 -53 140 -127c0 -108 -88 -135 -174 -135c-54 0 -118 25 -155 71l55 47c26 -36 64 -55 102 -55c67 0 93 10 95 56c0 54 -33 64 -92 79c-92 25 -141 58 -143 132
c0 83 62 139 160 139c46 0 90 -16 136 -58zM295 718l68 -35l-144 -165l-44 33z" />
    <glyph glyph-name="scedilla" unicode="&#x15f;" horiz-adv-x="411" 
d="M355 400l-43 -49c-29 27 -55 44 -96 44c-50 0 -88 -26 -88 -73c3 -44 52 -60 103 -71c66 -17 140 -53 140 -127c0 -108 -88 -135 -174 -135c-54 0 -118 25 -155 71l55 47c26 -36 64 -55 102 -55c67 0 93 10 95 56c0 54 -33 64 -92 79c-92 25 -141 58 -143 132
c0 83 62 139 160 139c46 0 90 -16 136 -58zM96 -180l86 140h48l-68 -180z" />
    <glyph glyph-name="scircumflex" unicode="&#x15d;" horiz-adv-x="411" 
d="M355 400l-43 -49c-29 27 -55 44 -96 44c-50 0 -88 -26 -88 -73c3 -44 52 -60 103 -71c66 -17 140 -53 140 -127c0 -108 -88 -135 -174 -135c-54 0 -118 25 -155 71l55 47c26 -36 64 -55 102 -55c67 0 93 10 95 56c0 54 -33 64 -92 79c-92 25 -141 58 -143 132
c0 83 62 139 160 139c46 0 90 -16 136 -58zM187 669l-103 -128l55 -23l81 92l81 -92l54 23l-102 128h-66z" />
    <glyph glyph-name="scommaaccent" unicode="&#x219;" horiz-adv-x="411" 
d="M355 400l-43 -49c-29 27 -55 44 -96 44c-50 0 -88 -26 -88 -73c3 -44 52 -60 103 -71c66 -17 140 -53 140 -127c0 -108 -88 -135 -174 -135c-54 0 -118 25 -155 71l55 47c26 -36 64 -55 102 -55c67 0 93 10 95 56c0 54 -33 64 -92 79c-92 25 -141 58 -143 132
c0 83 62 139 160 139c46 0 90 -16 136 -58zM275 -77l-122 -173l-35 23l97 186z" />
    <glyph glyph-name="tcaron" unicode="&#x165;" horiz-adv-x="350" 
d="M168 625v-177h62v-57h-62v-391h-75v391h-62v57h62v177h75zM352 674l-122 -183l-35 23l97 196z" />
    <glyph glyph-name="tcommaaccent" unicode="&#x163;" horiz-adv-x="261" 
d="M168 625v-177h62v-57h-62v-391h-75v391h-62v57h62v177h75zM22 -180l86 140h48l-68 -180z" />
    <glyph glyph-name="ubreve" unicode="&#x16d;" horiz-adv-x="510" 
d="M63 176v272h74v-269c0 -85 50 -127 119 -127c80 0 114 39 115 141v255h76v-272c0 -116 -74 -187 -186 -187h-5c-106 0 -193 63 -193 187zM130 616l48 16c6 -27 25 -60 73 -60h4c45 0 77 26 79 60l46 -18c-4 -49 -50 -96 -121 -96h-4c-67 0 -119 40 -125 98z" />
    <glyph glyph-name="uhungarumlaut" unicode="&#x171;" horiz-adv-x="510" 
d="M63 176v272h74v-269c0 -85 50 -127 119 -127c80 0 114 39 115 141v255h76v-272c0 -116 -74 -187 -186 -187h-5c-106 0 -193 63 -193 187zM445 701l-122 -183l-35 23l97 196zM310 701l-122 -183l-35 23l97 196z" />
    <glyph glyph-name="umacron" unicode="&#x16b;" horiz-adv-x="510" 
d="M63 176v272h74v-269c0 -85 50 -127 119 -127c80 0 114 39 115 141v255h76v-272c0 -116 -74 -187 -186 -187h-5c-106 0 -193 63 -193 187zM133 578h245v-60h-245v60z" />
    <glyph glyph-name="uogonek" unicode="&#x173;" horiz-adv-x="510" 
d="M63 176v272h74v-269c0 -85 50 -127 119 -127c80 0 114 39 115 141v255h76v-272c0 -91 -45 -154 -119 -177c-24 -32 -36 -54 -36 -73c0 -24 13 -38 45 -38c16 0 33 3 51 13v-56c-21 -5 -39 -6 -55 -7c-64 0 -98 20 -98 74c0 24 11 49 35 77h-14c-106 0 -193 63 -193 187z
" />
    <glyph glyph-name="uring" unicode="&#x16f;" horiz-adv-x="510" 
d="M63 176v272h74v-269c0 -85 50 -127 119 -127c80 0 114 39 115 141v255h76v-272c0 -116 -74 -187 -186 -187h-5c-106 0 -193 63 -193 187zM351 611c0 -52 -43 -93 -97 -93c-52 0 -95 40 -95 93c0 50 41 94 95 94c53 0 95 -41 97 -94zM308 611c0 28 -24 51 -54 51
c-28 0 -52 -20 -52 -51c0 -28 22 -52 52 -52c31 0 54 23 54 52z" />
    <glyph glyph-name="utilde" unicode="&#x169;" horiz-adv-x="510" 
d="M323 518h-5c-24 0 -44 8 -67 25c-17 11 -43 30 -65 33h-2c-31 0 -52 -30 -68 -58l-39 30c19 33 58 83 105 84c27 0 49 -8 73 -26c18 -12 48 -32 64 -32h3c24 0 49 22 65 58l45 -30c-14 -42 -66 -84 -109 -84zM63 176v272h74v-269c0 -85 50 -127 119 -127
c80 0 114 39 115 141v255h76v-272c0 -116 -74 -187 -186 -187h-5c-106 0 -193 63 -193 187z" />
    <glyph glyph-name="wacute" unicode="&#x1e83;" horiz-adv-x="698" 
d="M426 718l68 -35l-144 -165l-44 33zM19 448h83l129 -287l117 287l121 -287l128 287h85l-213 -461l-121 290l-117 -290z" />
    <glyph glyph-name="wcircumflex" unicode="&#x175;" horiz-adv-x="698" 
d="M19 448h83l129 -287l117 287l121 -287l128 287h85l-213 -461l-121 290l-117 -290zM318 669l-103 -128l55 -23l81 92l81 -92l54 23l-102 128h-66z" />
    <glyph glyph-name="wdieresis" unicode="&#x1e85;" horiz-adv-x="698" 
d="M433 620c27 0 48 -23 48 -51s-21 -51 -48 -51s-48 23 -48 51s21 51 48 51zM268 620c27 0 48 -23 48 -51s-21 -51 -48 -51s-48 23 -48 51s21 51 48 51zM19 448h83l129 -287l117 287l121 -287l128 287h85l-213 -461l-121 290l-117 -290z" />
    <glyph glyph-name="wgrave" unicode="&#x1e81;" horiz-adv-x="698" 
d="M280 705l110 -157l-40 -30l-130 150zM19 448h83l129 -287l117 287l121 -287l128 287h85l-213 -461l-121 290l-117 -290z" />
    <glyph glyph-name="ycircumflex" unicode="&#x177;" horiz-adv-x="541" 
d="M397 229v219h75v-449c0 -148 -67 -224 -212 -224h-11c-62 0 -129 23 -167 68l55 49c23 -34 64 -56 112 -56c94 0 148 47 148 149v75c-30 -53 -80 -71 -147 -71c-111 0 -189 101 -189 240v219h79v-219c0 -106 44 -170 127 -170c82 0 130 63 130 170zM234 669l-103 -128
l55 -23l81 92l81 -92l54 23l-102 128h-66z" />
    <glyph glyph-name="ygrave" unicode="&#x1ef3;" horiz-adv-x="541" 
d="M196 705l110 -157l-40 -30l-130 150zM397 229v219h75v-449c0 -148 -67 -224 -212 -224h-11c-62 0 -129 23 -167 68l55 49c23 -34 64 -56 112 -56c94 0 148 47 148 149v75c-30 -53 -80 -71 -147 -71c-111 0 -189 101 -189 240v219h79v-219c0 -106 44 -170 127 -170
c82 0 130 63 130 170z" />
    <glyph glyph-name="zacute" unicode="&#x17a;" horiz-adv-x="439" 
d="M44 448h358v-68l-283 -322h283v-58h-367v65l283 324h-274v59zM266 718l68 -35l-144 -165l-44 33z" />
    <glyph glyph-name="zdotaccent" unicode="&#x17c;" horiz-adv-x="439" 
d="M44 448h358v-68l-283 -322h283v-58h-367v65l283 324h-274v59zM223 619c28 0 51 -23 51 -51s-23 -50 -51 -50s-50 22 -50 50s22 51 50 51z" />
    <glyph glyph-name="aeacute" unicode="&#x1fd;" horiz-adv-x="814" 
d="M108 352l-33 58c52 34 107 48 156 48c95 0 121 -22 173 -74c37 39 93 74 153 74h9c121 0 195 -82 205 -211v-27h-346c0 -92 61 -168 143 -168h8c58 0 99 22 133 62l47 -42c-40 -54 -110 -82 -189 -83c-98 1 -147 47 -179 107c-22 -66 -82 -106 -183 -106
c-103 0 -165 49 -165 139c0 102 72 153 208 153h106v7c0 66 -48 106 -131 106c-31 -1 -81 -11 -115 -43zM433 283h261c-13 80 -69 111 -131 111c-63 0 -120 -64 -130 -111zM354 220h-75c-123 0 -161 -20 -161 -86c0 -53 36 -86 97 -86c83 0 139 63 139 160v12zM475 718
l68 -35l-144 -165l-44 33z" />
    <glyph glyph-name="uniF6C3" unicode="&#xf6c3;" horiz-adv-x="206" 
d="M173 -81l-102 -144l-35 23l77 157z" />
    <glyph glyph-name="uni021A" unicode="&#x21a;" horiz-adv-x="519" 
d="M10 700h499v-73h-211v-627h-76v627h-212v73zM339 -77l-122 -173l-35 23l97 186z" />
    <glyph glyph-name="uni021B" unicode="&#x21b;" horiz-adv-x="261" 
d="M168 625v-177h62v-57h-62v-391h-75v391h-62v57h62v177h75zM209 -77l-122 -173l-35 23l97 186z" />
    <glyph glyph-name="uni00AD" unicode="&#xad;" horiz-adv-x="359" 
d="M69 256h221v-66h-221v66z" />
    <glyph glyph-name="uni00A0" unicode="&#xa0;" horiz-adv-x="441" 
 />
    <glyph glyph-name="uni2215" unicode="&#x2215;" horiz-adv-x="457" 
d="M432 700l-374 -700h-40l375 700h39z" />
    <glyph glyph-name="uni2219" unicode="&#x2219;" horiz-adv-x="257" 
d="M127 458c41 0 75 -34 75 -75s-34 -75 -75 -75s-75 34 -75 75s34 75 75 75z" />
    <glyph glyph-name="uni2010" unicode="&#x2010;" horiz-adv-x="359" 
d="M69 256h221v-66h-221v66z" />
    <glyph glyph-name="uni2011" unicode="&#x2011;" horiz-adv-x="359" 
d="M69 256h221v-66h-221v66z" />
    <glyph glyph-name="afii00208" unicode="&#x2015;" horiz-adv-x="2000" 
d="M78 256h1844v-66h-1844v66z" />
    <glyph glyph-name="uni201F" unicode="&#x201f;" horiz-adv-x="411" 
d="M152 700v-69l33 -128h-54l-66 128v69h87zM319 700v-69l34 -128h-53l-67 128v69h86z" />
    <glyph glyph-name="uni201B" unicode="&#x201b;" horiz-adv-x="244" 
d="M152 700v-69l33 -128h-54l-66 128v69h87z" />
    <glyph glyph-name="uni2000" unicode="&#x2000;" horiz-adv-x="500" 
 />
    <glyph glyph-name="uni2001" unicode="&#x2001;" horiz-adv-x="1000" 
 />
    <glyph glyph-name="uni2002" unicode="&#x2002;" horiz-adv-x="500" 
 />
    <glyph glyph-name="uni2003" unicode="&#x2003;" horiz-adv-x="1000" 
 />
    <glyph glyph-name="uni2004" unicode="&#x2004;" horiz-adv-x="333" 
 />
    <glyph glyph-name="uni2005" unicode="&#x2005;" horiz-adv-x="250" 
 />
    <glyph glyph-name="uni2006" unicode="&#x2006;" horiz-adv-x="166" 
 />
    <glyph glyph-name="uni2007" unicode="&#x2007;" horiz-adv-x="571" 
 />
    <glyph glyph-name="uni2008" unicode="&#x2008;" horiz-adv-x="236" 
 />
    <glyph glyph-name="uni2009" unicode="&#x2009;" horiz-adv-x="100" 
 />
    <glyph glyph-name="uni200A" unicode="&#x200a;" horiz-adv-x="10" 
 />
    <glyph glyph-name="uni0237" unicode="&#x237;" horiz-adv-x="214" 
d="M69 448h76v-673h-76v673z" />
    <glyph glyph-name="uni030F" unicode="&#x30f;" horiz-adv-x="365" 
d="M34 677l60 36l97 -196l-35 -23zM169 677l60 36l97 -196l-35 -23z" />
    <glyph glyph-name="uni021E" unicode="&#x21e;" horiz-adv-x="606" 
d="M69 700h76v-289h315v289h77v-700h-77v338h-315v-338h-76v700zM274 771l-94 116l50 21l74 -84l73 84l49 -21l-92 -116h-60z" />
    <glyph glyph-name="uni021F" unicode="&#x21f;" horiz-adv-x="517" 
d="M454 270v-270h-76v267c0 85 -34 126 -102 127c-82 0 -129 -53 -131 -142v-252h-76v750h76v-373c36 54 83 81 148 81c104 0 161 -64 161 -188zM80 803l-94 116l50 21l74 -84l74 84l48 -21l-92 -116h-60z" />
    <glyph glyph-name="uni0200" unicode="&#x200;" horiz-adv-x="572" 
d="M285 711l282 -711h-80l-70 181h-261l-71 -181h-80zM285 513l-99 -260h201zM96 954l60 36l96 -196l-34 -23zM230 954l60 36l98 -196l-36 -23z" />
    <glyph glyph-name="uni0201" unicode="&#x201;" 
d="M124 222c0 -106 46 -174 128 -174c81 0 130 67 130 174s-49 174 -130 174c-78 0 -128 -63 -128 -174zM382 379v69h75v-448h-75v65c-30 -50 -77 -75 -147 -75c-111 0 -189 91 -189 232s77 236 189 236c66 0 115 -24 147 -79zM46 701l60 36l96 -196l-34 -23zM180 701l60 36
l98 -196l-36 -23z" />
    <glyph glyph-name="uni0202" unicode="&#x202;" horiz-adv-x="572" 
d="M285 711l282 -711h-80l-70 181h-261l-71 -181h-80zM285 513l-99 -260h201zM160 787l48 -16c6 27 25 60 73 60h4c45 0 77 -26 79 -60l46 18c-4 49 -50 96 -121 96h-4c-67 0 -119 -40 -125 -98z" />
    <glyph glyph-name="uni0203" unicode="&#x203;" 
d="M124 222c0 -106 46 -174 128 -174c81 0 130 67 130 174s-49 174 -130 174c-78 0 -128 -63 -128 -174zM382 379v69h75v-448h-75v65c-30 -50 -77 -75 -147 -75c-111 0 -189 91 -189 232s77 236 189 236c66 0 115 -24 147 -79zM110 534l48 -16c6 27 25 60 73 60h4
c45 0 77 -26 79 -60l46 18c-4 49 -50 96 -121 96h-4c-67 0 -119 -40 -125 -98z" />
    <glyph glyph-name="uni0204" unicode="&#x204;" horiz-adv-x="492" 
d="M69 700h387v-73h-310v-179h310v-73h-310v-304h318v-71h-395v700zM73 954l60 36l97 -196l-35 -23zM208 954l60 36l97 -196l-35 -23z" />
    <glyph glyph-name="uni0205" unicode="&#x205;" horiz-adv-x="504" 
d="M264 458h4c121 0 195 -82 205 -211v-27h-351c0 -92 66 -168 148 -168h8c58 0 99 22 133 62l47 -42c-40 -54 -110 -82 -189 -83c-125 0 -225 101 -225 232c0 133 95 237 220 237zM130 283h266c-13 80 -69 111 -131 111c-63 0 -125 -64 -135 -111zM79 701l60 36l97 -196
l-35 -23zM214 701l60 36l97 -196l-35 -23z" />
    <glyph glyph-name="uni0206" unicode="&#x206;" horiz-adv-x="492" 
d="M69 700h387v-73h-310v-179h310v-73h-310v-304h318v-71h-395v700zM138 787l48 -16c6 27 25 60 72 60h4c46 0 78 -26 80 -60l46 18c-4 49 -50 96 -122 96h-4c-66 0 -118 -40 -124 -98z" />
    <glyph glyph-name="uni0207" unicode="&#x207;" horiz-adv-x="504" 
d="M143 534l48 -16c6 27 25 60 73 60h4c45 0 77 -26 79 -60l46 18c-4 49 -50 96 -121 96h-4c-67 0 -119 -40 -125 -98zM264 458h4c121 0 195 -82 205 -211v-27h-351c0 -92 66 -168 148 -168h8c58 0 99 22 133 62l47 -42c-40 -54 -110 -82 -189 -83c-125 0 -225 101 -225 232
c0 133 95 237 220 237zM130 283h266c-13 80 -69 111 -131 111c-63 0 -125 -64 -135 -111z" />
    <glyph glyph-name="uni0208" unicode="&#x208;" horiz-adv-x="237" 
d="M82 700h77v-700h-77v700zM-69 954l60 36l97 -196l-35 -23zM66 954l60 36l97 -196l-35 -23z" />
    <glyph glyph-name="uni0209" unicode="&#x209;" horiz-adv-x="215" 
d="M72 448h76v-448h-76v448zM-80 701l60 36l97 -196l-35 -23zM55 701l60 36l97 -196l-35 -23z" />
    <glyph glyph-name="uni020A" unicode="&#x20a;" horiz-adv-x="215" 
d="M69 700h77v-700h-77v700zM-18 787l48 -16c6 27 25 60 74 60h4c44 0 76 -26 78 -60l46 18c-4 49 -50 96 -120 96h-4c-68 0 -120 -40 -126 -98z" />
    <glyph glyph-name="uni020B" unicode="&#x20b;" horiz-adv-x="214" 
d="M69 448h76v-448h-76v448zM-18 534l48 -16c6 27 25 60 73 60h4c45 0 77 -26 79 -60l46 18c-4 49 -50 96 -121 96h-4c-67 0 -119 -40 -125 -98z" />
    <glyph glyph-name="uni020C" unicode="&#x20c;" horiz-adv-x="749" 
d="M374 711c194 0 326 -143 326 -364c0 -219 -125 -359 -326 -359c-199 0 -327 139 -327 359s130 364 327 364zM374 645c-143 0 -255 -110 -255 -298c0 -183 107 -297 255 -297c144 0 254 110 254 297c0 182 -106 298 -254 298zM184 954l60 36l98 -196l-36 -23zM320 954
l60 36l96 -196l-34 -23z" />
    <glyph glyph-name="uni020D" unicode="&#x20d;" horiz-adv-x="538" 
d="M270 394c-82 0 -148 -80 -148 -173s66 -169 148 -169c81 0 147 76 147 169s-66 173 -147 173zM269 458c124 0 224 -103 224 -236c0 -131 -100 -233 -224 -233c-125 0 -227 101 -227 232c0 133 102 237 227 237zM80 701l60 36l96 -196l-34 -23zM214 701l60 36l98 -196
l-36 -23z" />
    <glyph glyph-name="uni020E" unicode="&#x20e;" horiz-adv-x="749" 
d="M374 711c194 0 326 -143 326 -364c0 -219 -125 -359 -326 -359c-199 0 -327 139 -327 359s130 364 327 364zM374 645c-143 0 -255 -110 -255 -298c0 -183 107 -297 255 -297c144 0 254 110 254 297c0 182 -106 298 -254 298zM249 787l48 -16c6 27 25 60 73 60h4
c45 0 77 -26 79 -60l46 18c-4 49 -50 96 -121 96h-4c-67 0 -119 -40 -125 -98z" />
    <glyph glyph-name="uni020F" unicode="&#x20f;" horiz-adv-x="538" 
d="M270 394c-82 0 -148 -80 -148 -173s66 -169 148 -169c81 0 147 76 147 169s-66 173 -147 173zM269 458c124 0 224 -103 224 -236c0 -131 -100 -233 -224 -233c-125 0 -227 101 -227 232c0 133 102 237 227 237zM144 534l48 -16c6 27 25 60 73 60h4c45 0 77 -26 79 -60
l46 18c-4 49 -50 96 -121 96h-4c-67 0 -119 -40 -125 -98z" />
    <glyph glyph-name="uni0210" unicode="&#x210;" horiz-adv-x="499" 
d="M69 700h183c121 0 199 -63 199 -197c-7 -119 -60 -167 -133 -189l159 -314h-83l-156 300h-92v-300h-77v700zM146 631v-261h103c85 0 129 47 129 133c0 85 -43 126 -129 128h-103zM65 954l60 36l97 -196l-35 -23zM200 954l60 36l97 -196l-35 -23z" />
    <glyph glyph-name="uni0211" unicode="&#x211;" horiz-adv-x="364" 
d="M22 701l60 36l96 -196l-34 -23zM156 701l60 36l98 -196l-36 -23zM353 444l-26 -68c-17 10 -29 17 -50 17c-86 0 -130 -57 -132 -158v-235h-76v448h76v-71c32 55 81 81 155 81c9 0 35 -4 53 -14z" />
    <glyph glyph-name="uni0212" unicode="&#x212;" horiz-adv-x="499" 
d="M103 787l48 -16c6 27 25 60 73 60h4c45 0 77 -26 79 -60l46 18c-4 49 -50 96 -121 96h-4c-67 0 -119 -40 -125 -98zM69 700h183c121 0 199 -63 199 -197c-7 -119 -60 -167 -133 -189l159 -314h-83l-156 300h-92v-300h-77v700zM146 631v-261h103c85 0 129 47 129 133
c0 85 -43 126 -129 128h-103z" />
    <glyph glyph-name="uni0213" unicode="&#x213;" horiz-adv-x="364" 
d="M86 534l48 -16c6 27 25 60 73 60h4c45 0 77 -26 79 -60l46 18c-4 49 -50 96 -121 96h-4c-67 0 -119 -40 -125 -98zM353 444l-26 -68c-17 10 -29 17 -50 17c-86 0 -130 -57 -132 -158v-235h-76v448h76v-71c32 55 81 81 155 81c9 0 35 -4 53 -14z" />
    <glyph glyph-name="uni0214" unicode="&#x214;" horiz-adv-x="596" 
d="M63 700h77v-429c0 -155 44 -222 159 -222c111 0 160 66 160 222v429h74v-441c0 -181 -80 -271 -234 -271c-153 0 -236 88 -236 271v441zM108 954l60 36l98 -196l-36 -23zM244 954l60 36l96 -196l-34 -23z" />
    <glyph glyph-name="uni0215" unicode="&#x215;" horiz-adv-x="510" 
d="M63 176v272h74v-269c0 -85 50 -127 119 -127c80 0 114 39 115 141v255h76v-272c0 -116 -74 -187 -186 -187h-5c-106 0 -193 63 -193 187zM66 701l60 36l96 -196l-34 -23zM200 701l60 36l98 -196l-36 -23z" />
    <glyph glyph-name="uni0216" unicode="&#x216;" horiz-adv-x="596" 
d="M63 700h77v-429c0 -155 44 -222 159 -222c111 0 160 66 160 222v429h74v-441c0 -181 -80 -271 -234 -271c-153 0 -236 88 -236 271v441zM173 787l48 -16c6 27 25 60 73 60h4c45 0 77 -26 79 -60l46 18c-4 49 -50 96 -121 96h-4c-67 0 -119 -40 -125 -98z" />
    <glyph glyph-name="uni0217" unicode="&#x217;" horiz-adv-x="510" 
d="M63 176v272h74v-269c0 -85 50 -127 119 -127c80 0 114 39 115 141v255h76v-272c0 -116 -74 -187 -186 -187h-5c-106 0 -193 63 -193 187zM130 534l48 -16c6 27 25 60 73 60h4c45 0 77 -26 79 -60l46 18c-4 49 -50 96 -121 96h-4c-67 0 -119 -40 -125 -98z" />
    <glyph glyph-name="uni01F8" unicode="&#x1f8;" horiz-adv-x="599" 
d="M71 711l388 -501v490h76v-711l-388 497v-486h-76v711zM263 958l110 -157l-40 -30l-131 150z" />
    <glyph glyph-name="uni01F9" unicode="&#x1f9;" horiz-adv-x="517" 
d="M454 270v-270h-76v267c0 85 -34 126 -102 127c-82 0 -129 -53 -131 -142v-252h-76v448h76v-71c36 54 83 81 148 81c104 0 161 -64 161 -188zM192 705l110 -157l-40 -30l-131 150z" />
    <glyph glyph-name="uni01F0" unicode="&#x1f0;" horiz-adv-x="214" 
d="M69 448h76v-673h-76v673zM78 518l-94 116l50 21l74 -84l73 84l49 -21l-92 -116h-60z" />
    <glyph glyph-name="uni01F1" unicode="&#x1f1;" horiz-adv-x="1159" 
d="M69 703h171c235 0 345 -107 345 -352c0 -242 -107 -351 -345 -351h-171v703zM146 634v-567h106c176 0 255 89 255 284c0 194 -79 283 -255 283h-106zM652 700h481l-361 -629h370v-71h-499l360 626h-351v74z" />
    <glyph glyph-name="uni01F2" unicode="&#x1f2;" horiz-adv-x="1067" 
d="M69 703h171c235 0 345 -107 345 -352c0 -242 -107 -351 -345 -351h-171v703zM146 634v-567h106c176 0 255 89 255 284c0 194 -79 283 -255 283h-106zM672 448h358v-68l-283 -322h283v-58h-367v65l283 324h-274v59z" />
    <glyph glyph-name="uni01F3" unicode="&#x1f3;" horiz-adv-x="965" 
d="M124 222c0 -106 46 -174 128 -174c81 0 130 67 130 174s-49 174 -130 174c-78 0 -128 -63 -128 -174zM382 379v371h75v-750h-75v65c-30 -50 -77 -75 -147 -75c-111 0 -189 91 -189 232s77 236 189 236c66 0 115 -24 147 -79zM570 448h358v-68l-283 -322h283v-58h-367v65
l283 324h-274v59z" />
    <glyph glyph-name="uni01F4" unicode="&#x1f4;" horiz-adv-x="626" 
d="M501 90v200h-137v70h213v-304c-65 -47 -141 -68 -229 -68c-192 0 -307 130 -307 361s116 362 307 362c77 0 148 -21 210 -61l-41 -59c-50 36 -104 54 -163 54c-154 0 -236 -96 -236 -296c0 -193 79 -293 236 -293c64 0 111 10 147 34zM424 971l68 -35l-144 -165l-44 33z
" />
    <glyph glyph-name="uni01F5" unicode="&#x1f5;" 
d="M457 0c0 -149 -67 -225 -212 -225h-12c-62 0 -128 22 -166 68l55 49c23 -34 64 -56 112 -56c94 0 148 47 148 149v93c-30 -53 -80 -78 -147 -78c-111 0 -189 90 -189 229c0 135 75 229 189 229c67 0 114 -24 147 -79v69h75v-448zM382 229c0 104 -46 167 -130 167
c-79 0 -127 -60 -127 -167c0 -106 44 -169 127 -169c82 0 130 62 130 169zM311 718l68 -35l-144 -165l-44 33z" />
    <glyph glyph-name="uni1E02" unicode="&#x1e02;" horiz-adv-x="545" 
d="M69 700h212c121 0 197 -62 197 -171c0 -87 -35 -137 -108 -150c83 -21 134 -87 134 -186c0 -125 -77 -193 -214 -193h-221v700zM145 631v-223h130c84 0 129 32 129 111c0 72 -40 110 -129 112h-130zM145 341v-274h140c94 0 141 42 141 137c0 91 -46 137 -141 137h-140z
M286 872c28 0 51 -23 51 -51s-23 -50 -51 -50s-50 22 -50 50s22 51 50 51z" />
    <glyph glyph-name="uni1E03" unicode="&#x1e03;" horiz-adv-x="528" 
d="M274 911c28 0 50 -23 50 -51s-22 -50 -50 -50s-50 22 -50 50s22 51 50 51zM145 379c32 53 77 79 146 79c112 0 188 -95 188 -236c0 -138 -75 -232 -188 -232c-66 0 -111 20 -146 75v-65h-76v750h76v-371zM402 222c0 107 -49 174 -128 174c-78 0 -129 -63 -129 -174
c0 -104 45 -174 129 -174c79 0 128 67 128 174z" />
    <glyph glyph-name="uni1E0A" unicode="&#x1e0a;" horiz-adv-x="628" 
d="M326 872c28 0 52 -23 52 -51s-24 -50 -52 -50s-50 22 -50 50s22 51 50 51zM69 703h171c235 0 345 -107 345 -352c0 -242 -107 -351 -345 -351h-171v703zM146 634v-567h106c176 0 255 89 255 284c0 194 -79 283 -255 283h-106z" />
    <glyph glyph-name="uni1E0B" unicode="&#x1e0b;" 
d="M251 911c28 0 51 -23 51 -51s-23 -50 -51 -50s-50 22 -50 50s22 51 50 51zM124 222c0 -106 46 -174 128 -174c81 0 130 67 130 174s-49 174 -130 174c-78 0 -128 -63 -128 -174zM382 379v371h75v-750h-75v65c-30 -50 -77 -75 -147 -75c-111 0 -189 91 -189 232
s77 236 189 236c66 0 115 -24 147 -79z" />
    <glyph glyph-name="uni1E1E" unicode="&#x1e1e;" horiz-adv-x="444" 
d="M244 872c28 0 51 -23 51 -51s-23 -50 -51 -50s-50 22 -50 50s22 51 50 51zM69 700h351v-73h-274v-179h274v-72h-274v-376h-77v700z" />
    <glyph glyph-name="uni1E1F" unicode="&#x1e1f;" horiz-adv-x="283" 
d="M233 911c28 0 51 -23 51 -51s-23 -50 -51 -50s-50 22 -50 50s22 51 50 51zM320 750v-62h-72c-56 0 -70 -38 -72 -94v-146h83v-57h-83v-391h-76v391h-72v57h72v138c0 101 46 162 149 164h71z" />
    <glyph glyph-name="uni1E40" unicode="&#x1e40;" horiz-adv-x="772" 
d="M386 872c28 0 50 -23 50 -51s-22 -50 -50 -50s-50 22 -50 50s22 51 50 51zM14 0l193 711l179 -508l179 508l192 -711h-82l-125 460l-166 -460l-163 460l-125 -460h-82z" />
    <glyph glyph-name="uni1E41" unicode="&#x1e41;" horiz-adv-x="803" 
d="M440 619c28 0 51 -23 51 -51s-23 -50 -51 -50s-50 22 -50 50s22 51 50 51zM430 361c35 64 88 97 159 97c96 0 151 -67 151 -188v-270h-76v267c0 84 -30 127 -95 127c-78 0 -125 -53 -127 -142v-252h-75v267c0 85 -30 127 -96 127c-78 0 -124 -56 -126 -142v-252h-76v448
h76v-71c36 55 79 81 147 81c67 0 113 -34 138 -97z" />
    <glyph glyph-name="uni1E56" unicode="&#x1e56;" horiz-adv-x="492" 
d="M234 872c28 0 52 -23 52 -51s-24 -50 -52 -50s-50 22 -50 50s22 51 50 51zM69 700h180c134 0 215 -60 215 -201c0 -135 -78 -199 -215 -199h-103v-300h-77v700zM146 631v-264h103c81 0 138 41 138 132c0 90 -53 130 -138 132h-103z" />
    <glyph glyph-name="uni1E57" unicode="&#x1e57;" horiz-adv-x="528" 
d="M290 619c28 0 52 -23 52 -51s-24 -50 -52 -50s-50 22 -50 50s22 51 50 51zM402 222c0 107 -49 174 -128 174c-78 0 -129 -63 -129 -174c0 -104 45 -174 129 -174c79 0 128 67 128 174zM145 65v-290h-76v673h76v-69c32 53 77 79 146 79c112 0 188 -95 188 -236
c0 -138 -75 -232 -188 -232c-66 0 -111 20 -146 75z" />
    <glyph glyph-name="uni1E60" unicode="&#x1e60;" horiz-adv-x="500" 
d="M254 872c28 0 52 -23 52 -51s-24 -50 -52 -50s-50 22 -50 50s22 51 50 51zM444 626l-48 -56c-38 46 -76 75 -131 75c-93 0 -140 -40 -141 -126c1 -61 31 -95 116 -114l51 -12c122 -29 176 -90 176 -204c0 -133 -81 -201 -234 -201c-58 0 -139 28 -195 76l50 62
c48 -48 99 -68 145 -71c97 0 157 39 157 126c0 71 -29 112 -122 132l-52 12c-117 27 -165 91 -166 189c0 120 70 197 205 197c82 -1 141 -33 189 -85z" />
    <glyph glyph-name="uni1E61" unicode="&#x1e61;" horiz-adv-x="411" 
d="M218 619c28 0 52 -23 52 -51s-24 -50 -52 -50s-50 22 -50 50s22 51 50 51zM355 400l-43 -49c-29 27 -55 44 -96 44c-50 0 -88 -26 -88 -73c3 -44 52 -60 103 -71c66 -17 140 -53 140 -127c0 -108 -88 -135 -174 -135c-54 0 -118 25 -155 71l55 47c26 -36 64 -55 102 -55
c67 0 93 10 95 56c0 54 -33 64 -92 79c-92 25 -141 58 -143 132c0 83 62 139 160 139c46 0 90 -16 136 -58z" />
    <glyph glyph-name="uni1E6A" unicode="&#x1e6a;" horiz-adv-x="519" 
d="M259 872c28 0 51 -23 51 -51s-23 -50 -51 -50s-50 22 -50 50s22 51 50 51zM10 700h499v-73h-211v-627h-76v627h-212v73z" />
    <glyph glyph-name="uni1E6B" unicode="&#x1e6b;" horiz-adv-x="261" 
d="M130 786c28 0 50 -23 50 -51s-22 -50 -50 -50s-50 22 -50 50s22 51 50 51zM168 625v-177h62v-57h-62v-391h-75v391h-62v57h62v177h75z" />
    <glyph glyph-name="uni01DE" unicode="&#x1de;" horiz-adv-x="572" 
d="M285 711l282 -711h-80l-70 181h-261l-71 -181h-80zM285 513l-99 -260h201zM159 990h245v-60h-245v60zM364 870c27 0 48 -23 48 -51s-21 -51 -48 -51s-48 23 -48 51s21 51 48 51zM199 870c27 0 48 -23 48 -51s-21 -51 -48 -51s-48 23 -48 51s21 51 48 51z" />
    <glyph glyph-name="uni01DF" unicode="&#x1df;" 
d="M124 222c0 -106 46 -174 128 -174c81 0 130 67 130 174s-49 174 -130 174c-78 0 -128 -63 -128 -174zM382 379v69h75v-448h-75v65c-30 -50 -77 -75 -147 -75c-111 0 -189 91 -189 232s77 236 189 236c66 0 115 -24 147 -79zM138 760h245v-60h-245v60zM343 640
c27 0 48 -23 48 -51s-21 -51 -48 -51s-48 23 -48 51s21 51 48 51zM178 640c27 0 48 -23 48 -51s-21 -51 -48 -51s-48 23 -48 51s21 51 48 51z" />
    <glyph glyph-name="uni01E2" unicode="&#x1e2;" horiz-adv-x="860" 
d="M298 831h246v-60h-246v60zM850 0h-368l-70 181h-256l-71 -181h-80l280 711l4 -11h308l30 -73h-308l69 -179h310l29 -73h-306l115 -304h286zM285 513l-99 -260h201z" />
    <glyph glyph-name="uni01E3" unicode="&#x1e3;" horiz-adv-x="814" 
d="M108 352l-33 58c52 34 107 48 156 48c95 0 121 -22 173 -74c37 39 93 74 153 74h9c121 0 195 -82 205 -211v-27h-346c0 -92 61 -168 143 -168h8c58 0 99 22 133 62l47 -42c-40 -54 -110 -82 -189 -83c-98 1 -147 47 -179 107c-22 -66 -82 -106 -183 -106
c-103 0 -165 49 -165 139c0 102 72 153 208 153h106v7c0 66 -48 106 -131 106c-31 -1 -81 -11 -115 -43zM433 283h261c-13 80 -69 111 -131 111c-63 0 -120 -64 -130 -111zM354 220h-75c-123 0 -161 -20 -161 -86c0 -53 36 -86 97 -86c83 0 139 63 139 160v12zM276 578h245
v-60h-245v60z" />
    <glyph glyph-name="uni2080" unicode="&#x2080;" horiz-adv-x="272" 
d="M136 280c67 0 106 -62 106 -182c0 -118 -38 -179 -106 -179s-106 60 -106 179s36 182 106 182zM136 248c-46 0 -70 -49 -70 -150c0 -100 24 -150 70 -150c45 0 69 48 69 150c0 101 -23 150 -69 150z" />
    <glyph glyph-name="uni2081" unicode="&#x2081;" horiz-adv-x="149" 
d="M119 275v-350h-40v311h-49l17 39h72z" />
    <glyph glyph-name="uni2082" unicode="&#x2082;" horiz-adv-x="254" 
d="M76 -36h148v-36h-193v36l118 136c27 32 37 56 37 82c0 39 -26 68 -66 68h-1c-31 0 -53 -21 -54 -42h-35c0 42 44 76 89 76c60 0 103 -36 103 -100c0 -39 -17 -72 -35 -93z" />
    <glyph glyph-name="uni2083" unicode="&#x2083;" horiz-adv-x="269" 
d="M30 -5h40c8 -30 31 -47 64 -47c41 0 68 27 68 73c0 43 -24 72 -65 72v34c35 0 59 21 59 59c0 39 -23 62 -62 62c-31 0 -52 -16 -58 -45h-40c5 48 41 77 98 77c58 0 98 -32 98 -90c0 -39 -21 -68 -58 -79c40 -11 64 -43 65 -90c0 -66 -37 -102 -105 -102
c-59 0 -97 25 -104 76z" />
    <glyph glyph-name="uni2084" unicode="&#x2084;" horiz-adv-x="283" 
d="M208 284v-244h45v-36h-45v-76h-38v76h-140zM170 170l-79 -130h79v130z" />
    <glyph glyph-name="uni2085" unicode="&#x2085;" horiz-adv-x="259" 
d="M91 272h138l-8 -36h-107l-26 -89c14 3 15 3 28 4c67 0 112 -43 112 -119c0 -74 -43 -116 -118 -116c-24 0 -54 12 -80 39l20 28c18 -21 39 -33 59 -35c50 0 82 32 82 84s-32 85 -82 85c-22 0 -43 -7 -67 -19z" />
    <glyph glyph-name="uni2086" unicode="&#x2086;" horiz-adv-x="285" 
d="M143 122c-40 0 -73 -40 -73 -86c0 -47 33 -85 73 -85c41 0 74 38 74 85c0 46 -33 86 -74 86zM143 154c62 0 112 -51 112 -118c0 -65 -50 -116 -112 -116c-63 0 -113 50 -113 116c0 27 9 56 21 74l126 171l29 -18l-85 -114c5 2 15 5 22 5z" />
    <glyph glyph-name="uni2087" unicode="&#x2087;" horiz-adv-x="258" 
d="M30 275h198l-118 -350h-40l105 313h-145v37z" />
    <glyph glyph-name="uni2088" unicode="&#x2088;" horiz-adv-x="271" 
d="M77 187c0 -39 21 -62 59 -62c37 0 59 23 59 62s-20 61 -59 61c-38 0 -59 -21 -59 -61zM93 111c-35 9 -52 40 -52 81c0 55 34 88 95 88c58 0 95 -30 95 -88c0 -40 -16 -70 -53 -81c40 -11 62 -43 63 -90c0 -66 -37 -102 -105 -102c-67 0 -106 33 -106 102
c0 45 22 79 63 90zM136 94c-42 0 -68 -26 -68 -73c0 -45 25 -73 68 -73c41 0 68 27 68 73c0 45 -24 73 -68 73z" />
    <glyph glyph-name="uni2089" unicode="&#x2089;" horiz-adv-x="285" 
d="M142 77c40 0 73 40 73 87c0 46 -33 84 -73 84c-41 0 -74 -38 -74 -84c0 -47 33 -87 74 -87zM142 45c-62 0 -112 51 -112 118c0 65 50 117 112 117c63 0 113 -51 113 -116c0 -28 -7 -56 -21 -75l-127 -171l-29 18l86 114c-6 -2 -13 -4 -22 -5z" />
    <glyph glyph-name="uni208A" unicode="&#x208a;" horiz-adv-x="253" 
d="M143 134v-85h80v-38h-80v-85h-35v85h-78v38h78v85h35z" />
    <glyph glyph-name="uni208D" unicode="&#x208d;" horiz-adv-x="155" 
d="M125 245c-36 -69 -54 -141 -54 -209s17 -134 54 -201h-33c-41 66 -62 134 -62 201c0 65 21 138 62 209h33z" />
    <glyph glyph-name="uni208E" unicode="&#x208e;" horiz-adv-x="155" 
d="M30 245h33c40 -69 62 -143 62 -209s-21 -134 -62 -201h-33c36 65 54 132 54 201c0 67 -17 141 -54 209z" />
    <glyph glyph-name="uni208C" unicode="&#x208c;" horiz-adv-x="324" 
d="M30 -18h264v-34h-264v34zM30 63h264v-34h-264v34z" />
    <glyph glyph-name="uni208B" unicode="&#x208b;" horiz-adv-x="253" 
d="M30 49h193v-38h-193v38z" />
    <glyph glyph-name="uni2070" unicode="&#x2070;" horiz-adv-x="272" 
d="M136 805c67 0 106 -62 106 -182c0 -118 -38 -179 -106 -179s-106 60 -106 179s36 182 106 182zM136 773c-46 0 -70 -49 -70 -150c0 -100 24 -150 70 -150c45 0 69 48 69 150c0 101 -23 150 -69 150z" />
    <glyph glyph-name="uni2074" unicode="&#x2074;" horiz-adv-x="283" 
d="M208 809v-244h45v-36h-45v-76h-38v76h-140zM170 695l-79 -130h79v130z" />
    <glyph glyph-name="uni2075" unicode="&#x2075;" horiz-adv-x="259" 
d="M91 797h138l-8 -36h-107l-26 -89c14 3 15 3 28 4c67 0 112 -43 112 -119c0 -74 -43 -116 -118 -116c-24 0 -54 12 -80 39l20 28c18 -21 39 -33 59 -35c50 0 82 32 82 84s-32 85 -82 85c-22 0 -43 -7 -67 -19z" />
    <glyph glyph-name="uni2076" unicode="&#x2076;" horiz-adv-x="285" 
d="M143 647c-40 0 -73 -40 -73 -86c0 -47 33 -85 73 -85c41 0 74 38 74 85c0 46 -33 86 -74 86zM143 679c62 0 112 -51 112 -118c0 -65 -50 -116 -112 -116c-63 0 -113 50 -113 116c0 27 9 56 21 74l126 171l29 -18l-85 -114c5 2 15 5 22 5z" />
    <glyph glyph-name="uni2077" unicode="&#x2077;" horiz-adv-x="258" 
d="M30 800h198l-118 -350h-40l105 313h-145v37z" />
    <glyph glyph-name="uni2078" unicode="&#x2078;" horiz-adv-x="271" 
d="M77 712c0 -39 21 -62 59 -62c37 0 59 23 59 62s-20 61 -59 61c-38 0 -59 -21 -59 -61zM93 636c-35 9 -52 40 -52 81c0 55 34 88 95 88c58 0 95 -30 95 -88c0 -40 -16 -70 -53 -81c40 -11 62 -43 63 -90c0 -66 -37 -102 -105 -102c-67 0 -106 33 -106 102
c0 45 22 79 63 90zM136 619c-42 0 -68 -26 -68 -73c0 -45 25 -73 68 -73c41 0 68 27 68 73c0 45 -24 73 -68 73z" />
    <glyph glyph-name="uni2079" unicode="&#x2079;" horiz-adv-x="285" 
d="M142 602c40 0 73 40 73 87c0 46 -33 84 -73 84c-41 0 -74 -38 -74 -84c0 -47 33 -87 74 -87zM142 570c-62 0 -112 51 -112 118c0 65 50 117 112 117c63 0 113 -51 113 -116c0 -28 -7 -56 -21 -75l-127 -171l-29 18l86 114c-6 -2 -13 -4 -22 -5z" />
    <glyph glyph-name="uni207A" unicode="&#x207a;" horiz-adv-x="253" 
d="M143 659v-85h80v-38h-80v-85h-35v85h-78v38h78v85h35z" />
    <glyph glyph-name="uni207B" unicode="&#x207b;" horiz-adv-x="253" 
d="M30 574h193v-38h-193v38z" />
    <glyph glyph-name="uni207C" unicode="&#x207c;" horiz-adv-x="324" 
d="M30 507h264v-34h-264v34zM30 588h264v-34h-264v34z" />
    <glyph glyph-name="uni207D" unicode="&#x207d;" horiz-adv-x="155" 
d="M125 770c-36 -69 -54 -141 -54 -209s17 -134 54 -201h-33c-41 66 -62 134 -62 201c0 65 21 138 62 209h33z" />
    <glyph glyph-name="uni207E" unicode="&#x207e;" horiz-adv-x="155" 
d="M30 770h33c40 -69 62 -143 62 -209s-21 -134 -62 -201h-33c36 65 54 132 54 201c0 67 -17 141 -54 209z" />
    <glyph glyph-name="uni207F" unicode="&#x207f;" horiz-adv-x="296" 
d="M245 594v-134h-38v133c0 43 -17 63 -51 63c-41 0 -65 -26 -66 -70v-126h-38v224h38v-36c18 27 42 40 74 40c52 0 81 -32 81 -94z" />
    </font>
</defs>
</svg>
