<svg xmlns="http://www.w3.org/2000/svg" viewBox="0 0 160.24 38.88"><defs><style>.cls-1{fill:#ec2226;}</style></defs><title>Linuxjobber-logo-red</title><g id="Layer_2" data-name="Layer 2"><g id="Layer_1-2" data-name="Layer 1"><path class="cls-1" d="M38.6,11.07h2.46V22.51h5.55v2.07h-8Z"/><path class="cls-1" d="M51,11.07V24.58H48.48V11.07Z"/><path class="cls-1" d="M53.76,24.58V11.07h2.82l3.49,5.79a41.14,41.14,0,0,1,2.3,4.53h0a55.14,55.14,0,0,1-.22-5.61V11.07h2.29V24.58H61.91l-3.53-6A46.44,46.44,0,0,1,56,14l-.08,0c.1,1.74.14,3.52.14,5.75v4.83Z"/><path class="cls-1" d="M69.77,11.07V19c0,2.64,1.11,3.87,2.77,3.87s2.84-1.23,2.84-3.87V11.07h2.47v7.72c0,4.16-2.15,6-5.39,6s-5.15-1.75-5.15-6V11.07Z"/><path class="cls-1" d="M87.89,24.58l-1.44-2.69c-.58-1-1-1.76-1.36-2.54h0c-.32.78-.68,1.5-1.22,2.54l-1.35,2.69H79.66l4-6.84L79.8,11.07h2.85l1.46,2.79c.44.84.76,1.5,1.1,2.26h.06c.36-.84.64-1.44,1.06-2.26l1.45-2.79H90.6l-3.95,6.59,4.11,6.92Z"/><path class="cls-1" d="M95.14,11.07h3v8.54c0,3.84-1.84,5.19-4.79,5.19a8,8,0,0,1-2.24-.32L91.49,22a5,5,0,0,0,1.56.24c1.28,0,2.09-.58,2.09-2.66Z"/><path class="cls-1" d="M113.09,17.69c0,4.44-2.66,7.11-6.63,7.11s-6.35-3-6.35-6.9c0-4,2.6-7.07,6.57-7.07C110.83,10.83,113.09,13.94,113.09,17.69Zm-9.75.16c0,2.66,1.24,4.52,3.28,4.52s3.25-2,3.25-4.59c0-2.44-1.14-4.53-3.25-4.53S103.34,15.22,103.34,17.85Z"/><path class="cls-1" d="M115.11,11.25a26.63,26.63,0,0,1,4-.28,7.57,7.57,0,0,1,4,.76,3,3,0,0,1,1.61,2.67,3.07,3.07,0,0,1-2.23,2.86v0a3.38,3.38,0,0,1,2.69,3.31,3.59,3.59,0,0,1-1.4,2.88c-1,.79-2.63,1.23-5.32,1.23a23.58,23.58,0,0,1-3.3-.2Zm3,5.17h1c1.62,0,2.46-.66,2.46-1.66s-.78-1.57-2.16-1.57a7.71,7.71,0,0,0-1.31.09Zm0,6a9.8,9.8,0,0,0,1.19,0c1.38,0,2.6-.54,2.6-2s-1.22-1.88-2.74-1.88h-1.05Z"/><path class="cls-1" d="M127.22,11.25a26.63,26.63,0,0,1,3.95-.28,7.57,7.57,0,0,1,4,.76,2.93,2.93,0,0,1,1.61,2.67,3.06,3.06,0,0,1-2.22,2.86v0a3.37,3.37,0,0,1,2.68,3.31,3.59,3.59,0,0,1-1.4,2.88c-1,.79-2.63,1.23-5.31,1.23a23.64,23.64,0,0,1-3.31-.2Zm3,5.17h1c1.62,0,2.46-.66,2.46-1.66s-.78-1.57-2.16-1.57a7.71,7.71,0,0,0-1.31.09Zm0,6a9.8,9.8,0,0,0,1.19,0c1.38,0,2.6-.54,2.6-2s-1.22-1.88-2.74-1.88h-1Z"/><path class="cls-1" d="M147.36,18.87h-5v3.2H148v2.51h-8.6V11.07h8.32v2.51H142.4v2.8h5Z"/><path class="cls-1" d="M150,11.25A26.48,26.48,0,0,1,154.1,11c2,0,3.41.3,4.37,1.06a3.44,3.44,0,0,1,1.26,2.85,3.6,3.6,0,0,1-2.38,3.31v0a3.38,3.38,0,0,1,1.8,2.51,37.75,37.75,0,0,0,1.09,3.83h-3.13a18.28,18.28,0,0,1-.92-3.15c-.38-1.7-1-2.14-2.23-2.16h-.9v5.31h-3Zm3,5.81h1.2c1.53,0,2.43-.76,2.43-1.94s-.84-1.87-2.25-1.87a6.75,6.75,0,0,0-1.38.1Z"/><path class="cls-1" d="M40,30.65v-1.5l-1.11-2h.52l.49,1c.14.26.24.48.35.72h0c.1-.23.22-.46.36-.72l.51-1h.51l-1.18,2v1.5Z"/><path class="cls-1" d="M46.3,29.36A1.23,1.23,0,0,1,45,30.7a1.2,1.2,0,0,1-1.22-1.3,1.24,1.24,0,0,1,1.26-1.34A1.2,1.2,0,0,1,46.3,29.36Zm-2,0c0,.55.32,1,.77,1s.76-.41.76-1-.21-1-.75-1S44.29,28.91,44.29,29.39Z"/><path class="cls-1" d="M51.34,30q0,.39,0,.69H51l0-.42h0a.94.94,0,0,1-.83.47c-.4,0-.88-.22-.88-1.1V28.12h.46v1.4c0,.48.15.8.57.8a.64.64,0,0,0,.6-.42.56.56,0,0,0,0-.23V28.12h.46Z"/><path class="cls-1" d="M54.46,28.91c0-.3,0-.56,0-.79h.4l0,.49h0a.75.75,0,0,1,.7-.55.27.27,0,0,1,.13,0v.43l-.16,0a.64.64,0,0,0-.61.59,1.5,1.5,0,0,0,0,.22v1.35h-.46Z"/><path class="cls-1" d="M62,27.12h.45v3.15H64v.38H62Z"/><path class="cls-1" d="M67.31,27.41a.27.27,0,0,1-.29.28.29.29,0,0,1,0-.57A.27.27,0,0,1,67.31,27.41Zm-.51,3.24V28.12h.46v2.53Z"/><path class="cls-1" d="M70.38,28.8c0-.26,0-.47,0-.68h.4l0,.42h0a.92.92,0,0,1,.84-.48c.35,0,.89.21.89,1.08v1.51h-.46V29.19c0-.41-.15-.75-.59-.75a.66.66,0,0,0-.61.47.73.73,0,0,0,0,.22v1.52h-.46Z"/><path class="cls-1" d="M77.75,30c0,.26,0,.49,0,.69h-.41l0-.42h0a.93.93,0,0,1-.83.47c-.4,0-.88-.22-.88-1.1V28.12h.46v1.4c0,.48.15.8.57.8a.67.67,0,0,0,.61-.42.79.79,0,0,0,0-.23V28.12h.46Z"/><path class="cls-1" d="M81.08,28.12l.36.54.25.41h0c.08-.15.17-.28.25-.41l.36-.54h.49L82,29.34l.89,1.31h-.52l-.38-.57-.27-.44h0c-.08.15-.17.29-.26.44l-.37.57h-.51l.9-1.29-.86-1.24Z"/><path class="cls-1" d="M89.57,27.51H88.49v-.39H91.1v.39H90v3.14h-.46Z"/><path class="cls-1" d="M93.6,28.91c0-.3,0-.56,0-.79H94v.49h0a.77.77,0,0,1,.7-.55.32.32,0,0,1,.14,0v.43l-.16,0a.65.65,0,0,0-.62.59,1.5,1.5,0,0,0,0,.22v1.35H93.6Z"/><path class="cls-1" d="M99,30.65l0-.32h0a.93.93,0,0,1-.77.37.72.72,0,0,1-.78-.72c0-.61.55-.95,1.52-.94V29a.52.52,0,0,0-.57-.58,1.22,1.22,0,0,0-.66.19l-.1-.31a1.62,1.62,0,0,1,.83-.22c.77,0,1,.53,1,1V30a3.82,3.82,0,0,0,0,.61ZM99,29.36c-.5,0-1.07.07-1.07.57a.41.41,0,0,0,.44.43.61.61,0,0,0,.61-.42.77.77,0,0,0,0-.15Z"/><path class="cls-1" d="M103,27.41a.28.28,0,0,1-.3.28.27.27,0,0,1-.27-.28.28.28,0,0,1,.28-.29A.27.27,0,0,1,103,27.41Zm-.52,3.24V28.12H103v2.53Z"/><path class="cls-1" d="M106.08,28.8c0-.26,0-.47,0-.68h.41l0,.42h0a.92.92,0,0,1,.84-.48c.35,0,.89.21.89,1.08v1.51h-.46V29.19c0-.41-.15-.75-.58-.75a.66.66,0,0,0-.62.47.73.73,0,0,0,0,.22v1.52h-.46Z"/><path class="cls-1" d="M111.84,27.41a.27.27,0,0,1-.29.28.29.29,0,1,1,0-.57A.27.27,0,0,1,111.84,27.41Zm-.51,3.24V28.12h.46v2.53Z"/><path class="cls-1" d="M114.91,28.8c0-.26,0-.47,0-.68h.4l0,.42h0a.92.92,0,0,1,.84-.48c.35,0,.89.21.89,1.08v1.51h-.46V29.19c0-.41-.15-.75-.58-.75a.66.66,0,0,0-.62.47.73.73,0,0,0,0,.22v1.52h-.46Z"/><path class="cls-1" d="M122.34,28.12c0,.18,0,.38,0,.69v1.47a1.49,1.49,0,0,1-.36,1.16,1.34,1.34,0,0,1-.92.3,1.59,1.59,0,0,1-.84-.21l.11-.35a1.48,1.48,0,0,0,.74.2.77.77,0,0,0,.82-.88v-.29h0a.9.9,0,0,1-.81.43A1.14,1.14,0,0,1,120,29.4a1.22,1.22,0,0,1,1.14-1.34.84.84,0,0,1,.79.44h0l0-.38Zm-.48,1a.68.68,0,0,0,0-.21.67.67,0,0,0-.64-.49c-.44,0-.76.37-.76,1s.25.91.75.91a.68.68,0,0,0,.64-.47,1.07,1.07,0,0,0,0-.25Z"/><path class="cls-1" d="M128.91,27.17a4.91,4.91,0,0,1,.87-.07,1.44,1.44,0,0,1,1,.29.93.93,0,0,1,.31.74,1,1,0,0,1-.27.75,1.44,1.44,0,0,1-1.08.39,1.94,1.94,0,0,1-.36,0v1.41h-.46Zm.46,1.69a1.31,1.31,0,0,0,.37,0c.55,0,.89-.27.89-.75s-.33-.69-.84-.69a1.39,1.39,0,0,0-.42,0Z"/><path class="cls-1" d="M135.29,30.65l0-.32h0a.93.93,0,0,1-.77.37.73.73,0,0,1-.78-.72c0-.61.55-.95,1.52-.94V29a.52.52,0,0,0-.57-.58,1.22,1.22,0,0,0-.66.19l-.1-.31a1.62,1.62,0,0,1,.83-.22c.77,0,1,.53,1,1V30a3.82,3.82,0,0,0,0,.61Zm-.06-1.29c-.51,0-1.08.07-1.08.57a.41.41,0,0,0,.44.43.61.61,0,0,0,.61-.42.8.8,0,0,0,0-.15Z"/><path class="cls-1" d="M138.76,28.91c0-.3,0-.56,0-.79h.41v.49h0a.76.76,0,0,1,.7-.55.27.27,0,0,1,.13,0v.43l-.15,0a.65.65,0,0,0-.62.59,1.5,1.5,0,0,0,0,.22v1.35h-.46Z"/><path class="cls-1" d="M143.51,27.39v.73h.65v.35h-.65v1.36c0,.31.08.49.34.49a.91.91,0,0,0,.27,0l0,.35a1.32,1.32,0,0,1-.41.06.67.67,0,0,1-.5-.19,1,1,0,0,1-.17-.66V28.47h-.4v-.35h.4v-.61Z"/><path class="cls-1" d="M147,28.8c0-.26,0-.47,0-.68h.41l0,.42h0a.9.9,0,0,1,.83-.48c.35,0,.9.21.9,1.08v1.51h-.46V29.19c0-.41-.15-.75-.59-.75a.67.67,0,0,0-.62.47.73.73,0,0,0,0,.22v1.52H147Z"/><path class="cls-1" d="M152.54,29.47a.81.81,0,0,0,.87.87,1.55,1.55,0,0,0,.7-.13l.08.33a1.92,1.92,0,0,1-.84.16,1.18,1.18,0,0,1-1.25-1.28,1.23,1.23,0,0,1,1.19-1.36,1.07,1.07,0,0,1,1.05,1.19,1.09,1.09,0,0,1,0,.22Zm1.35-.33a.65.65,0,0,0-.64-.75.76.76,0,0,0-.7.75Z"/><path class="cls-1" d="M157.26,28.91c0-.3,0-.56,0-.79h.4l0,.49h0a.75.75,0,0,1,.7-.55.27.27,0,0,1,.13,0v.43l-.16,0a.66.66,0,0,0-.62.59,1.5,1.5,0,0,0,0,.22v1.35h-.45Z"/><path class="cls-1" d="M24.54,5.53a2.57,2.57,0,0,0,0-.88S28.73.34,29.63,0c0,0-5.21,1-7.14,2.61A6.76,6.76,0,0,0,14.28,4.3,17.44,17.44,0,1,0,24.54,5.53ZM19.36,5.1a1.18,1.18,0,0,1,1.18,1.18,1.12,1.12,0,0,1-.25.69h-.05a1.17,1.17,0,0,1-.87.4,1.19,1.19,0,0,1-1-.63h-.06a1.13,1.13,0,0,1-.09-.45A1.18,1.18,0,0,1,19.36,5.1Zm-8.2,9.52A98.22,98.22,0,0,0,5.49,30.1,14.74,14.74,0,0,1,12.24,7.64,14.22,14.22,0,0,0,11.16,14.62ZM27.54,32.19a14.71,14.71,0,0,1-10.11,4,15,15,0,0,1-3.31-.38c.4-9,4.43-8.36,7.69-5s2.84-4.87,2.84-6.91a20.64,20.64,0,0,0-2.95-8.39c-1.14-1.36-3.4-4.76-1.14-4.65s5.33,4.88,6.35,7.94.57,13.26.57,13.26ZM29,30.54a8.17,8.17,0,0,0,.14-.84c.57-5.56-1-14.06-5.33-19.16,0,0,.18-1,.35-2.2A14.73,14.73,0,0,1,29,30.54Z"/></g></g></svg>