<svg xmlns="http://www.w3.org/2000/svg" viewBox="0 0 742.47 180.15"><defs><style>.cls-1{fill:#f1f1f2;}</style></defs><title>Linuxjobber-logo-gray</title><g id="Layer_2" data-name="Layer 2"><g id="Layer_1-2" data-name="Layer 1"><path class="cls-1" d="M178.84,51.3h11.42v53H216v9.56H178.84Z"/><path class="cls-1" d="M236.06,51.3v62.58H224.65V51.3Z"/><path class="cls-1" d="M249.08,113.88V51.3h13.08l16.17,26.84a186.15,186.15,0,0,1,10.67,21h.18a257.27,257.27,0,0,1-1-26V51.3h10.59v62.58H286.87L270.52,86.3a216.89,216.89,0,0,1-11.14-21.54l-.36.1c.45,8.08.65,16.34.65,26.64v22.38Z"/><path class="cls-1" d="M323.3,51.3V87.79c0,12.26,5.11,17.93,12.81,17.93,8.27,0,13.19-5.67,13.19-17.93V51.3h11.42V87c0,19.32-9.94,27.86-25,27.86-14.48,0-23.86-8.08-23.86-27.75V51.3Z"/><path class="cls-1" d="M407.27,113.88l-6.68-12.45c-2.69-4.82-4.46-8.16-6.31-11.79h-.2c-1.48,3.63-3.14,7-5.66,11.79l-6.23,12.45H369.11l18.58-31.66L369.76,51.3H383l6.77,12.91c2,3.9,3.52,7,5.11,10.5h.27c1.66-3.91,3-6.7,4.91-10.5l6.71-12.91H419.8L401.52,81.85l19,32Z"/><path class="cls-1" d="M440.82,51.3h14.11V90.85c0,17.83-8.53,24.05-22.18,24.05a36.66,36.66,0,0,1-10.41-1.49L423.93,102a22.85,22.85,0,0,0,7.23,1.13c5.94,0,9.66-2.7,9.66-12.35Z"/><path class="cls-1" d="M524,82c0,20.6-12.33,33-30.72,33s-29.44-14-29.44-31.94c0-18.75,12.06-32.77,30.45-32.77C513.54,50.19,524,64.57,524,82Zm-45.2.74c0,12.34,5.75,21,15.22,21S509.1,94.58,509.1,82.4c0-11.33-5.3-21-15.05-21S478.83,70.51,478.83,82.69Z"/><path class="cls-1" d="M533.36,52.14a122.38,122.38,0,0,1,18.3-1.3c8.64,0,13.93.83,18.57,3.53a13.56,13.56,0,0,1,7.42,12.34c0,5.48-3.25,10.59-10.29,13.29v.18c7.14,1.86,12.43,7.34,12.43,15.31a16.73,16.73,0,0,1-6.49,13.38c-4.55,3.62-12.17,5.67-24.62,5.67a111.91,111.91,0,0,1-15.32-.93Zm14,24H552c7.52,0,11.43-3.08,11.43-7.71s-3.64-7.25-10-7.25a36.17,36.17,0,0,0-6,.38Zm0,27.75a43.86,43.86,0,0,0,5.49.19c6.4,0,12.07-2.51,12.07-9.11,0-6.21-5.67-8.72-12.72-8.72h-4.84Z"/><path class="cls-1" d="M589.48,52.14a122.27,122.27,0,0,1,18.3-1.3c8.64,0,13.93.83,18.57,3.53a13.56,13.56,0,0,1,7.42,12.34c0,5.48-3.25,10.59-10.29,13.29v.18c7.13,1.86,12.42,7.34,12.42,15.31a16.72,16.72,0,0,1-6.48,13.38c-4.56,3.62-12.17,5.67-24.62,5.67a111.91,111.91,0,0,1-15.32-.93Zm14,24h4.64c7.53,0,11.43-3.08,11.43-7.71s-3.63-7.25-10-7.25a35.93,35.93,0,0,0-6,.38Zm0,27.75A43.78,43.78,0,0,0,609,104c6.39,0,12.06-2.51,12.06-9.11,0-6.21-5.67-8.72-12.71-8.72H603.5Z"/><path class="cls-1" d="M682.83,87.42h-23v14.86h25.72v11.6H645.69V51.3h38.54V62.91H659.81v13h23Z"/><path class="cls-1" d="M695.21,52.14a122.3,122.3,0,0,1,18.84-1.3c9.28,0,15.79,1.39,20.25,4.92,3.81,3,5.85,7.42,5.85,13.18,0,7.9-5.67,13.37-11,15.33v.27c4.35,1.76,6.77,5.85,8.36,11.61,1.94,7.15,3.8,15.32,5,17.73H728c-.93-1.85-2.51-6.87-4.26-14.58-1.77-7.89-4.47-9.93-10.32-10h-4.18v24.6h-14Zm14,26.92h5.57c7.06,0,11.24-3.53,11.24-9,0-5.67-3.91-8.64-10.41-8.64a28.8,28.8,0,0,0-6.4.46Z"/><path class="cls-1" d="M185.45,142v-6.92l-5.16-9.4h2.4l2.3,4.51c.63,1.23,1.11,2.22,1.62,3.36h0c.46-1.06,1-2.13,1.65-3.36l2.35-4.51h2.39l-5.47,9.37V142Z"/><path class="cls-1" d="M214.51,136.05c0,4.33-3,6.22-5.83,6.22-3.18,0-5.62-2.32-5.62-6,0-3.92,2.57-6.22,5.81-6.22S214.51,132.46,214.51,136.05Zm-9.3.12c0,2.56,1.48,4.5,3.56,4.5s3.56-1.91,3.56-4.55c0-2-1-4.5-3.51-4.5S205.21,133.94,205.21,136.17Z"/><path class="cls-1" d="M237.91,138.81c0,1.21,0,2.27.1,3.19h-1.89l-.12-1.91H236a4.4,4.4,0,0,1-3.88,2.18c-1.84,0-4-1-4-5.13v-6.86h2.13v6.49c0,2.23.68,3.73,2.62,3.73a3.08,3.08,0,0,0,2.81-1.93,3.2,3.2,0,0,0,.19-1.09v-7.2h2.13Z"/><path class="cls-1" d="M252.35,133.94c0-1.38,0-2.57-.1-3.66h1.87l.07,2.3h.09a3.53,3.53,0,0,1,3.25-2.56,2.2,2.2,0,0,1,.6.07v2a3,3,0,0,0-.72-.07,3,3,0,0,0-2.86,2.73,5.83,5.83,0,0,0-.1,1V142h-2.1Z"/><path class="cls-1" d="M287.27,125.68h2.11v14.56h7V142h-9.08Z"/><path class="cls-1" d="M311.91,127a1.32,1.32,0,0,1-2.64,0,1.29,1.29,0,0,1,1.33-1.33A1.27,1.27,0,0,1,311.91,127Zm-2.38,15V130.28h2.13V142Z"/><path class="cls-1" d="M326.1,133.46c0-1.22,0-2.21-.1-3.18h1.89l.12,1.94h.05a4.31,4.31,0,0,1,3.87-2.2c1.63,0,4.15,1,4.15,5v7H334v-6.75c0-1.89-.71-3.47-2.72-3.47a3.14,3.14,0,0,0-3,3.18v7H326.1Z"/><path class="cls-1" d="M360.25,138.81c0,1.21,0,2.27.09,3.19h-1.88l-.13-1.91h0a4.42,4.42,0,0,1-3.88,2.18c-1.84,0-4-1-4-5.13v-6.86h2.13v6.49c0,2.23.68,3.73,2.61,3.73a3.07,3.07,0,0,0,2.81-1.93,3.2,3.2,0,0,0,.2-1.09v-7.2h2.13Z"/><path class="cls-1" d="M375.68,130.28l1.67,2.52c.43.66.8,1.26,1.19,1.91h.07c.39-.7.77-1.3,1.16-1.93l1.65-2.5h2.3l-4,5.67,4.12,6.05h-2.42l-1.72-2.64c-.46-.67-.85-1.33-1.26-2h-.05c-.39.7-.8,1.33-1.23,2l-1.7,2.64h-2.35l4.17-6-4-5.74Z"/><path class="cls-1" d="M415,127.47h-5v-1.79h12.08v1.79h-5V142H415Z"/><path class="cls-1" d="M433.69,133.94c0-1.38,0-2.57-.1-3.66h1.86l.08,2.3h.09a3.53,3.53,0,0,1,3.25-2.56,2.32,2.32,0,0,1,.61.07v2a3.17,3.17,0,0,0-.73-.07,3,3,0,0,0-2.86,2.73,5.83,5.83,0,0,0-.1,1V142h-2.1Z"/><path class="cls-1" d="M458.88,142l-.17-1.47h-.08a4.35,4.35,0,0,1-3.58,1.74,3.34,3.34,0,0,1-3.58-3.37c0-2.83,2.51-4.38,7-4.36v-.24a2.41,2.41,0,0,0-2.66-2.71,5.85,5.85,0,0,0-3.05.87l-.49-1.4a7.29,7.29,0,0,1,3.85-1c3.59,0,4.46,2.44,4.46,4.79v4.38a17.09,17.09,0,0,0,.19,2.81Zm-.32-6c-2.32-.05-5,.37-5,2.64a1.89,1.89,0,0,0,2,2,2.92,2.92,0,0,0,2.83-2,2.25,2.25,0,0,0,.12-.67Z"/><path class="cls-1" d="M477.33,127A1.25,1.25,0,0,1,476,128.3a1.27,1.27,0,0,1-1.29-1.31,1.3,1.3,0,0,1,1.34-1.33A1.26,1.26,0,0,1,477.33,127ZM475,142V130.28h2.13V142Z"/><path class="cls-1" d="M491.53,133.46c0-1.22,0-2.21-.1-3.18h1.89l.12,1.94h.05a4.31,4.31,0,0,1,3.87-2.2c1.63,0,4.14,1,4.14,5v7h-2.13v-6.75c0-1.89-.7-3.47-2.71-3.47A3.05,3.05,0,0,0,493.8,134a3.31,3.31,0,0,0-.14,1v7h-2.13Z"/><path class="cls-1" d="M518.24,127a1.25,1.25,0,0,1-1.35,1.31A1.27,1.27,0,0,1,515.6,127a1.3,1.3,0,0,1,1.33-1.33A1.27,1.27,0,0,1,518.24,127Zm-2.37,15V130.28H518V142Z"/><path class="cls-1" d="M532.43,133.46c0-1.22,0-2.21-.09-3.18h1.89l.12,1.94h0a4.3,4.3,0,0,1,3.87-2.2c1.62,0,4.14,1,4.14,5v7h-2.13v-6.75c0-1.89-.7-3.47-2.71-3.47a3.11,3.11,0,0,0-3,3.18v7h-2.14Z"/><path class="cls-1" d="M566.88,130.28c0,.85-.1,1.79-.1,3.22v6.81c0,2.69-.53,4.33-1.67,5.35a6.21,6.21,0,0,1-4.26,1.41,7.54,7.54,0,0,1-3.9-1l.53-1.63a6.56,6.56,0,0,0,3.44.92c2.18,0,3.78-1.13,3.78-4.09V140h-.05a4.21,4.21,0,0,1-3.73,2c-2.91,0-5-2.47-5-5.72,0-4,2.59-6.22,5.28-6.22a3.91,3.91,0,0,1,3.66,2h0l.1-1.77Zm-2.21,4.63a2.93,2.93,0,0,0-.12-1,3.07,3.07,0,0,0-3-2.25c-2,0-3.49,1.72-3.49,4.43,0,2.3,1.17,4.21,3.47,4.21a3.1,3.1,0,0,0,3-2.18,3.69,3.69,0,0,0,.17-1.13Z"/><path class="cls-1" d="M597.32,125.88a24.34,24.34,0,0,1,4-.32,6.63,6.63,0,0,1,4.57,1.36,4.36,4.36,0,0,1,1.43,3.41,4.78,4.78,0,0,1-1.26,3.49,6.74,6.74,0,0,1-5,1.79,7.26,7.26,0,0,1-1.69-.14V142h-2.11Zm2.11,7.87a7.1,7.1,0,0,0,1.74.17c2.55,0,4.1-1.24,4.1-3.49s-1.53-3.2-3.85-3.2a8.61,8.61,0,0,0-2,.17Z"/><path class="cls-1" d="M626.89,142l-.17-1.47h-.07a4.35,4.35,0,0,1-3.58,1.74,3.35,3.35,0,0,1-3.59-3.37c0-2.83,2.52-4.38,7-4.36v-.24a2.41,2.41,0,0,0-2.66-2.71,5.85,5.85,0,0,0-3,.87l-.49-1.4a7.29,7.29,0,0,1,3.85-1c3.59,0,4.46,2.44,4.46,4.79v4.38a17.09,17.09,0,0,0,.19,2.81Zm-.31-6c-2.32-.05-5,.37-5,2.64a1.9,1.9,0,0,0,2,2,2.92,2.92,0,0,0,2.83-2,2.25,2.25,0,0,0,.12-.67Z"/><path class="cls-1" d="M643,133.94c0-1.38,0-2.57-.1-3.66h1.87l.07,2.3h.1a3.51,3.51,0,0,1,3.24-2.56,2.32,2.32,0,0,1,.61.07v2A3.17,3.17,0,0,0,648,132a3,3,0,0,0-2.86,2.73,5.83,5.83,0,0,0-.1,1V142H643Z"/><path class="cls-1" d="M665,126.92v3.36h3v1.63h-3v6.32c0,1.45.41,2.27,1.59,2.27a5,5,0,0,0,1.24-.14l.1,1.6a5.49,5.49,0,0,1-1.89.29,3,3,0,0,1-2.3-.9,4.32,4.32,0,0,1-.83-3v-6.39h-1.81v-1.63h1.81v-2.81Z"/><path class="cls-1" d="M681.29,133.46c0-1.22,0-2.21-.09-3.18h1.89l.12,1.94h0a4.3,4.3,0,0,1,3.87-2.2c1.62,0,4.14,1,4.14,5v7h-2.13v-6.75c0-1.89-.7-3.47-2.71-3.47a3.11,3.11,0,0,0-3,3.18v7h-2.14Z"/><path class="cls-1" d="M706.82,136.53a3.76,3.76,0,0,0,4,4.07,7.69,7.69,0,0,0,3.25-.61l.36,1.53a9.45,9.45,0,0,1-3.9.73c-3.61,0-5.76-2.38-5.76-5.91s2.08-6.32,5.5-6.32c3.82,0,4.84,3.36,4.84,5.52a9.22,9.22,0,0,1-.07,1Zm6.25-1.52c0-1.36-.56-3.47-3-3.47-2.16,0-3.1,2-3.27,3.47Z"/><path class="cls-1" d="M728.67,133.94c0-1.38,0-2.57-.1-3.66h1.87l.07,2.3h.1a3.51,3.51,0,0,1,3.24-2.56,2.22,2.22,0,0,1,.61.07v2a3.17,3.17,0,0,0-.73-.07,3,3,0,0,0-2.86,2.73,7.13,7.13,0,0,0-.09,1V142h-2.11Z"/><path class="cls-1" d="M113.73,25.63a13.72,13.72,0,0,0,0-4.09S133.11,1.58,137.31,0c0,0-24.16,4.73-33.09,12.08,0,0-21.42-11.44-38.06,7.85a80.81,80.81,0,1,0,47.57,5.7Zm-24-2a5.46,5.46,0,0,1,5.47,5.47A5.36,5.36,0,0,1,94,32.31l-.23,0a5.35,5.35,0,0,1-4,1.87,5.48,5.48,0,0,1-4.83-2.92l-.27,0a5.31,5.31,0,0,1-.43-2.11A5.46,5.46,0,0,1,89.7,23.62Zm-38,44.14S33.23,107.1,25.44,139.47A68.35,68.35,0,0,1,56.72,35.38,66.46,66.46,0,0,0,51.69,67.76Zm75.92,81.38a68.11,68.11,0,0,1-46.83,18.58A69,69,0,0,1,65.4,166C67.27,124,86,127.24,101.07,142.86s13.13-22.58,13.13-32S105.8,78.26,100.55,72,84.79,49.9,95.29,50.42,120,73,124.71,87.19s2.62,61.45,2.62,61.45A2.76,2.76,0,0,1,127.61,149.14Zm7-7.62a37.42,37.42,0,0,0,.63-3.91c2.62-25.73-4.72-65.13-24.69-88.76,0,0,.8-4.71,1.61-10.22a68.33,68.33,0,0,1,22.45,102.89Z"/></g></g></svg>