<svg xmlns="http://www.w3.org/2000/svg" viewBox="0 0 139.38 73.63"><defs><style>.cls-1{fill:#231f20;}</style></defs><title>signature</title><g id="Layer_2" data-name="Layer 2"><g id="Layer_1-2" data-name="Layer 1"><path class="cls-1" d="M33.09,73.63A171.27,171.27,0,0,0,56.89.25l.49.21c-4.39,5.17-6.83,11.74-8,18.4s-1,13.53-.65,20.32c.23,3.39.1,6.87,1.17,10a8.22,8.22,0,0,0,2.74,4,6,6,0,0,0,4.48,1.33,4.71,4.71,0,0,0,3.49-2.9A7.43,7.43,0,0,0,61,46.85a11.73,11.73,0,0,0-2.38-4.29A37.58,37.58,0,0,0,55,39l.63-.14a19.37,19.37,0,0,0,3.86,20.93l-.67.07A5.95,5.95,0,0,0,56,51.52l.56-.59a14.66,14.66,0,0,0,7.93,7.72l-.61.3A3,3,0,0,0,63,56.09a3,3,0,0,0-2.79-1l.25-.79,5,5.26-.8.18a19,19,0,0,0,.4-10.66,23.37,23.37,0,0,0-4.85-9.6,28.24,28.24,0,0,0-8.54-6.68A37.56,37.56,0,0,0,41.39,29.3c-7.22-1.34-14.66-.85-21.94.16a45.64,45.64,0,0,0-10.7,2.38,14.71,14.71,0,0,0-4.56,2.84,11.22,11.22,0,0,0-2.95,4.41,7.89,7.89,0,0,0-.06,5.19,10.07,10.07,0,0,0,3,4.34C6.9,51,10.62,52,14.24,52a74.07,74.07,0,0,0,11-.93q5.49-.75,11-1.72c14.54-2.6,28.87-6.3,43.19-10a.26.26,0,0,1,.32.18.31.31,0,0,1-.06.25,3.26,3.26,0,0,0-.27,3.62A5.3,5.3,0,0,0,82.28,46a23.34,23.34,0,0,0,4,1.14l4,1c5.4,1.26,10.8,2.5,16.23,3.62a227.81,227.81,0,0,0,32.88,4.71A229.89,229.89,0,0,1,106.44,52C101,50.9,95.59,49.7,90.18,48.49l-4.06-.92a24.85,24.85,0,0,1-4-1.13,5.84,5.84,0,0,1-3.19-2.78,4.61,4.61,0,0,1-.47-2.13,3.21,3.21,0,0,1,.81-2.06l.26.42C65.18,43.64,50.85,47.38,36.28,50c-3.64.65-7.3,1.25-11,1.75a74.69,74.69,0,0,1-11.1,1,20.57,20.57,0,0,1-5.56-.84,13.56,13.56,0,0,1-5-2.73A10.78,10.78,0,0,1,.45,44.52a8.74,8.74,0,0,1,0-5.69,13.56,13.56,0,0,1,7.94-7.74c3.5-1.44,7.24-1.92,10.89-2.46,7.32-1,14.85-1.57,22.23-.23A38.3,38.3,0,0,1,52.16,32,28.77,28.77,0,0,1,61,38.84a24.13,24.13,0,0,1,5.08,10,19.91,19.91,0,0,1-.47,11.21.48.48,0,0,1-.8.17l-5-5.28a.47.47,0,0,1,0-.67.57.57,0,0,1,.23-.12,3.69,3.69,0,0,1,2,.18,4.55,4.55,0,0,1,1.64,1.13,4.29,4.29,0,0,1,1,1.72,3.51,3.51,0,0,1,0,2,.46.46,0,0,1-.57.31h0a15.61,15.61,0,0,1-8.41-8.23.46.46,0,0,1,.24-.59.5.5,0,0,1,.32,0,6.82,6.82,0,0,1,3.33,9.61.43.43,0,0,1-.59.14l-.08-.06a20.2,20.2,0,0,1-4-21.85.41.41,0,0,1,.52-.2l.11.07a38.14,38.14,0,0,1,3.62,3.68,12.35,12.35,0,0,1,2.52,4.59,8.09,8.09,0,0,1-.37,5.25,5.42,5.42,0,0,1-4.05,3.33,6.62,6.62,0,0,1-5-1.49,8.87,8.87,0,0,1-3-4.32,19.9,19.9,0,0,1-.92-5.1c-.12-1.72-.18-3.41-.26-5.12-.3-6.8-.43-13.68.72-20.45S52.47,5.36,57,.1a.27.27,0,0,1,.39,0,.26.26,0,0,1,.09.23A169.34,169.34,0,0,1,33.09,73.63Z"/></g></g></svg>