<svg width="40" height="40" viewBox="0 0 40 40" fill="none" xmlns="http://www.w3.org/2000/svg">
<path d="M39.3745 15.0195C38.4886 11.5631 36.6792 8.39508 34.1423 5.85785L27.8126 9.2395L23.5176 16.4825H39.7496L39.3745 15.0195Z" fill="#009959"/>
<path d="M5.85791 34.1422C9.63538 37.9196 14.658 40 20.0001 40C25.3422 40 30.3647 37.9196 34.1422 34.1422C37.9197 30.3647 40.0001 25.3421 40.0001 19.9982V18.8263H21.1738L12.8907 20.7812L5.85791 34.1422Z" fill="#E30000"/>
<path d="M24.9806 0.62561L23.5176 0.250549V16.4825L34.1423 5.85785C31.6053 3.32092 28.437 1.51154 24.9806 0.62561Z" fill="#00DD80"/>
<path d="M21.1737 1.17188L21.1719 0H20C14.6579 0 9.63531 2.08038 5.85785 5.85785C2.08038 9.63531 0 14.6579 0 20C0 25.3421 2.08038 30.3647 5.85785 34.1422L21.1737 18.8263V1.17188Z" fill="#FF4C04"/>
</svg>
